<svg xmlns="http://www.w3.org/2000/svg" xml:space="preserve" viewBox="0 0 64 64"><style>.st1{opacity:.2}.st2{fill:#231f20}.st3{fill:#e0e0d1}</style><g id="Layer_1"><circle cx="32" cy="32" r="32" fill="#4f5d73"/><g class="st1"><path d="M44.6 38c-.9 0-1.2-.6-.6-1.4l4.8-6c.6-.8 1.6-.8 2.2 0l4.8 6c.6.8.3 1.4-.6 1.4H44.6z" class="st2"/></g><g class="st1"><path d="M8.9 38c-.9 0-1.2-.6-.6-1.4l4.8-6c.6-.8 1.6-.8 2.2 0l4.8 6c.6.8.3 1.4-.6 1.4H8.9z" class="st2"/></g><path d="M44.6 36c-.9 0-1.2-.6-.6-1.4l4.8-6c.6-.8 1.6-.8 2.2 0l4.8 6c.6.8.3 1.4-.6 1.4H44.6zM8.9 36c-.9 0-1.2-.6-.6-1.4l4.8-6c.6-.8 1.6-.8 2.2 0l4.8 6c.6.8.3 1.4-.6 1.4H8.9z" class="st3"/><g class="st1"><path d="M32 56c-11 0-20-9-20-20 0-1.1.9-2 2-2s2 .9 2 2c0 8.8 7.2 16 16 16s16-7.2 16-16c0-1.1.9-2 2-2s2 .9 2 2c0 11-9 20-20 20z" class="st2"/></g><path d="M32 54c-11 0-20-9-20-20 0-1.1.9-2 2-2s2 .9 2 2c0 8.8 7.2 16 16 16s16-7.2 16-16c0-1.1.9-2 2-2s2 .9 2 2c0 11-9 20-20 20z" class="st3"/><path d="M30 20h4v32h-4z" class="st3"/><g class="st1"><path d="M32 24c-3.3 0-6-2.7-6-6s2.7-6 6-6 6 2.7 6 6-2.7 6-6 6zm0-8c-1.1 0-2 .9-2 2s.9 2 2 2 2-.9 2-2-.9-2-2-2z" class="st2"/></g><g class="st1"><path d="M40 31c0 1.1-.9 2-2 2H26c-1.1 0-2-.9-2-2s.9-2 2-2h12c1.1 0 2 .9 2 2z" class="st2"/></g><path d="M32 22c-3.3 0-6-2.7-6-6s2.7-6 6-6 6 2.7 6 6-2.7 6-6 6zm0-8c-1.1 0-2 .9-2 2s.9 2 2 2 2-.9 2-2-.9-2-2-2zM40 29c0 1.1-.9 2-2 2H26c-1.1 0-2-.9-2-2s.9-2 2-2h12c1.1 0 2 .9 2 2z" class="st3"/></g></svg>