<svg xmlns="http://www.w3.org/2000/svg" xml:space="preserve" id="Layer_1" x="0" y="0" version="1.1" viewBox="0 0 64 64"><style>.st1{opacity:.2}.st2{fill:#231f20}.st3{fill:#4f5d73}</style><circle cx="32" cy="32" r="32" fill="#e0e0d1"/><g class="st1"><path d="M19 13.8c-4.5 2.9-7.9 7.2-9.7 12.3l9.7 9.7v-22z" class="st2"/></g><g class="st1"><path d="M8.4 29.5C8.1 31 8 32.5 8 34c0 3.6.8 7 2.2 10h12.7L8.4 29.5z" class="st2"/></g><g class="st1"><path d="M27.5 57.6c1.5.3 3 .4 4.5.4 3.6 0 7-.8 10-2.2V43.1L27.5 57.6z" class="st2"/></g><g class="st1"><path d="M11.8 47c2.9 4.5 7.2 7.9 12.3 9.7l9.7-9.7h-22z" class="st2"/></g><g class="st1"><path d="M55.6 38.5c.3-1.5.4-3 .4-4.5 0-3.6-.8-7-2.2-10H41.1l14.5 14.5z" class="st2"/></g><g class="st1"><path d="M45 54.2c4.5-2.9 7.9-7.2 9.7-12.3L45 32.2v22z" class="st2"/></g><g class="st1"><path d="M52.2 21c-2.9-4.5-7.2-7.9-12.3-9.7L30.2 21h22z" class="st2"/></g><g class="st1"><path d="M36.5 10.4c-1.5-.3-3-.4-4.5-.4-3.6 0-7 .8-10 2.2v12.7l14.5-14.5z" class="st2"/></g><path d="M19 11.8c-4.5 2.9-7.9 7.2-9.7 12.3l9.7 9.7v-22zM8.4 27.5C8.1 29 8 30.5 8 32c0 3.6.8 7 2.2 10h12.7L8.4 27.5zM27.5 55.6c1.5.3 3 .4 4.5.4 3.6 0 7-.8 10-2.2V41.1L27.5 55.6zM11.8 45c2.9 4.5 7.2 7.9 12.3 9.7l9.7-9.7h-22zM55.6 36.5c.3-1.5.4-3 .4-4.5 0-3.6-.8-7-2.2-10H41.1l14.5 14.5zM45 52.2c4.5-2.9 7.9-7.2 9.7-12.3L45 30.2v22zM52.2 19c-2.9-4.5-7.2-7.9-12.3-9.7L30.2 19h22zM36.5 8.4C35 8.1 33.5 8 32 8c-3.6 0-7 .8-10 2.2v12.7L36.5 8.4z" class="st3"/></svg>