<svg xmlns="http://www.w3.org/2000/svg" xml:space="preserve" viewBox="0 0 64 64"><style>.st3{fill:#fff}</style><g id="Layer_1"><circle cx="32" cy="32" r="32" fill="#76c2af"/><path fill="#231f20" d="M47.8 30H40V18c0-2.2-1.8-4-4-4h-8c-2.2 0-4 1.8-4 4v12h-7.8c-2.7 0-3.5 1.9-1.7 4.1l14.3 18.1c1.8 2.3 4.7 2.3 6.5 0l14.3-18.1c1.7-2.2 1-4.1-1.8-4.1z" opacity=".2"/><path d="M24 16c0-2.2 1.8-4 4-4h8c2.2 0 4 1.8 4 4v24c0 2.2-1.8 4-4 4h-8c-2.2 0-4-1.8-4-4V16z" class="st3"/><path d="M47.8 28c2.7 0 3.5 1.9 1.7 4.1L35.3 50.3c-1.8 2.3-4.7 2.3-6.5 0L14.5 32.1c-1.8-2.3-1-4.1 1.7-4.1h31.6z" class="st3"/></g></svg>