<svg xmlns="http://www.w3.org/2000/svg" xml:space="preserve" viewBox="0 0 64 64"><style>.st3{fill:#fff}</style><g id="Layer_1"><circle cx="32" cy="32" r="32" fill="#77b3d4"/><path fill="#231f20" d="M49.5 33.9 35.3 15.7c-1.8-2.3-4.7-2.3-6.5 0L14.5 33.9c-1.8 2.3-1 4.1 1.7 4.1H24v12c0 2.2 1.8 4 4 4h8c2.2 0 4-1.8 4-4V38h7.8c2.8 0 3.5-1.9 1.7-4.1z" opacity=".2"/><path d="M40 48c0 2.2-1.8 4-4 4h-8c-2.2 0-4-1.8-4-4V24c0-2.2 1.8-4 4-4h8c2.2 0 4 1.8 4 4v24z" class="st3"/><path d="M16.2 36c-2.7 0-3.5-1.9-1.7-4.1l14.3-18.1c1.8-2.3 4.7-2.3 6.5 0l14.3 18.1c1.8 2.3 1 4.1-1.7 4.1H16.2z" class="st3"/></g></svg>