<svg xmlns="http://www.w3.org/2000/svg" xml:space="preserve" viewBox="0 0 64 64"><style>.st1{opacity:.2}.st2{fill:#231f20}</style><g id="Layer_1"><circle cx="31.8" cy="32" r="32" fill="#e0e0d1"/><g class="st1"><path d="M32 12c-8.5 0-18 5.4-21.1 15.7-1.6 5.2 5.2 3.1 5.6 9.2.4 4.9-1.1 6.6-1.4 9.6-.4 4 8.9 10 17.2 9.6C44.6 55.4 54 46.3 54 34s-9.7-22-22-22zm-8 36c-2.2 0-4-1.8-4-4s1.8-4 4-4 4 1.8 4 4-1.8 4-4 4z" class="st2"/></g><path fill="#e0995e" d="M32 10c-8.5 0-18 5.4-21.1 15.7-1.6 5.2 5.2 3.1 5.6 9.2.4 4.9-1.1 6.6-1.4 9.6-.4 4 8.9 10 17.2 9.6C44.6 53.4 54 44.3 54 32s-9.7-22-22-22zm-8 36c-2.2 0-4-1.8-4-4s1.8-4 4-4 4 1.8 4 4-1.8 4-4 4z"/><g class="st1"><circle cx="20.7" cy="25" r="4" class="st2"/></g><g class="st1"><circle cx="32" cy="19.6" r="4" class="st2"/></g><g class="st1"><circle cx="43.2" cy="24.7" r="4" class="st2"/></g><g class="st1"><circle cx="46.2" cy="37.3" r="4" class="st2"/></g><g class="st1"><circle cx="37.1" cy="47.1" r="4" class="st2"/></g><circle cx="20.7" cy="23" r="4" fill="#c75c5c"/><circle cx="32" cy="17.6" r="4" fill="#f5cf87"/><circle cx="43.2" cy="22.7" r="4" fill="#76c2af"/><circle cx="46.2" cy="35.3" r="4" fill="#fff"/><circle cx="37.1" cy="45.1" r="4" fill="#4f5d73"/></g></svg>