<svg xmlns="http://www.w3.org/2000/svg" xml:space="preserve" id="Layer_1" x="0" y="0" version="1.1" viewBox="0 0 64 64"><style>.st2{fill:#231f20}.st3{fill:#4f5d73}</style><circle cx="32" cy="32" r="32" fill="#77b3d4"/><g opacity=".2"><path d="M50 28h-2v12h2c1.1 0 2-.9 2-2v-8c0-1.1-.9-2-2-2zM48 25c0-1.1-.9-2-2-2H14c-1.1 0-2 .9-2 2v18c0 1.1.9 2 2 2h32c1.1 0 2-.9 2-2V25zm-3 17H15V26h30v16z" class="st2"/><path d="M17 28h26v12H17z" class="st2"/></g><path d="M50 26h-2v12h2c1.1 0 2-.9 2-2v-8c0-1.1-.9-2-2-2z" class="st3"/><path fill="#fff" d="M15 24h30v16H15z"/><path d="M46 21H14c-1.1 0-2 .9-2 2v18c0 1.1.9 2 2 2h32c1.1 0 2-.9 2-2V23c0-1.1-.9-2-2-2zm-1 19H15V24h30v16z" class="st3"/><path fill="#76c2af" d="M17 26h26v12H17z"/></svg>