<svg xmlns="http://www.w3.org/2000/svg" xml:space="preserve" id="Layer_1" x="0" y="0" version="1.1" viewBox="0 0 64 64"><style>.st2{opacity:.2;fill:#231f20}.st3{fill:#4f5d73}.st4{fill:none;stroke:#fff;stroke-width:3;stroke-linecap:round;stroke-linejoin:round;stroke-miterlimit:10}</style><circle cx="32" cy="32" r="32" fill="#76c2af"/><path d="M46 32c3.3 0 6 2.7 6 6s-2.7 6-6 6-6-2.7-6-6 2.7-6 6-6m0-4c-5.5 0-10 4.5-10 10s4.5 10 10 10 10-4.5 10-10-4.5-10-10-10zM18 31c3.9 0 7 3.1 7 7s-3.1 7-7 7-7-3.1-7-7 3.1-7 7-7m0-3c-5.5 0-10 4.5-10 10s4.5 10 10 10 10-4.5 10-10-4.5-10-10-10z" class="st2"/><path d="M18 29c3.9 0 7 3.1 7 7s-3.1 7-7 7-7-3.1-7-7 3.1-7 7-7m0-3c-5.5 0-10 4.5-10 10s4.5 10 10 10 10-4.5 10-10-4.5-10-10-10zM46 29c3.9 0 7 3.1 7 7s-3.1 7-7 7-7-3.1-7-7 3.1-7 7-7m0-3c-5.5 0-10 4.5-10 10s4.5 10 10 10 10-4.5 10-10-4.5-10-10-10z" class="st3"/><path d="m47.3 37.3-9-17.5c-.2-.5-.7-.8-1.3-.8h-5c-.8 0-1.5.7-1.5 1.5S31.2 22 32 22h4.1l3.1 6h-8.7l-2.1-4.2c-.3-.5-.8-.8-1.4-.8h-5c-.8 0-1.5.7-1.5 1.5S21.2 26 22 26h4.1l1.4 2.8-10.4 8.5c-.5.4-.7 1.1-.5 1.7.2.6.8 1 1.4 1h14c.4 0 .8-.2 1.1-.4l8-8 3.6 7.1c.3.5.8.8 1.3.8.2 0 .5-.1.7-.2.7-.3 1-1.2.6-2zM22.2 37l6.7-5.4 2.7 5.3-.2.1h-9.2zm11.5-2.4L31.9 31h5.5l-3.7 3.6z" class="st2"/><path d="m46 36-9-17.5h-5M33 34l-6-11.5h-5" class="st4"/><path d="M18 36.5h14l9-9H29z" class="st4"/></svg>