<svg xmlns="http://www.w3.org/2000/svg" xml:space="preserve" id="Layer_1" x="0" y="0" version="1.1" viewBox="0 0 64 64"><style>.st1{fill:#76c2af}.st2{opacity:.2}.st3{fill:#231f20}.st4{fill:none;stroke:#fff;stroke-width:3;stroke-linecap:round;stroke-miterlimit:10}</style><circle cx="32" cy="32" r="32" class="st1"/><g class="st2"><path d="M32 52c-.8 0-1.5-.9-1.5-2V13c0-1.1.7-2 1.5-2s1.5.9 1.5 2v37c0 1.1-.7 2-1.5 2z" class="st3"/><path d="M50.1 35H13.9c-1.1 0-1.9-.7-1.9-1.5s.9-1.5 1.9-1.5H50c1.1 0 1.9.7 1.9 1.5s-.8 1.5-1.8 1.5z" class="st3"/><path d="M44.5 48.6c-.4 0-.8-.1-1.1-.4L16.9 21.6c-.6-.6-.6-1.5 0-2.1.6-.6 1.5-.6 2.1 0L45.6 46c.6.6.6 1.5 0 2.1-.3.3-.7.5-1.1.5z" class="st3"/><path d="M18.9 49c-.4 0-.8-.1-1.1-.4-.6-.6-.6-1.5 0-2.1l28.6-28.6c.6-.6 1.5-.6 2.1 0 .6.6.6 1.5 0 2.1L20 48.6c-.3.3-.7.4-1.1.4z" class="st3"/></g><path d="M32 12v40M52 31.5H12M46.1 46.1 17.9 17.9M17.9 46.1l28.2-28.2" class="st4"/><g class="st2"><circle cx="32" cy="33" r="2" class="st3"/></g><circle cx="32" cy="32" r="2" class="st1"/><path fill="#231f20" d="M32 16c9.9 0 18 8.1 18 18s-8.1 18-18 18-18-8.1-18-18 8.1-18 18-18m0-4c-12.2 0-22 9.8-22 22s9.8 22 22 22 22-9.8 22-22-9.8-22-22-22z" opacity=".2"/><path fill="#4f5d73" d="M32 14c9.9 0 18 8.1 18 18s-8.1 18-18 18-18-8.1-18-18 8.1-18 18-18m0-4c-12.2 0-22 9.8-22 22s9.8 22 22 22 22-9.8 22-22-9.8-22-22-22z"/></svg>