<svg xmlns="http://www.w3.org/2000/svg" xml:space="preserve" id="Layer_1" x="0" y="0" version="1.1" viewBox="0 0 64 64"><style>.st2{opacity:.2}.st3{fill:#231f20}.st4{fill:#fff}</style><circle cx="32" cy="32" r="32" fill="#76c2af"/><g class="st2"><path d="M19 35c3.3 0 6 2.7 6 6s-2.7 6-6 6-6-2.7-6-6 2.7-6 6-6m0-3c-5 0-9 4-9 9s4 9 9 9 9-4 9-9-4-9-9-9z" class="st3"/></g><g class="st2"><path d="M46 35c3.3 0 6 2.7 6 6s-2.7 6-6 6-6-2.7-6-6 2.7-6 6-6m0-3c-5 0-9 4-9 9s4 9 9 9 9-4 9-9-4-9-9-9z" class="st3"/></g><g class="st2"><path d="M32.5 44.5c-.8 0-1.5-.7-1.5-1.5v-7.3l-8.2-7.9c-.3-.3-.5-.7-.5-1.1 0-.4.2-.8.4-1.1l5.2-5.2c.6-.6 1.5-.6 2.1 0l6.1 5.6H39c.8 0 1.5.7 1.5 1.5S39.8 29 39 29h-3.5c-.4 0-.7-.1-1-.4l-5.4-5-3.1 3.1 7.6 7.3c.3.3.5.7.5 1.1V43c-.1.8-.8 1.5-1.6 1.5z" class="st3"/></g><g class="st2"><circle cx="34.5" cy="16.5" r="3.5" class="st3"/></g><path d="M19 33c3.3 0 6 2.7 6 6s-2.7 6-6 6-6-2.7-6-6 2.7-6 6-6m0-3c-5 0-9 4-9 9s4 9 9 9 9-4 9-9-4-9-9-9zM46 33c3.3 0 6 2.7 6 6s-2.7 6-6 6-6-2.7-6-6 2.7-6 6-6m0-3c-5 0-9 4-9 9s4 9 9 9 9-4 9-9-4-9-9-9z" class="st4"/><path fill="none" stroke="#fff" stroke-linecap="round" stroke-linejoin="round" stroke-miterlimit="10" stroke-width="3" d="M32.5 41v-7.9l-8.7-8.4 5.2-5.2 6.5 6H39"/><circle cx="34.5" cy="14.5" r="3.5" class="st4"/></svg>