<svg xmlns="http://www.w3.org/2000/svg" xml:space="preserve" id="Layer_1" x="0" y="0" version="1.1" viewBox="0 0 64 64"><style>.st3{fill:#231f20}.st5{fill:#c75c5c}</style><circle cx="32" cy="32" r="32" fill="#77b3d4"/><g opacity=".2"><path d="M39 44H29c-1.1 0-1 .9-1 2s1.9 2 3 2h6c1.1 0 3-.9 3-2s.1-2-1-2zM34 22c-5.1 0-9.8.8-13.6 2.1-2.4-1.3-5.3-2.1-7.6-2.1H7c-1.1.4 3.4 5.5 5.8 7.3-.5.9-.8 1.8-.8 2.7 0 .8.2 1.6.6 2.4-2.1 1-3.6 3.7-5.5 5.6v.2c-.7.9-.2 1.6 1 1.6l5 .1c.6 0 3.4-1.3 6-2.6C23.1 41 28.3 42 34 42c12.2 0 22-4.5 22-10s-9.8-10-22-10z" class="st3"/></g><path fill="#4f5d73" d="M40 44c0 1.1-1.9 2-3 2h-6c-1.1 0-3-.9-3-2s-.1-2 1-2h10c1.1 0 1 .9 1 2z"/><path d="M14 28c-1.2 0-8.4-7.6-7-8h5.8c3.2 0 7.8 1.6 10.2 4l-3 .2c.7.9.2 1.6-1 1.6L14 28zM13.2 40c1.2 0 12.2-5.6 10.8-6l-9.6-2c-3.2 0-4.8 3.6-7.2 6v.2c-.7.9-.2 1.6 1 1.6l5 .2z" class="st5"/><ellipse cx="34" cy="30" fill="#fff" rx="22" ry="10"/><path fill="#231f20" d="M7.4 31.9c-.8 0-1.4.1-1.4-.7 0-.8.6-.7 1.4-.7L19 29c.8 0 2.9 1.4 2.9 2.2 0 .8-2.1 2.2-2.9 2.2L7.4 31.9z" opacity=".2"/><path d="M7 31c-.8 0-1-.4-1-1.2 0-.8.2-.8 1-.8l12-1c.8 0 3 1.2 3 2h-.1c0 .8-2.1 2-2.9 2L7 31z" class="st5"/></svg>