<svg xmlns="http://www.w3.org/2000/svg" xml:space="preserve" viewBox="0 0 64 64"><circle cx="32" cy="32" r="32" fill="#4f5d73"/><path fill="#231f20" d="M46.9 17.5c-.2-.3-.5-.5-.9-.5H29c-.4 0-.7.2-.9.6l-8 16c-.2.3-.1.7 0 1 .2.3.5.5.9.5h5.5l-8.4 18.6c-.2.4-.1.9.3 1.2.2.1.4.2.6.2.2 0 .5-.1.6-.2l24-20c.3-.3.4-.7.3-1.1-.1-.5-.5-.8-.9-.8h-6.1l9.9-14.4c.2-.3.3-.7.1-1.1z" opacity=".2"/><path fill="#f5cf87" d="M46.9 15.5c-.2-.3-.5-.5-.9-.5H29c-.4 0-.7.2-.9.6l-8 16c-.2.3-.1.7 0 1 .2.3.5.5.9.5h5.5l-8.4 18.6c-.2.4-.1.9.3 1.2.2.1.4.2.6.2.2 0 .5-.1.6-.2l24-20c.3-.3.4-.7.3-1.1-.1-.5-.5-.8-.9-.8h-6.1l9.9-14.4c.2-.3.3-.7.1-1.1z"/></svg>