<svg xmlns="http://www.w3.org/2000/svg" xml:space="preserve" viewBox="0 0 64 64"><style>.st1{opacity:.2}.st2{fill:#231f20}.st3{fill:#e0e0d1}.st4{fill:#4f5d73}</style><g id="Layer_1"><circle cx="31.8" cy="33" r="32" fill="#e0995e"/><g class="st1"><path d="M37.6 28.1c-.2 0-.5-.1-.7-.3-.4-.4-.4-1 0-1.4.3-.3 6.9-7.2 10.6-9.1.5-.2 1.1-.1 1.3.4s.1 1.1-.4 1.3c-3.5 1.8-10 8.7-10.1 8.7-.2.3-.5.4-.7.4z" class="st2"/></g><path d="M37.6 25.1S44.3 18 48 16.2" class="st3"/><path d="M37.6 26.1c-.2 0-.5-.1-.7-.3-.4-.4-.4-1 0-1.4.3-.3 6.9-7.2 10.6-9.1.5-.2 1.1-.1 1.3.4.2.5.1 1.1-.4 1.3-3.5 1.8-10 8.7-10.1 8.7-.2.3-.5.4-.7.4z" class="st3"/><g class="st1"><circle cx="28" cy="38" r="16" class="st2"/></g><g class="st1"><path d="M38.9 34.1c-1.1 1.2-2.7 1.6-3.5.9l-5-4.6c-.8-.8-.6-2.4.5-3.6l4-4.4c1.1-1.2 2.7-1.6 3.5-.9l5 4.6c.8.8.6 2.4-.5 3.6l-4 4.4z" class="st2"/></g><circle cx="28" cy="36" r="16" class="st4"/><path d="M38.9 32.1c-1.1 1.2-2.7 1.6-3.5.9l-5-4.6c-.8-.8-.6-2.4.5-3.6l4-4.4c1.1-1.2 2.7-1.6 3.5-.9l5 4.6c.8.8.6 2.4-.5 3.6l-4 4.4z" class="st4"/><g class="st1"><circle cx="47" cy="18" r="4" class="st2"/></g><circle cx="47" cy="17" r="4" fill="#c75c5c"/><circle cx="47" cy="17" r="2" fill="#f5cf87"/></g></svg>