<svg xmlns="http://www.w3.org/2000/svg" xml:space="preserve" viewBox="0 0 64 64"><style>.st1{opacity:.2}.st2{fill:#231f20}.st4{fill:#e0e0d1}</style><g id="Layer_1"><circle cx="32" cy="32" r="32" fill="#77b3d4"/><g class="st1"><path d="M52 48c0 2.2-1.8 4-4 4H16c-2.2 0-4-1.8-4-4V18c0-2.2 1.8-4 4-4h32c2.2 0 4 1.8 4 4v30z" class="st2"/></g><path fill="#fff" d="M12 21.5V46c0 2.2 1.8 4 4 4h32c2.2 0 4-1.8 4-4V21.5H12z"/><g class="st1"><path d="M52 18c0-2.2-1.8-4-4-4H16c-2.2 0-4 1.8-4 4v6h40v-6z" class="st2"/></g><path d="M52 16c0-2.2-1.8-4-4-4H16c-2.2 0-4 1.8-4 4v6h40v-6z" class="st4"/><circle cx="23" cy="17" r="2" fill="#e0995e"/><circle cx="29" cy="17" r="2" fill="#76c2af"/><circle cx="17" cy="17" r="2" fill="#c75c5c"/><path fill="#4f5d73" d="M16 28h12v18H16z"/><path d="M32 28h16v2H32zM32 32h16v2H32zM32 36h16v2H32zM32 40h16v2H32zM32 44h16v2H32z" class="st4"/></g></svg>