<svg xmlns="http://www.w3.org/2000/svg" xml:space="preserve" id="Layer_1" x="0" y="0" version="1.1" viewBox="0 0 64 64"><style>.st1{opacity:.2;fill:#231f20}.st2{fill:#c75c5c}.st3{fill:#e0995e}.st4{fill:#4f5d73}.st5{fill:#f5cf87}</style><circle cx="32" cy="32" r="32" fill="#76c2af"/><path d="m45.3 51.5 5.2-5.2c.9-.9.6-2.5-.6-3.7l-3.5-3.5-.7-.7-18.9-18.9-8.4-2.9-4.2-1.4 1.4 4.2 2.9 8.4 18.9 18.9.7.7 3.5 3.5c1.2 1.2 2.8 1.4 3.7.6z" class="st1"/><path d="M37.4 44.3c-1.2-1.2-1.4-2.8-.6-3.7l5.2-5.2c.9-.9 2.5-.6 3.7.6l4.2 4.2c1.2 1.2 1.4 2.8.6 3.7l-5.2 5.2c-.9.9-2.5.6-3.7-.6l-4.2-4.2z" class="st2"/><path d="m46.41348 36.7379-2.05059 2.05059-19.58667-19.58667 2.05059-2.05059zM44.34637 38.82023l-4.17189 4.17189-21.00087-21.00087 4.17189-4.17189zM40.10757 42.95125l-2.05059 2.05059-19.58667-19.58667 2.05059-2.05059z" class="st3"/><path d="m14.2 12.8 1.4 4.2 2.8-2.7z" class="st4"/><path d="m26.8 17.1-8.4-2.8-2.8 2.7 2.9 8.5 1-1.1 2.5.4-.7-4.9 4.9.7-.4-2.4z" class="st5"/><path d="M49.9 16.1c-1.9-1.9-13 6-19.9 12.9-3.4 3.4-5.1 5.8-5.7 7.7-2.1-.2-4.4.6-5.9 2.1-1 1-1.5 2-1.9 3.2-.8 2.2-1.5 5-4.5 7 2.2 2.2 11 2.9 15.2-1.4.4-.4.8-1 1.1-1.5.7-1.3 1.1-2.9.9-4.4 1.9-.6 4.3-2.3 7.7-5.7 6.9-6.8 14.9-17.9 13-19.9z" class="st1"/><path d="M30 27c-6.8 6.8-6.8 9.9-4.9 11.9 1.9 1.9 5 2 11.9-4.9 6.8-6.8 14.8-17.9 12.9-19.9-2-1.9-13.1 6.1-19.9 12.9z" class="st5"/><path d="M12 47c2.2 2.2 11 2.9 15.2-1.4.4-.4.8-1 1.1-1.5-6.6-.2-10.1-2.4-11.9-4.1-.7 2.2-1.4 5-4.4 7z" class="st2"/><path d="M27.8 36.2c-2.4-2.4-6.9-1.9-9.4.5-1 1-1.5 2-1.9 3.2 1.7 1.7 5.1 6.9 11.9 4.1 1.4-2.4 1.3-5.8-.6-7.8z" class="st4"/><path d="M16.5 40s4-.8 5.9 2.1c1.9 2.8 5.9 2 5.9 2L23.2 47 18 43.2 16.5 40z" class="st2"/></svg>