<svg xmlns="http://www.w3.org/2000/svg" xml:space="preserve" viewBox="0 0 64 64"><style>.st2{fill:#231f20}.st3{fill:#e0e0d1}.st4{fill:#f5cf87}.st6{fill:#76c2af}</style><g id="Layer_1"><circle cx="31.8" cy="32" r="32" fill="#4f5d73"/><g opacity=".2"><circle cx="44" cy="39" r="2" class="st2"/><circle cx="44" cy="51" r="2" class="st2"/><path d="M26 22h-4v-4c0-1.1-.9-2-2-2s-2 .9-2 2v4h-4c-1.1 0-2 .9-2 2s.9 2 2 2h4v4c0 1.1.9 2 2 2s2-.9 2-2v-4h4c1.1 0 2-.9 2-2s-.9-2-2-2zM38 26h12c1.1 0 2-.9 2-2s-.9-2-2-2H38c-1.1 0-2 .9-2 2s.9 2 2 2zM50 43H38c-1.1 0-2 .9-2 2s.9 2 2 2h12c1.1 0 2-.9 2-2s-.9-2-2-2zM26.8 39.2c-.8-.8-2-.8-2.8 0l-4 4-4-4c-.8-.8-2-.8-2.8 0-.8.8-.8 2 0 2.8l4 4-4 4c-.8.8-.8 2 0 2.8s2 .8 2.8 0l4-4 4 4c.8.8 2 .8 2.8 0s.8-2 0-2.8l-4-4 4-4c.8-.8.8-2 0-2.8z" class="st2"/></g><circle cx="44" cy="37" r="2" class="st3"/><circle cx="44" cy="49" r="2" class="st3"/><path d="M28 22c0 1.1-.9 2-2 2H14c-1.1 0-2-.9-2-2s.9-2 2-2h12c1.1 0 2 .9 2 2z" class="st4"/><path fill="#e0995e" d="M52 22c0 1.1-.9 2-2 2H38c-1.1 0-2-.9-2-2s.9-2 2-2h12c1.1 0 2 .9 2 2z"/><path d="M20 30c-1.1 0-2-.9-2-2V16c0-1.1.9-2 2-2s2 .9 2 2v12c0 1.1-.9 2-2 2z" class="st4"/><path d="M52 43c0 1.1-.9 2-2 2H38c-1.1 0-2-.9-2-2s.9-2 2-2h12c1.1 0 2 .9 2 2z" class="st3"/><path d="M26.8 50.8c-.8.8-2 .8-2.8 0L13.2 40c-.8-.8-.8-2 0-2.8.8-.8 2-.8 2.8 0L26.8 48c.8.8.8 2 0 2.8z" class="st6"/><path d="M13.2 50.8c-.8-.8-.8-2 0-2.8L24 37.2c.8-.8 2-.8 2.8 0 .8.8.8 2 0 2.8L16 50.8c-.8.8-2 .8-2.8 0z" class="st6"/></g></svg>