<svg xmlns="http://www.w3.org/2000/svg" xml:space="preserve" viewBox="0 0 64 64"><style>.st1{opacity:.2}.st2{fill:#231f20}.st6{fill:#e0e0d1}</style><g id="Layer_1"><circle cx="32" cy="32" r="32" fill="#77b3d4"/><g class="st1"><path d="M12 25v25c0 2.2 1.8 4 4 4h32c2.2 0 4-1.8 4-4V25H12z" class="st2"/></g><path fill="#fff" d="M12 23v25c0 2.2 1.8 4 4 4h32c2.2 0 4-1.8 4-4V23H12z"/><g class="st1"><path d="M48 14H16c-2.2 0-4 1.8-4 4v7h40v-7c0-2.2-1.8-4-4-4z" class="st2"/></g><path fill="#c75c5c" d="M48 12H16c-2.2 0-4 1.8-4 4v7h40v-7c0-2.2-1.8-4-4-4z"/><path fill="#4f5d73" d="M32 48c-1.1 0-2-.9-2-2 0-5.5 1.8-9.5 3.5-12H27c-1.1 0-2-.9-2-2s.9-2 2-2h11c.9 0 1.6.6 1.9 1.4s0 1.7-.7 2.2C39 33.8 34 37.5 34 46c0 1.1-.9 2-2 2z"/><g class="st1"><path d="M20 21c-1.1 0-2-.9-2-2v-7c0-1.1.9-2 2-2s2 .9 2 2v7c0 1.1-.9 2-2 2z" class="st2"/></g><g class="st1"><path d="M45 21c-1.1 0-2-.9-2-2v-7c0-1.1.9-2 2-2s2 .9 2 2v7c0 1.1-.9 2-2 2z" class="st2"/></g><path d="M20 19c-1.1 0-2-.9-2-2v-7c0-1.1.9-2 2-2s2 .9 2 2v7c0 1.1-.9 2-2 2zM45 19c-1.1 0-2-.9-2-2v-7c0-1.1.9-2 2-2s2 .9 2 2v7c0 1.1-.9 2-2 2z" class="st6"/></g></svg>