<svg xmlns="http://www.w3.org/2000/svg" xml:space="preserve" viewBox="0 0 64 64"><style>.st1{opacity:.2}.st2{fill:#231f20}</style><g id="Layer_1"><circle cx="32" cy="32" r="32" fill="#e0995e"/><g class="st1"><path d="M49.5 22.3h-5s-1.4 0-2.5-2.7c-.5-1.4-1.1-2.7-2.5-2.7h-10c-1.4 0-2 1.3-2.5 2.7-1 2.7-2.5 2.7-2.5 2.7H22c0-1.5-1.1-2.7-2.5-2.7H17c-1.4 0-2.5 1.2-2.5 2.7-1.4 0-2.5 1.2-2.5 2.7v21.3c0 1.5 1.1 2.7 2.5 2.7h35c1.4 0 2.5-1.2 2.5-2.7V25c0-1.5-1.1-2.7-2.5-2.7z" class="st2"/></g><path fill="#4f5d73" d="M49.5 20h-5s-1.4.3-2.5-2.3c-.5-1.4-1.1-2.7-2.5-2.7h-10c-1.4 0-2 1.3-2.5 2.7-1 2.7-2.5 2.3-2.5 2.3H22c0-1.5-1.1-2-2.5-2H17c-1.4 0-2.5.5-2.5 2-1.4 0-2.5 1.5-2.5 3v21.3c0 1.5 1.1 2.7 2.5 2.7h35c1.4 0 2.5-1.2 2.5-2.7V23c0-1.5-1.1-3-2.5-3z"/><circle cx="34" cy="33" r="9" fill="#77b3d4"/><g class="st1"><path d="M34 46c-6.1 0-11-4.9-11-11s4.9-11 11-11 11 4.9 11 11-4.9 11-11 11zm0-18c-3.9 0-7 3.1-7 7s3.1 7 7 7 7-3.1 7-7-3.1-7-7-7z" class="st2"/></g><path fill="#fff" d="M34 43.5c-5.8 0-10.5-4.7-10.5-10.5S28.2 22.5 34 22.5 44.5 27.2 44.5 33 39.8 43.5 34 43.5zm0-18c-4.1 0-7.5 3.4-7.5 7.5s3.4 7.5 7.5 7.5 7.5-3.4 7.5-7.5-3.4-7.5-7.5-7.5z"/></g></svg>