<svg xmlns="http://www.w3.org/2000/svg" xml:space="preserve" id="Layer_1" x="0" y="0" version="1.1" viewBox="0 0 64 64"><style>.st2{opacity:.2;fill:#231f20}.st3{fill:#4f5d73}.st4{opacity:.2}.st5{fill:#231f20}.st8{fill:#f5cf87;stroke:#c75c5c;stroke-width:2;stroke-miterlimit:10}</style><circle cx="32" cy="32" r="32" fill="#e0e0d1"/><path d="M20 50c0 1.1-.9 2-2 2h-2c-1.1 0-2-.9-2-2V39c0-1.1.9-2 2-2h2c1.1 0 2 .9 2 2v11zM50 50c0 1.1-.9 2-2 2h-2c-1.1 0-2-.9-2-2V39c0-1.1.9-2 2-2h2c1.1 0 2 .9 2 2v11z" class="st2"/><path d="M20 48c0 1.1-.9 2-2 2h-2c-1.1 0-2-.9-2-2V37c0-1.1.9-2 2-2h2c1.1 0 2 .9 2 2v11zM50 48c0 1.1-.9 2-2 2h-2c-1.1 0-2-.9-2-2V37c0-1.1.9-2 2-2h2c1.1 0 2 .9 2 2v11z" class="st3"/><g class="st4"><path d="M44 37H20c-3.3 0-6-2.7-6-6v-.4l2-10.1c1-3.5 3.2-5.5 6-5.5h20c2.8 0 5 2 5.9 5.5v.1L50 31c0 3.3-2.7 6-6 6zm-26-5.8c.1 1 .9 1.8 2 1.8h24c1 0 1.9-.8 2-1.8l-1.9-9.7c-.3-.8-.9-2.5-2.1-2.5H22c-1.2 0-1.8 1.7-2.1 2.5L18 31.2z" class="st5"/></g><path fill="none" stroke="#c75c5c" stroke-miterlimit="10" stroke-width="4" d="M48 29c0 2.2-1.8 4-4 4H20c-2.2 0-4-1.8-4-4l2-10c.5-2 1.8-4 4-4h20c2.2 0 3.5 2 4 4l2 10z"/><g class="st4"><path d="M52 42c0 2.2-1.8 4-4 4H16c-2.2 0-4-1.8-4-4v-5c0-2.2 1.8-4 4-4h32c2.2 0 4 1.8 4 4v5z" class="st5"/><path d="M48 48H16c-3.3 0-6-2.7-6-6v-5c0-3.3 2.7-6 6-6h32c3.3 0 6 2.7 6 6v5c0 3.3-2.7 6-6 6zM16 35c-1.1 0-2 .9-2 2v5c0 1.1.9 2 2 2h32c1.1 0 2-.9 2-2v-5c0-1.1-.9-2-2-2H16z" class="st5"/></g><path fill="#c75c5c" stroke="#c75c5c" stroke-miterlimit="10" stroke-width="4" d="M52 40c0 2.2-1.8 4-4 4H16c-2.2 0-4-1.8-4-4v-5c0-2.2 1.8-4 4-4h32c2.2 0 4 1.8 4 4v5z"/><path d="M21 38c0 2.2-1.8 4-4 4s-4-1.8-4-4 1.8-4 4-4 4 1.8 4 4zM51 38c0 2.2-1.8 4-4 4s-4-1.8-4-4 1.8-4 4-4 4 1.8 4 4z" class="st8"/></svg>