<svg xmlns="http://www.w3.org/2000/svg" xml:space="preserve" id="Layer_1" x="0" y="0" version="1.1" viewBox="0 0 64 64"><style>.st3{opacity:.2;fill:#231f20}.st4{fill:#4f5d73}.st5{fill:#c75c5c}</style><circle cx="32" cy="32" r="32" fill="#f5cf87"/><circle cx="32" cy="32" r="22" fill="#e0e0d1"/><path d="M32 19c8.3 0 15 6.7 15 15s-6.7 15-15 15-15-6.7-15-15 6.7-15 15-15m0-7c-12.2 0-22 9.8-22 22s9.8 22 22 22 22-9.8 22-22-9.8-22-22-22z" class="st3"/><path d="M32 17c8.3 0 15 6.7 15 15s-6.7 15-15 15-15-6.7-15-15 6.7-15 15-15m0-7c-12.2 0-22 9.8-22 22s9.8 22 22 22 22-9.8 22-22-9.8-22-22-22z" class="st4"/><circle cx="42" cy="31" r="2" class="st3"/><circle cx="32" cy="23" r="2" class="st3"/><circle cx="22" cy="31" r="2" class="st3"/><circle cx="26" cy="42" r="2" class="st3"/><circle cx="38" cy="42" r="2" class="st3"/><circle cx="42" cy="30" r="2" class="st5"/><circle cx="32" cy="22" r="2" class="st5"/><circle cx="32" cy="34" r="5" class="st3"/><circle cx="32" cy="32" r="5" class="st4"/><circle cx="22" cy="30" r="2" class="st5"/><circle cx="26" cy="41" r="2" class="st5"/><circle cx="38" cy="41" r="2" class="st5"/></svg>