<svg xmlns="http://www.w3.org/2000/svg" xml:space="preserve" viewBox="0 0 64 64"><style>.st4{fill:#4f5d73}</style><g id="Layer_1"><circle cx="32" cy="32" r="32" fill="#c75c5c"/><path fill="#231f20" d="M17 50c-4.4 0-6.2-3.1-4-6.9L28 17c2.2-3.8 5.8-3.8 8 0l15 26.1c2.2 3.8.4 6.9-4 6.9H17z" opacity=".2"/><path fill="#f5cf87" d="M17 48c-4.4 0-6.2-3.1-4-6.9L28 15c2.2-3.8 5.8-3.8 8 0l15 26.1c2.2 3.8.4 6.9-4 6.9H17z"/><path d="M34 32c0 1.1-.9 2-2 2s-2-.9-2-2v-8c0-1.1.9-2 2-2s2 .9 2 2v8zM34 40c0 1.1-.9 2-2 2s-2-.9-2-2 .9-2 2-2 2 .9 2 2z" class="st4"/></g></svg>