<svg xmlns="http://www.w3.org/2000/svg" xml:space="preserve" viewBox="0 0 64 64"><style>.st3{fill:#fff}.st4{fill:#4f5d73}</style><g id="Layer_1"><circle cx="32" cy="32" r="32" fill="#77b3d4"/><path fill="#231f20" d="M52 32c0-9.9-9-18-20-18s-20 8.1-20 18c0 9.6 8.3 17.4 18.8 17.9.7 3.7 1.2 6.1 1.2 6.1s5-3 9.6-8.2C47.8 44.7 52 38.8 52 32z" opacity=".2"/><path d="M49 28.8C49 43.8 32 54 32 54s-9.4-42 0-42 17 7.5 17 16.8z" class="st3"/><ellipse cx="32" cy="30" class="st3" rx="20" ry="18"/><circle cx="32" cy="30" r="2" class="st4"/><circle cx="40" cy="30" r="2" class="st4"/><circle cx="24" cy="30" r="2" class="st4"/></g></svg>