<svg xmlns="http://www.w3.org/2000/svg" xml:space="preserve" id="Layer_1" x="0" y="0" version="1.1" viewBox="0 0 64 64"><style>.st2{fill:none;stroke:#e0e0d1;stroke-width:4;stroke-linecap:round;stroke-linejoin:round;stroke-miterlimit:10}.st3{opacity:.2}.st4{fill:#231f20}</style><circle cx="32" cy="32" r="32" fill="#c75c5c"/><path fill="none" stroke="#e0e0d1" stroke-linecap="round" stroke-miterlimit="10" stroke-width="4" d="M44.2 34.3c-6.3 7.5-18.2 7.5-24.5 0"/><path d="M32 17v-5" class="st2"/><g class="st3"><path d="m47.8 51.1-12-22.3c-1.4 1.2-3 1.7-5 .7-.7-.3-1.5-.8-2.2-1.3L16.2 51.1c-.5 1-.2 2.2.8 2.7s2.2.2 2.7-.8L32 30.2l12.2 22.7c.4.7 1.1 1.1 1.8 1.1.3 0 .6-.1.9-.2 1-.6 1.4-1.8.9-2.7z" class="st4"/></g><path d="M35.1 29.8C39.3 37.5 46 50 46 50M18 50s6.8-12.7 11-20.4" class="st2"/><g class="st3"><path d="M32 34c-4.4 0-8-3.6-8-8s3.6-8 8-8 8 3.6 8 8-3.6 8-8 8zm0-12c-2.2 0-4 1.8-4 4s1.8 4 4 4 4-1.8 4-4-1.8-4-4-4z" class="st4"/></g><circle cx="32" cy="24" r="6" fill="none" stroke="#e0e0d1" stroke-miterlimit="10" stroke-width="4"/></svg>