<svg xmlns="http://www.w3.org/2000/svg" xml:space="preserve" id="Layer_1" x="0" y="0" version="1.1" viewBox="0 0 64 64"><style>.st2{fill:#231f20}.st3{fill:#4f5d73}.st4{fill:#fff}</style><circle cx="32" cy="32" r="32" fill="#77b3d4"/><g opacity=".2"><path d="M50.3 29H12v22c0 1.1.9 2 2 2h36c1.1 0 2-.9 2-2V29h-1.7zM18.1 27.7l6.1-1.3 5.4-1.1 6.1-1.3 5.4-1.1 10-2.1-1.2-5.8c-.2-1.1-1.3-1.8-2.4-1.5H47l-5.4 1.1-6.1 1.3-5.4 1.1-6.1 1.3-5.4 1.1-6.2 1.3c-1.1.2-1.8 1.3-1.5 2.4L12 29l.6-.1 5.5-1.2z" class="st2"/></g><path d="M12 34v15c0 1.1.9 2 2 2h36c1.1 0 2-.9 2-2V34H12zM12 27v7h1.7l7-7zM38.3 27l-7 7h6.4l7-7z" class="st3"/><path d="m26.3 27-7 7h6.4l7-7z" class="st3"/><path d="m20.7 27-7 7h5.6l7-7zM32.7 27l-7 7h5.6l7-7zM44.7 27l-7 7h5.6l7-7z" class="st4"/><path d="M52 27h-1.7l-7 7h6l2.7-2.7z" class="st3"/><path d="M49.3 34H52v-2.7z" class="st4"/><path d="m24 16.3-5.9 9.4 6.1-1.2 5.9-9.4zM35.5 13.9l-5.9 9.4 6.1-1.2 5.9-9.4zM12.3 18.8c-1.1.2-1.8 1.3-1.5 2.4L12 27l.6-.1 5.9-9.4-6.2 1.3z" class="st3"/><path d="m18.5 17.5-5.9 9.4 5.5-1.2 5.9-9.4zM30.1 15.1l-5.9 9.4 5.4-1.2 5.9-9.4zM47 11.5l-5.4 1.2-5.9 9.4 5.4-1.2z" class="st4"/><path d="M49.9 13c-.2-1.1-1.3-1.8-2.4-1.5H47l-5.9 9.4 6.1-1.3 3.1-4.9-.4-1.7z" class="st3"/><path d="m50.3 14.7-3.1 5 4-.9z" class="st4"/><circle cx="13" cy="29" r="3" fill="#231f20" opacity=".2"/><circle cx="13" cy="27" r="3" class="st3"/></svg>