<svg xmlns="http://www.w3.org/2000/svg" xml:space="preserve" viewBox="0 0 64 64"><style>.st1{opacity:.2}.st2{fill:#231f20}</style><g id="Layer_1"><circle cx="32" cy="32" r="32" fill="#e0e0d1"/><g class="st1"><path d="M32 16c9.9 0 18 8.1 18 18s-8.1 18-18 18-18-8.1-18-18 8.1-18 18-18zm0-4c-12.2 0-22 9.8-22 22s9.8 22 22 22 22-9.8 22-22-9.8-22-22-22z" class="st2"/></g><path fill="#c75c5c" d="M32 14c9.9 0 18 8.1 18 18s-8.1 18-18 18-18-8.1-18-18 8.1-18 18-18m0-4c-12.2 0-22 9.8-22 22s9.8 22 22 22 22-9.8 22-22-9.8-22-22-22z"/><g class="st1"><path d="M40 44c-.5 0-1-.2-1.4-.6L30 34.8V26c0-1.1.9-2 2-2s2 .9 2 2v7.2l7.4 7.4c.8.8.8 2 0 2.8-.4.4-.9.6-1.4.6z" class="st2"/></g><path fill="#4f5d73" d="M40 42c-.5 0-1-.2-1.4-.6L30 32.8V24c0-1.1.9-2 2-2s2 .9 2 2v7.2l7.4 7.4c.8.8.8 2 0 2.8-.4.4-.9.6-1.4.6z"/></g></svg>