<svg xmlns="http://www.w3.org/2000/svg" xml:space="preserve" id="Layer_1" x="0" y="0" version="1.1" viewBox="0 0 64 64"><style>.st1{opacity:.2;fill:#231f20}</style><circle cx="32" cy="32" r="32" fill="#4f5d73"/><path d="M54 40c0 5.5-4.5 10-10 10s-10-4.5-10-10c0-10 10-18 10-18s10 8 10 18z" class="st1"/><path fill="#c75c5c" d="M54 38c0 5.5-4.5 10-10 10s-10-4.5-10-10c0-10 10-18 10-18s10 8 10 18z"/><path d="M42 32c0 5.5-4.5 10-10 10s-10-4.5-10-10c0-10 10-18 10-18s10 8 10 18z" class="st1"/><path fill="#77b3d4" d="M42 30c0 5.5-4.5 10-10 10s-10-4.5-10-10c0-10 10-18 10-18s10 8 10 18z"/><path d="M30 40c0 5.5-4.5 10-10 10s-10-4.5-10-10c0-10 10-18 10-18s10 8 10 18z" class="st1"/><path fill="#f5cf87" d="M30 38c0 5.5-4.5 10-10 10s-10-4.5-10-10c0-10 10-18 10-18s10 8 10 18z"/></svg>