<svg xmlns="http://www.w3.org/2000/svg" xml:space="preserve" id="Layer_1" x="0" y="0" version="1.1" viewBox="0 0 64 64"><style>.st2{fill:#231f20}</style><circle cx="32" cy="32" r="32" fill="#e0e0d1"/><g opacity=".2"><path d="M19.5 37.5c-.2-.9-1-1.5-1.9-1.5h-5.2c-.6 0-1.2.3-1.5.7-.4.5-.5 1.1-.4 1.7.9 4.5 3.2 8.5 6.5 11.6.4.4.9.5 1.4.5h.3c.6-.1 1.1-.4 1.4-1l2.6-4.5c.4-.8.3-1.7-.2-2.3-1.5-1.5-2.5-3.3-3-5.2zM36.9 47.7c-.4-.6-1-1-1.7-1h-.4c-1 .2-1.9.3-2.8.3-1.3 0-2.5-.2-3.8-.6-.2-.1-.4-.1-.6-.1-.7 0-1.4.4-1.7 1l-2.6 4.4c-.3.5-.3 1.1-.1 1.7.2.6.6 1 1.2 1.2 2.4.9 5 1.3 7.6 1.3 2.2 0 4.3-.3 6.3-.9.6-.2 1.1-.6 1.3-1.2.2-.6.2-1.2-.1-1.7l-2.6-4.4zM44.5 30.5c.2.9 1 1.5 1.9 1.5h5.2c.6 0 1.2-.3 1.5-.7.4-.5.5-1.1.4-1.7-1-4.9-3.6-9.3-7.5-12.5-.4-.3-.8-.5-1.3-.5h-.4c-.6.1-1.1.5-1.4 1L40.3 22c-.5.8-.3 1.8.4 2.5 1.9 1.7 3.2 3.7 3.8 6zM38.3 12.9c-2-.6-4.2-.9-6.3-.9-2.6 0-5.2.5-7.6 1.3-.6.2-1 .6-1.2 1.2-.2.6-.1 1.2.1 1.7l2.6 4.4c.4.6 1 1 1.7 1 .2 0 .4 0 .6-.1 1.2-.4 2.5-.6 3.8-.6.9 0 1.8.1 2.7.3h.4c.7 0 1.4-.4 1.7-1l2.6-4.5c.3-.5.4-1.2.1-1.7-.1-.5-.6-.9-1.2-1.1zM51.6 36h-5.2c-.9 0-1.7.6-1.9 1.5-.6 2.3-1.9 4.4-3.6 6-.7.6-.8 1.7-.4 2.5l2.6 4.4c.3.5.8.9 1.4 1h.4c.5 0 .9-.2 1.3-.5 3.8-3.2 6.5-7.6 7.5-12.5.1-.6 0-1.2-.4-1.7-.5-.4-1.1-.7-1.7-.7zM20 18.4c-.3-.5-.8-.9-1.4-1h-.3c-.5 0-1 .2-1.4.5-3.3 3.1-5.6 7.2-6.5 11.6-.1.6 0 1.2.4 1.7s.9.7 1.5.7h5.2c.9 0 1.7-.6 1.9-1.5.5-1.9 1.5-3.8 2.9-5.3.6-.6.7-1.6.2-2.3L20 18.4z" class="st2"/></g><path fill="#77b3d4" d="M19.5 35.5c-.2-.9-1-1.5-1.9-1.5h-5.2c-.6 0-1.2.3-1.5.7-.4.5-.5 1.1-.4 1.7.9 4.5 3.2 8.5 6.5 11.6.4.4.9.5 1.4.5h.3c.6-.1 1.1-.4 1.4-1l2.6-4.5c.4-.8.3-1.7-.2-2.3-1.5-1.5-2.5-3.3-3-5.2z"/><path fill="#76c2af" d="M36.9 45.7c-.4-.6-1-1-1.7-1h-.4c-1 .2-1.9.3-2.8.3-1.3 0-2.5-.2-3.8-.6-.2-.1-.4-.1-.6-.1-.7 0-1.4.4-1.7 1l-2.6 4.4c-.3.5-.3 1.1-.1 1.7.2.6.6 1 1.2 1.2 2.4.9 5 1.3 7.6 1.3 2.2 0 4.3-.3 6.3-.9.6-.2 1.1-.6 1.3-1.2.2-.6.2-1.2-.1-1.7l-2.6-4.4z"/><path fill="#e0995e" d="M44.5 28.5c.2.9 1 1.5 1.9 1.5h5.2c.6 0 1.2-.3 1.5-.7.4-.5.5-1.1.4-1.7-1-4.9-3.6-9.3-7.5-12.5-.4-.3-.8-.5-1.3-.5h-.4c-.6.1-1.1.5-1.4 1L40.3 20c-.5.8-.3 1.8.4 2.5 1.9 1.7 3.2 3.7 3.8 6z"/><path fill="#c75c5c" d="M38.3 10.9c-2-.6-4.2-.9-6.3-.9-2.6 0-5.2.5-7.6 1.3-.6.2-1 .6-1.2 1.2-.2.6-.1 1.2.1 1.7l2.6 4.4c.4.6 1 1 1.7 1 .2 0 .4 0 .6-.1 1.2-.4 2.5-.6 3.8-.6.9 0 1.8.1 2.7.3h.4c.7 0 1.4-.4 1.7-1l2.6-4.5c.3-.5.4-1.2.1-1.7-.1-.5-.6-.9-1.2-1.1z"/><path fill="#f5cf87" d="M51.6 34h-5.2c-.9 0-1.7.6-1.9 1.5-.6 2.3-1.9 4.4-3.6 6-.7.6-.8 1.7-.4 2.5l2.6 4.4c.3.5.8.9 1.4 1h.4c.5 0 .9-.2 1.3-.5 3.8-3.2 6.5-7.6 7.5-12.5.1-.6 0-1.2-.4-1.7-.5-.4-1.1-.7-1.7-.7z"/><path fill="#4f5d73" d="M20 16.4c-.3-.5-.8-.9-1.4-1h-.3c-.5 0-1 .2-1.4.5-3.3 3.1-5.6 7.2-6.5 11.6-.1.6 0 1.2.4 1.7s.9.7 1.5.7h5.2c.9 0 1.7-.6 1.9-1.5.5-1.9 1.5-3.8 2.9-5.3.6-.6.7-1.6.2-2.3L20 16.4z"/></svg>