<svg xmlns="http://www.w3.org/2000/svg" xml:space="preserve" viewBox="0 0 64 64"><style>.st1{opacity:.2}.st2{fill:#231f20}.st3{fill:#fff}</style><g id="Layer_1"><circle cx="32" cy="32" r="32" fill="#76c2af"/><g class="st1"><path d="M44 52c0 1.1-.9 2-2 2H22c-1.1 0-2-.9-2-2s.9-2 2-2h20c1.1 0 2 .9 2 2z" class="st2"/></g><path d="M44 50c0 1.1-.9 2-2 2H22c-1.1 0-2-.9-2-2s.9-2 2-2h20c1.1 0 2 .9 2 2z" class="st3"/><path fill="#e0e0d1" d="M37 42s-1 6 3 6H24c4 0 3-6 3-6h10z"/><g class="st1"><path d="M52 40c0 2.2-1.8 4-4 4H16c-2.2 0-4-1.8-4-4V18c0-2.2 1.8-4 4-4h32c2.2 0 4 1.8 4 4v22z" class="st2"/></g><path fill="#4f5d73" d="M16 40.5c-1.4 0-2.5-1.1-2.5-2.5V16c0-1.4 1.1-2.5 2.5-2.5h32c1.4 0 2.5 1.1 2.5 2.5v22c0 1.4-1.1 2.5-2.5 2.5H16z"/><path d="M48 15c.6 0 1 .4 1 1v22c0 .6-.4 1-1 1H16c-.6 0-1-.4-1-1V16c0-.6.4-1 1-1h32m0-3H16c-2.2 0-4 1.8-4 4v22c0 2.2 1.8 4 4 4h32c2.2 0 4-1.8 4-4V16c0-2.2-1.8-4-4-4z" class="st3"/><g class="st1"><path d="M50 39.9v-26H26.2l15 26z" class="st3"/></g></g></svg>