<svg xmlns="http://www.w3.org/2000/svg" xml:space="preserve" viewBox="0 0 64 64"><style>.st2{opacity:.2}.st3{fill:#231f20}.st4{fill:#fff}</style><g id="Layer_1"><circle cx="32" cy="32" r="32" fill="#4f5d73"/><circle cx="32" cy="32" r="22" fill="#77b3d4"/><g class="st2"><path d="M32 16c9.9 0 18 8.1 18 18s-8.1 18-18 18-18-8.1-18-18 8.1-18 18-18zm0-4c-12.2 0-22 9.8-22 22s9.8 22 22 22 22-9.8 22-22-9.8-22-22-22z" class="st3"/></g><path d="M32 14c9.9 0 18 8.1 18 18s-8.1 18-18 18-18-8.1-18-18 8.1-18 18-18m0-4c-12.2 0-22 9.8-22 22s9.8 22 22 22 22-9.8 22-22-9.8-22-22-22z" class="st4"/><g class="st2"><path d="m41.8 25.9-2.9 4.7-1.9 3.1c0 .1-5.2 5.3-5.3 5.3l-3.1 1.9-4.7 2.9c-.2.1-.4.2-.7.2-.3 0-.6-.1-.9-.4-.4-.4-.5-1.1-.2-1.5l2.9-4.7 1.9-3.1c0-.1 5.2-5.3 5.3-5.3l3.1-1.9 4.7-2.9c.5-.3 1.1-.2 1.5.2.5.4.6 1 .3 1.5zM29.5 34c0 1.4 1.1 2.5 2.5 2.5s2.5-1.1 2.5-2.5-1.1-2.5-2.5-2.5-2.5 1.1-2.5 2.5z" class="st3"/></g><path fill="#c75c5c" d="m41.8 23.9-2.9 4.7-1.9 3.1c0 .1-5.2 5.3-5.3 5.3l-3.1 1.9-4.7 2.9c-.2.1-.4.2-.7.2-.3 0-.6-.1-.9-.4-.4-.4-.5-1.1-.2-1.5l2.9-4.7 1.9-3.1c0-.1 5.2-5.3 5.3-5.3l3.1-1.9 4.7-2.9c.5-.3 1.1-.2 1.5.2.5.4.6 1 .3 1.5zM29.5 32c0 1.4 1.1 2.5 2.5 2.5s2.5-1.1 2.5-2.5-1.1-2.5-2.5-2.5-2.5 1.1-2.5 2.5z"/><g class="st2"><circle cx="32" cy="34" r="5" class="st3"/></g><circle cx="32" cy="32" r="5" class="st4"/></g></svg>