<svg xmlns="http://www.w3.org/2000/svg" xml:space="preserve" id="Layer_1" x="0" y="0" version="1.1" viewBox="0 0 64 64"><style>.st3{fill:#231f20}.st4{fill:#fff}</style><circle cx="32" cy="32" r="32" fill="#e0995e"/><g opacity=".2"><path d="M43.3 34H20.7l-3 8h28.6zM35.9 14.3c-2.1-5.7-5.6-5.7-7.8 0L23.7 26h16.6l-4.4-11.7zM14 48c-1.1 0-2 .9-2 2s.9 2 2 2h36c1.1 0 2-.9 2-2s-.9-2-2-2H14z" class="st3"/></g><path d="M43.3 32H20.7l-3 8h28.6zM35.9 12.3c-2.1-5.7-5.6-5.7-7.8 0L23.7 24h16.6l-4.4-11.7zM14 46c-1.1 0-2 .9-2 2s.9 2 2 2h36c1.1 0 2-.9 2-2s-.9-2-2-2H14z" class="st4"/></svg>