<svg xmlns="http://www.w3.org/2000/svg" xml:space="preserve" id="Layer_1" x="0" y="0" version="1.1" viewBox="0 0 64 64"><style>.st2{fill:#231f20}.st3{fill:#e0e0d1}</style><circle cx="32" cy="32" r="32" fill="#4f5d73"/><g opacity=".2"><path d="M54.5 32.5h-2.6c-.1-1.6-.4-3.2-.9-4.6l2.4-1c.8-.3 1.1-1.2.8-2-.3-.8-1.2-1.1-2-.8l-2.4 1c-.7-1.5-1.7-2.9-2.7-4.1l1.8-1.8c.6-.6.6-1.5 0-2.1-.6-.6-1.5-.6-2.1 0L45 18.8c-1.2-1-2.5-1.9-3.9-2.6l1-2.4c.3-.8 0-1.6-.8-2-.8-.3-1.6 0-2 .8l-1 2.4c-1.5-.5-3.2-.8-4.9-1v-2.6c0-.8-.7-1.5-1.5-1.5s-1.5.7-1.5 1.5V14c-1.6.1-3.2.4-4.6.9l-1-2.4c-.3-.8-1.2-1.1-2-.8-.8.3-1.1 1.2-.8 2l1 2.4c-1.5.7-2.9 1.7-4.1 2.7L17.2 17c-.6-.6-1.5-.6-2.1 0-.6.6-.6 1.5 0 2.1l1.8 1.8c-1 1.2-1.9 2.5-2.6 3.9l-2.4-1c-.8-.3-1.6 0-2 .8-.3.8 0 1.6.8 2l2.4 1c-.5 1.5-.8 3.2-1 4.9H9.5c-.8 0-1.5.7-1.5 1.5s.7 1.5 1.5 1.5h2.6c.1 1.6.4 3.2.9 4.6l-2.4 1c-.8.3-1.1 1.2-.8 2 .2.6.8.9 1.4.9.2 0 .4 0 .6-.1l2.4-1c.7 1.5 1.7 2.9 2.7 4.1L15 48.8c-.6.6-.6 1.5 0 2.1.3.3.7.4 1.1.4.4 0 .8-.1 1.1-.4l1.8-1.8c1.2 1 2.5 1.9 3.9 2.6l-1 2.4c-.3.8 0 1.6.8 2 .2.1.4.1.6.1.6 0 1.1-.3 1.4-.9l1-2.4c1.5.5 3.2.8 4.9 1v2.6c0 .8.7 1.5 1.5 1.5s1.5-.7 1.5-1.5v-2.6c1.6-.1 3.2-.4 4.6-.9l1 2.4c.2.6.8.9 1.4.9.2 0 .4 0 .6-.1.8-.3 1.1-1.2.8-2l-1-2.4c1.5-.7 2.9-1.7 4.1-2.7l1.8 1.8c.3.3.7.4 1.1.4s.8-.1 1.1-.4c.6-.6.6-1.5 0-2.1L47.2 47c1-1.2 1.9-2.5 2.6-3.9l2.4 1c.2.1.4.1.6.1.6 0 1.1-.3 1.4-.9.3-.8 0-1.6-.8-2l-2.4-1c.5-1.5.8-3.2 1-4.9h2.6c.8 0 1.5-.7 1.5-1.5s-.8-1.4-1.6-1.4zM49 34c0 9.4-7.6 17-17 17s-17-7.6-17-17 7.6-17 17-17 17 7.6 17 17z" class="st2"/><path d="M32 20c-7.7 0-14 6.3-14 14s6.3 14 14 14 14-6.3 14-14-6.3-14-14-14zM21 34c0-6.1 4.9-11 11-11v22c-6.1 0-11-4.9-11-11z" class="st2"/></g><path d="M54.5 30.5h-2.6c-.1-1.6-.4-3.2-.9-4.6l2.4-1c.8-.3 1.1-1.2.8-2-.3-.8-1.2-1.1-2-.8l-2.4 1c-.7-1.5-1.7-2.9-2.7-4.1l1.8-1.8c.6-.6.6-1.5 0-2.1-.6-.6-1.5-.6-2.1 0L45 16.8c-1.2-1-2.5-1.9-3.9-2.6l1-2.4c.3-.8 0-1.6-.8-2-.8-.3-1.6 0-2 .8l-1 2.4c-1.5-.5-3.2-.8-4.9-1V9.5c.1-.8-.6-1.5-1.4-1.5-.8 0-1.5.7-1.5 1.5v2.6c-1.6.1-3.2.4-4.6.9l-1-2.4c-.3-.8-1.2-1.1-2-.8-.8.3-1.1 1.2-.8 2l1 2.4c-1.5.7-2.9 1.7-4.1 2.7L17.2 15c-.6-.6-1.5-.6-2.1 0-.6.6-.6 1.5 0 2.1l1.8 1.8c-1 1.2-1.9 2.5-2.6 3.9l-2.4-1c-.8-.3-1.6 0-2 .8-.3.8 0 1.6.8 2l2.4 1c-.5 1.5-.8 3.2-1 4.9H9.5c-.8 0-1.5.7-1.5 1.5s.7 1.5 1.5 1.5h2.6c.1 1.6.4 3.2.9 4.6l-2.4 1c-.8.3-1.1 1.2-.8 2 .2.6.8.9 1.4.9.2 0 .4 0 .6-.1l2.4-1c.7 1.5 1.7 2.9 2.7 4.1L15 46.8c-.6.6-.6 1.5 0 2.1.3.3.7.4 1.1.4.4 0 .8-.1 1.1-.4l1.8-1.8c1.2 1 2.5 1.9 3.9 2.6l-1 2.4c-.3.8 0 1.6.8 2 .2.1.4.1.6.1.6 0 1.1-.3 1.4-.9l1-2.4c1.5.5 3.2.8 4.9 1v2.6c0 .8.7 1.5 1.5 1.5s1.5-.7 1.5-1.5v-2.6c1.6-.1 3.2-.4 4.6-.9l1 2.4c.2.6.8.9 1.4.9.2 0 .4 0 .6-.1.8-.3 1.1-1.2.8-2l-1-2.4c1.5-.7 2.9-1.7 4.1-2.7l1.8 1.8c.3.3.7.4 1.1.4s.8-.1 1.1-.4c.6-.6.6-1.5 0-2.1L47.2 45c1-1.2 1.9-2.5 2.6-3.9l2.4 1c.2.1.4.1.6.1.6 0 1.1-.3 1.4-.9.3-.8 0-1.6-.8-2l-2.4-1c.5-1.5.8-3.2 1-4.9h2.6c.8 0 1.5-.7 1.5-1.5-.1-.7-.8-1.4-1.6-1.4zM49 32c0 9.4-7.6 17-17 17s-17-7.6-17-17 7.6-17 17-17 17 7.6 17 17z" class="st3"/><path d="M32 18c-7.7 0-14 6.3-14 14s6.3 14 14 14 14-6.3 14-14-6.3-14-14-14zM21 32c0-6.1 4.9-11 11-11v22c-6.1 0-11-4.9-11-11z" class="st3"/></svg>