<svg xmlns="http://www.w3.org/2000/svg" xml:space="preserve" id="Layer_1" x="0" y="0" version="1.1" viewBox="0 0 64 64"><style>.st4{fill:none}</style><circle cx="32" cy="32" r="32" fill="#f5cf87"/><path fill="#e0995e" d="M32 14.4V32l12.3 13.2C57.5 27.6 41.7 14.4 32 14.4z"/><path fill="#231f20" d="M32 10.5C19 10.5 8.5 21 8.5 34S19 57.5 32 57.5 55.5 47 55.5 34 45 10.5 32 10.5zm20.4 22h-2c-.7-9-7.9-16.2-16.9-16.9v-2c10.1.7 18.2 8.8 18.9 18.9zm-21.9 0H16.6c.7-7.4 6.6-13.2 13.9-13.9v13.9zm0 3v13.9c-7.4-.7-13.2-6.6-13.9-13.9h13.9zm3 0h13.9c-.7 7.4-6.6 13.2-13.9 13.9V35.5zm0-3V18.6c7.4.7 13.2 6.6 13.9 13.9H33.5zm-3-18.9v2c-9 .7-16.2 7.9-16.9 16.9h-2c.7-10.1 8.8-18.2 18.9-18.9zM11.6 35.5h2c.7 9 7.9 16.2 16.9 16.9v2c-10.1-.7-18.2-8.8-18.9-18.9zm21.9 18.9v-2c9-.7 16.2-7.9 16.9-16.9h2c-.7 10.1-8.8 18.2-18.9 18.9z" opacity=".2"/><path d="M30.5 47.4V33.5H16.6c.7 7.4 6.5 13.2 13.9 13.9zM47.4 33.5H33.5v13.9c7.4-.7 13.2-6.5 13.9-13.9zM33.5 16.6v13.9h13.9c-.7-7.4-6.5-13.2-13.9-13.9z" class="st4"/><path d="M33.5 13.6c9 .7 16.2 7.9 16.9 16.9h2c-.7-10.1-8.8-18.2-18.9-18.9v2zM16.6 30.5h13.9V16.6c-7.4.7-13.2 6.5-13.9 13.9z" class="st4"/><path d="M13.6 30.5c.7-9 7.9-16.2 16.9-16.9v-2c-10.1.7-18.2 8.8-18.9 18.9h2zM50.4 33.5c-.7 9-7.9 16.2-16.9 16.9v2c10.1-.7 18.2-8.8 18.9-18.9h-2zM30.5 50.4c-9-.7-16.2-7.9-16.9-16.9h-2c.7 10.1 8.8 18.2 18.9 18.9v-2z" class="st4"/><path fill="#4f5d73" d="M32 8.5C19 8.5 8.5 19 8.5 32S19 55.5 32 55.5 55.5 45 55.5 32 45 8.5 32 8.5zm20.4 22h-2c-.7-9-7.9-16.2-16.9-16.9v-2c10.1.7 18.2 8.8 18.9 18.9zm-21.9 0H16.6c.7-7.4 6.6-13.2 13.9-13.9v13.9zm0 3v13.9c-7.4-.7-13.2-6.6-13.9-13.9h13.9zm3 0h13.9c-.7 7.4-6.6 13.2-13.9 13.9V33.5zm0-3V16.6c7.4.7 13.2 6.6 13.9 13.9H33.5zm-3-18.9v2c-9 .7-16.2 7.9-16.9 16.9h-2c.7-10.1 8.8-18.2 18.9-18.9zM11.6 33.5h2c.7 9 7.9 16.2 16.9 16.9v2c-10.1-.7-18.2-8.8-18.9-18.9zm21.9 18.9v-2c9-.7 16.2-7.9 16.9-16.9h2c-.7 10.1-8.8 18.2-18.9 18.9z"/></svg>