<svg xmlns="http://www.w3.org/2000/svg" xml:space="preserve" viewBox="0 0 64 64"><style>.st5{fill:#e0995e}</style><g id="Layer_1"><circle cx="32" cy="32" r="32" fill="#77b3d4"/><path fill="#231f20" d="M52 45c0 2.2-1.8 4-4 4H16c-2.2 0-4-1.8-4-4V25c0-2.2 1.8-4 4-4h32c2.2 0 4 1.8 4 4v20z" opacity=".2"/><path fill="#fff" d="M52 43c0 2.2-1.8 4-4 4H16c-2.2 0-4-1.8-4-4V23c0-2.2 1.8-4 4-4h32c2.2 0 4 1.8 4 4v20z"/><path fill="#4f5d73" d="M12 25h40v6H12z"/><circle cx="38" cy="41" r="2" class="st5"/><circle cx="46" cy="41" r="2" class="st5"/><circle cx="30" cy="41" r="2" class="st5"/></g></svg>