<svg xmlns="http://www.w3.org/2000/svg" xml:space="preserve" viewBox="0 0 64 64"><circle cx="32" cy="32" r="32" fill="#e0e0d1"/><path fill="#231f20" d="M50.5 45H25l18-18v15h5V22l2.8-2.8c.5-.5.7-1.1.7-1.8s-.3-1.3-.7-1.8c-.5-.3-1.1-.6-1.8-.6s-1.3.3-1.8.7l-3.8 3.8H24V24h14.5L21 42V17c0-1.4-1.1-2.5-2.5-2.5S16 15.6 16 17v2h-2.5c-1.4 0-2.5 1.1-2.5 2.5s1.1 2.5 2.5 2.5H16v23.5c0 1.4 1.1 2.5 2.5 2.5H43v2.5c0 1.4 1.1 2.5 2.5 2.5s2.5-1.1 2.5-2.5V50h2.5c1.4 0 2.5-1.1 2.5-2.5S51.9 45 50.5 45z" opacity=".2"/><path fill="#4f5d73" d="M50.5 43H25l18-18v15h5V20l2.8-2.8c.5-.5.7-1.1.7-1.8s-.3-1.3-.7-1.8c-.5-.3-1.1-.6-1.8-.6s-1.3.3-1.8.7L44 17H24v5h15L21 40V15c0-1.4-1.1-2.5-2.5-2.5S16 13.6 16 15v2h-2.5c-1.4 0-2.5 1.1-2.5 2.5s1.1 2.5 2.5 2.5H16v23.5c0 1.4 1.1 2.5 2.5 2.5H43v2.5c0 1.4 1.1 2.5 2.5 2.5s2.5-1.1 2.5-2.5V48h2.5c1.4 0 2.5-1.1 2.5-2.5S51.9 43 50.5 43z"/></svg>