<svg xmlns="http://www.w3.org/2000/svg" xml:space="preserve" id="Layer_1" x="0" y="0" version="1.1" viewBox="0 0 64 64"><style>.st5{opacity:.2;fill:#231f20}</style><circle cx="32" cy="32" r="32" fill="#77b3d4"/><path fill="#231f20" d="M32 60c-1.1 0-2-.9-2-2V14c0-1.1.9-2 2-2s2 .9 2 2v44c0 1.1-.9 2-2 2z" opacity=".2"/><path fill="none" stroke="#f5cf87" stroke-linecap="round" stroke-miterlimit="10" stroke-width="4" d="M32 12v44"/><path d="M18.5 16c-.4 0-1 .2-1.3.5l-5 4.9c-.3.3-.3.8 0 1.1l5 4.9c.3.3.9.5 1.3.5h20.8c.4 0 .8-.4.8-.8V16.8c0-.4-.3-.8-.8-.8H18.5zM49.5 42c.4 0 1-.2 1.3-.5l5-4.9c.3-.3.3-.8 0-1.1l-5-4.9c-.3-.3-.9-.5-1.3-.5H24.8c-.4 0-.8.4-.8.8v10.4c0 .4.3.8.8.8h24.7z" class="st5"/><path fill="#4f5d73" d="M18.5 14c-.4 0-1 .2-1.3.5l-5 4.9c-.3.3-.3.8 0 1.1l5 4.9c.3.3.9.5 1.3.5h20.8c.4 0 .8-.4.8-.8V14.8c0-.4-.3-.8-.8-.8H18.5z"/><path fill="#fff" d="M49.5 40c.4 0 1-.2 1.3-.5l5-4.9c.3-.3.3-.8 0-1.1l-5-4.9c-.3-.3-.9-.5-1.3-.5H24.8c-.4 0-.8.4-.8.8v10.4c0 .4.3.8.8.8h24.7z"/></svg>