<svg xmlns="http://www.w3.org/2000/svg" xml:space="preserve" id="Layer_1" x="0" y="0" version="1.1" viewBox="0 0 64 64"><style>.st3{fill:#e0e0d1;stroke:#e0e0d1;stroke-width:2;stroke-linejoin:round;stroke-miterlimit:10}.st4{fill:#77b3d4}</style><circle cx="32" cy="32.2" r="32" fill="#4f5d73"/><path fill="#231f20" d="M56.8 33.4c-.2-.2-.5-.4-.8-.4h-7.1l-4.1-5.6c-.2-.2-.5-.4-.8-.4h-4.6l-3-4.6c-.2-.3-.5-.4-.8-.4H20.9c-.5 0-.9.4-1 .9l-.5 4.1H16c-.5 0-.9.3-1 .8l-.9 5.2H10c-.6 0-1 .4-1 1 0 4.1 1 7 1 7 1.5 5 4.6 5 6 5h26.8c9.6 0 14-11.2 14.1-11.6.2-.4.1-.7-.1-1z" opacity=".2"/><path d="M39.9 27.6H20.1l.8-6.6h14.7z" class="st3"/><path d="M52 37H14l2-11h28z" class="st3"/><circle cx="23" cy="30" r="2" class="st4"/><circle cx="31" cy="30" r="2" class="st4"/><circle cx="39" cy="30" r="2" class="st4"/><path fill="#fff" stroke="#fff" stroke-linejoin="round" stroke-miterlimit="10" stroke-width="2" d="M16 43h26.8c9 0 13.2-11 13.2-11H10c0 3.9 1 6.8 1 6.8 1.2 4.2 3.7 4.2 5 4.2z"/></svg>