<svg xmlns="http://www.w3.org/2000/svg" xml:space="preserve" viewBox="0 0 64 64"><style>.st3{fill:#c75c5c}</style><g id="Layer_1"><circle cx="32" cy="32" r="32" fill="#e0e0d1"/><path fill="#231f20" d="M32 12c-12.2 0-22 9.8-22 22s9.8 22 22 22 22-9.8 22-22-9.8-22-22-22zm16 22c0 3.3-1 6.4-2.8 9L23 20.8c2.6-1.7 5.7-2.8 9-2.8 8.8 0 16 7.2 16 16zm-32 0c0-3.3 1-6.4 2.8-9L41 47.2C38.4 49 35.3 50 32 50c-8.8 0-16-7.2-16-16z" opacity=".2"/><path d="M32 16c8.8 0 16 7.2 16 16s-7.2 16-16 16-16-7.2-16-16 7.2-16 16-16m0-6c-12.2 0-22 9.8-22 22s9.8 22 22 22 22-9.8 22-22-9.8-22-22-22z" class="st3"/><path d="m20.12072 15.87772 28.00116 28.00116-4.2426 4.2426-28.00116-28.00116z" class="st3"/></g></svg>