<svg xmlns="http://www.w3.org/2000/svg" xml:space="preserve" viewBox="0 0 64 64"><style>.st3{fill:#e0e0d1}.st4{fill:#fff}.st5{fill:#4f5d73}</style><g id="Layer_1"><circle cx="32" cy="32" r="32" fill="#76c2af"/><path fill="#231f20" d="m49.4 19.7-13.7-7.9c-2-1.2-5.4-1.2-7.4 0l-13.7 7.9c-2 1.2-3.7 4.1-3.7 6.4v15.8c0 2.4 1.7 5.3 3.7 6.4l13.7 7.9c1 .6 2.3.9 3.7.9s2.7-.3 3.7-.9l13.7-7.9c2-1.2 3.7-4.1 3.7-6.4V26.1c0-2.4-1.6-5.3-3.7-6.4z" opacity=".2"/><path d="M35.5 10.2c-1.9-1.1-5-1.1-6.9 0l-13.7 7.9c-1.9 1.1-3.5 3.8-3.5 6v15.8c0 2.2 1.6 4.9 3.5 6l13.7 7.9c1.9 1.1 5 1.1 6.9 0l13.7-7.9c1.9-1.1 3.5-3.8 3.5-6V24.1c0-2.2-1.6-4.9-3.5-6l-13.7-7.9z" class="st3"/><path d="M32 55.2c-1.4 0-2.7-.3-3.7-.9l-13.7-7.9c-2-1.2-3.7-4.1-3.7-6.4V24.1c0-2.4 1.7-5.3 3.7-6.4l13.7-7.9c2-1.2 5.4-1.2 7.4 0l13.7 7.9c2 1.2 3.7 4.1 3.7 6.4v15.8c0 2.4-1.7 5.3-3.7 6.4l-13.7 7.9c-1 .6-2.3 1-3.7 1zm0-45.4c-1.2 0-2.4.3-3.2.8l-13.7 7.9c-1.7 1-3.2 3.6-3.2 5.6v15.8c0 2 1.5 4.6 3.2 5.6l13.7 7.9c1.7 1 4.7 1 6.4 0l13.7-7.9c1.7-1 3.2-3.6 3.2-5.6V24.1c0-2-1.5-4.6-3.2-5.6l-13.7-7.9c-.8-.5-2-.8-3.2-.8z" class="st3"/><path d="M32 29.8c-1.1 0-2.2-.3-3-.7l-13.7-7.9c-.6-.3-.9-.8-.9-1.1 0-.4.3-.8.9-1.1L29 11c.8-.4 1.8-.7 3-.7s2.2.3 3 .7l13.7 8c.6.3.9.8.9 1.1 0 .4-.3.8-.9 1.1L35 29.1c-.8.5-1.9.7-3 .7zM29.9 53.3c-.3 0-.7-.1-1-.3l-13.7-8c-1.6-.9-3-3.3-3-5.1V24.1c0-.4.1-1.5.9-1.5.3 0 .7.1 1 .3l13.7 7.9c1.6.9 3 3.3 3 5.1v15.8c0 .5-.1.9-.3 1.2-.1.3-.3.4-.6.4zM33.9 53.3c-.8 0-.9-1-.9-1.5V36c0-1.9 1.4-4.2 3-5.1L49.7 23c.4-.2.7-.3 1-.3.8 0 .9 1 .9 1.5V40c0 1.9-1.4 4.2-3 5.1L35 53c-.4.2-.8.3-1.1.3z" class="st4"/><path d="M32 21.5c-1.3 0-2.3-.6-2.3-1.4s1.1-1.4 2.3-1.4 2.3.6 2.3 1.4-1 1.4-2.3 1.4zM15.1 42.4c-.8 0-1.4-1-1.4-2.1s.6-2.1 1.4-2.1 1.4 1 1.4 2.1-.6 2.1-1.4 2.1zM48.4 42.4c-.8 0-1.4-1-1.4-2.1s.6-2.1 1.4-2.1 1.4 1 1.4 2.1-.7 2.1-1.4 2.1zM15.1 30.4c-.8 0-1.4-1-1.4-2.1s.6-2.1 1.4-2.1 1.4 1 1.4 2.1c.1 1.2-.6 2.1-1.4 2.1zM26.9 38.1c-.8 0-1.4-1-1.4-2.1s.6-2.1 1.4-2.1 1.4 1 1.4 2.1c0 1.2-.6 2.1-1.4 2.1zM37 38.1c-.8 0-1.4-1-1.4-2.1s.6-2.1 1.4-2.1 1.4 1 1.4 2.1c0 1.2-.7 2.1-1.4 2.1zM26.9 49.1c-.8 0-1.4-1-1.4-2.1s.6-2.1 1.4-2.1 1.4 1 1.4 2.1-.6 2.1-1.4 2.1z" class="st5"/></g></svg>