<svg xmlns="http://www.w3.org/2000/svg" xml:space="preserve" viewBox="0 0 64 64"><style>.st1{opacity:.2}.st2{fill:#231f20}.st4{fill:#8c81d4}</style><g id="Layer_1"><circle cx="32" cy="32" r="32" fill="#c75c5c"/><g class="st1"><path d="M40 11.2s0-.1 0 0c0-.2 0-.2 0 0zM24 11.1s0 .1 0 0 0-.1 0 0z" class="st2"/></g><g class="st1"><path d="M48 32c0-6.5-3.8-12-9.4-14.5-1.7-.8-2.6.5-2.6 1.6v8.5c0 .8.7 1.4 1.5 1.4h3.1c1.5 0 1.9 1.1.9 2.4l-7.7 9.8c-1 1.2-2.6 1.2-3.5 0l-7.7-9.8c-1-1.2-.6-2.4.9-2.4h3.1c.8 0 1.5-.6 1.5-1.4v-8.5c0-1.1-1.5-2.1-2.8-1.6-4.3 2-7.6 5.9-8.7 10.6C11.7 28.9 8 33 8 38c0 5.5 4.5 10 10 10h30c4.4 0 8-3.6 8-8s-3.6-8-8-8z" class="st2"/></g><path fill="#fff" d="M48 30c0-6.5-3.8-12-9.4-14.5-1.7-.8-2.6.5-2.6 1.6v8.5c0 .8.7 1.4 1.5 1.4h3.1c1.5 0 1.9 1.1.9 2.4l-7.7 9.8c-1 1.2-2.6 1.2-3.5 0l-7.7-9.8c-1-1.2-.6-2.4.9-2.4h3.1c.8 0 1.5-.6 1.5-1.4v-8.5c0-1.1-1.5-2.1-2.8-1.6-4.3 2-7.6 5.9-8.7 10.6C11.7 26.9 8 31 8 36c0 5.5 4.5 10 10 10h30c4.4 0 8-3.6 8-8s-3.6-8-8-8z"/><path d="M40 9.2s0-.1 0 0c0-.2 0-.2 0 0zM24 9.1s0 .1 0 0 0-.1 0 0z" class="st4"/></g></svg>