<svg xmlns="http://www.w3.org/2000/svg" xml:space="preserve" id="Layer_1" x="0" y="0" version="1.1" viewBox="0 0 64 64"><style>.st1{opacity:.2}.st2{fill:#231f20}.st3,.st7{fill:#f5cf87;stroke:#e0995e;stroke-width:3;stroke-linecap:round;stroke-linejoin:round;stroke-miterlimit:10}.st7{fill:none;stroke:#f5cf87}</style><circle cx="32" cy="32" r="32" fill="#4f5d73"/><g class="st1"><path d="m28 14-9 40M19 55.5h-.3c-.8-.2-1.3-1-1.1-1.8l9-40c.2-.8 1-1.3 1.8-1.1.8.2 1.3 1 1.1 1.8l-9 40c-.2.6-.8 1.1-1.5 1.1z" class="st2"/></g><g class="st1"><path d="m37 14 8 40M45 55.5c-.7 0-1.3-.5-1.5-1.2l-8-40c-.2-.8.4-1.6 1.2-1.8.8-.2 1.6.4 1.8 1.2l8 40c.2.8-.4 1.6-1.2 1.8H45z" class="st2"/></g><g class="st1"><path d="M32 55.5c-.8 0-1.5-.7-1.5-1.5V37.4c0-.8.7-1.5 1.5-1.5s1.5.7 1.5 1.5V54c0 .8-.7 1.5-1.5 1.5z" class="st2"/></g><path d="m28 12-9 40M37 12l8 40" class="st3"/><path fill="none" stroke="#e0995e" stroke-linecap="round" stroke-linejoin="round" stroke-miterlimit="10" stroke-width="3" d="M32 35.4V52"/><path fill="#231f20" d="M49 40.2c0 1-1 1.8-2.1 1.8H17.1c-1.1 0-2.1-.8-2.1-1.8V21.8c0-1 1-1.8 2.1-1.8h29.8c1.2 0 2.1.8 2.1 1.8v18.4z" opacity=".2"/><path fill="#fff" d="M49 38.2c0 1-1 1.8-2.1 1.8H17.1c-1.1 0-2.1-.8-2.1-1.8V19.8c0-1 1-1.8 2.1-1.8h29.8c1.2 0 2.1.8 2.1 1.8v18.4z"/><g class="st1"><path d="M41 21.5H23c-.8 0-1.5-.7-1.5-1.5s.7-1.5 1.5-1.5h18c.8 0 1.5.7 1.5 1.5s-.7 1.5-1.5 1.5z" class="st2"/></g><g class="st1"><path d="M41 43.5H23c-.8 0-1.5-.7-1.5-1.5s.7-1.5 1.5-1.5h18c.8 0 1.5.7 1.5 1.5s-.7 1.5-1.5 1.5z" class="st2"/></g><path d="M23 18.5h18M23 40.5h18" class="st7"/><path fill="none" stroke="#c75c5c" stroke-linecap="round" stroke-miterlimit="10" stroke-width="3" d="M19.5 36s11-18 11-10 0 10 2 8 7-8 12-9"/></svg>