<svg xmlns="http://www.w3.org/2000/svg" xml:space="preserve" id="Layer_1" x="0" y="0" version="1.1" viewBox="0 0 64 64"><style>.st1{opacity:.2;fill:#231f20}.st3{fill:#4f5d73}</style><circle cx="32" cy="32" r="32" fill="#c75c5c"/><path d="M37.2 25.3c1 .9 2 1.8 2.9 2.7l-15 15c-.2.2-.7.5-1.4.7-.1 0-.2 0-.3.1h-.2c-.3.1-.6.1-.9.3l-1.3.2.4-1.7c.1-.2.1-.4.2-.6v-.4c.2-.7.5-1.2.7-1.4l14.9-14.9m-.2-4.1L20.2 38.1c-.6.6-1.2 1.7-1.4 2.8v.1c0 .1-.1.3-.1.4-.2.7-.6 1.9-1.9 3.2l-.9.9c-1.1 1.1-1.3 2.6-.5 3.4l1 1c.3.3.8.5 1.2.5.7 0 1.5-.3 2.1-1l.9-.9c1.1-1.1 2.4-1.6 3.2-1.7.2 0 .4-.1.6-.1h.1c1.1-.3 2.2-.8 2.8-1.4l16.9-16.9c-1.9-2.9-4.6-5.1-7.2-7.2z" class="st1"/><path fill="#e0e0d1" d="M37.2 23.3c1 .9 2 1.8 2.9 2.7l-15 15c-.2.2-.7.5-1.4.7-.1 0-.2 0-.3.1h-.2c-.3.1-.6.1-.9.3l-1.3.2.4-1.7c.1-.2.1-.4.2-.6v-.4c.2-.7.5-1.2.7-1.4l14.9-14.9m-.2-4.1L20.2 36.1c-.6.6-1.2 1.7-1.4 2.8v.1c0 .1-.1.3-.1.4-.2.7-.6 1.9-1.9 3.2l-.9.9c-1.1 1.1-1.3 2.6-.5 3.4l1 1c.3.3.8.5 1.2.5.7 0 1.5-.3 2.1-1l.9-.9c1.1-1.1 2.4-1.6 3.2-1.7.2 0 .4-.1.6-.1h.1c1.1-.3 2.2-.8 2.8-1.4l16.9-16.9c-1.9-2.9-4.6-5.1-7.2-7.2z"/><path d="m43.9 27.2 5.2-5.2c1.1-1.1 1-2.9-.2-4.1l-1.4-1.4c-1.2-1.2-3-1.3-4.1-.2l-5.3 5.3c2.1 1.6 4.2 3.4 5.8 5.6z" class="st1"/><path d="M45.6 30.9 43.5 33 32.2 21.8l2.1-2.1 1.4-1.4c.8-.8 2-.8 2.8 0l8.5 8.5c.8.8.8 2 0 2.8l-1.4 1.3z" class="st1"/><path d="m43.9 25.2 5.2-5.2c1.1-1.1 1-2.9-.2-4.1l-1.4-1.4c-1.2-1.2-3-1.3-4.1-.2l-5.3 5.3c2.1 1.6 4.2 3.4 5.8 5.6z" class="st3"/><path d="M45.6 28.9 43.5 31 32.2 19.8l2.1-2.1 1.4-1.4c.8-.8 2-.8 2.8 0l8.5 8.5c.8.8.8 2 0 2.8l-1.4 1.3z" class="st3"/></svg>