<svg xmlns="http://www.w3.org/2000/svg" xml:space="preserve" viewBox="0 0 64 64"><style>.st3{fill:#fff}</style><g id="Layer_1"><circle cx="32" cy="32" r="32" fill="#c75c5c"/><path fill="#231f20" d="M50.2 43.4c-2-1.5-8.4-4.2-8.4-4.2s-7 5.4-14-6C19.7 20 16 18 16 18s-4 4-4 8 4 10 4 22c0 1.1.9 2 2 2s2-.9 2-2V34s4 0 8 8 8 8 12 8 12-.2 12-1.7c0-1.7.4-3.3-1.8-4.9z" opacity=".2"/><path d="M16 16s-4 4-4 8 4 10 4 22h4V32s4 0 8 8 8 8 12 8 12-.2 12-1.7c0-1.7.4-3.3-1.8-4.9-2-1.5-8.4-4.2-8.4-4.2s-7 5.4-14-6C19.7 18 16 16 16 16z" class="st3"/><path d="M20 46c0 1.1-.9 2-2 2s-2-.9-2-2 .9-2 2-2 2 .9 2 2z" class="st3"/></g></svg>