<svg xmlns="http://www.w3.org/2000/svg" xml:space="preserve" id="Layer_1" x="0" y="0" version="1.1" viewBox="0 0 64 64"><style>.st2{fill:#4f5d73}</style><circle cx="32" cy="32" r="32" fill="#77b3d4"/><circle cx="32" cy="33.9" r="13.1" fill="#231f20" opacity=".2"/><circle cx="32" cy="33.1" r="13.1" class="st2"/><circle cx="32" cy="32" r="13.1" class="st2"/><path fill="#231f20" d="M32 12c-12.2 0-22 9.8-22 22s9.8 22 22 22 22-9.8 22-22-9.8-22-22-22zM14.5 30.5c0-3 2.5-5.5 5.5-5.5s5.5 2.5 5.5 5.5S23 36 20 36s-5.5-2.5-5.5-5.5zm10 19c-3 0-5.5-2.5-5.5-5.5s2.5-5.5 5.5-5.5S30 41 30 44s-2.5 5.5-5.5 5.5zm2-28c0-3 2.5-5.5 5.5-5.5s5.5 2.5 5.5 5.5S35 27 32 27s-5.5-2.5-5.5-5.5zm13 28c-3 0-5.5-2.5-5.5-5.5s2.5-5.5 5.5-5.5S45 41 45 44s-2.5 5.5-5.5 5.5zM44 36c-3 0-5.5-2.5-5.5-5.5S41 25 44 25s5.5 2.5 5.5 5.5S47.1 36 44 36z" opacity=".2"/><path fill="#fff" d="M32 10c-12.2 0-22 9.8-22 22s9.8 22 22 22 22-9.8 22-22-9.8-22-22-22zM14.5 28.5c0-3 2.5-5.5 5.5-5.5s5.5 2.5 5.5 5.5S23 34 20 34s-5.5-2.5-5.5-5.5zm10 19c-3 0-5.5-2.5-5.5-5.5s2.5-5.5 5.5-5.5S30 39 30 42s-2.5 5.5-5.5 5.5zm2-28c0-3 2.5-5.5 5.5-5.5s5.5 2.5 5.5 5.5S35 25 32 25s-5.5-2.5-5.5-5.5zm13 28c-3 0-5.5-2.5-5.5-5.5s2.5-5.5 5.5-5.5S45 39 45 42s-2.5 5.5-5.5 5.5zM44 34c-3 0-5.5-2.5-5.5-5.5S41 23 44 23s5.5 2.5 5.5 5.5S47.1 34 44 34z"/></svg>