<svg xmlns="http://www.w3.org/2000/svg" xml:space="preserve" id="Layer_1" x="0" y="0" version="1.1" viewBox="0 0 64 64"><style>.st1{opacity:.2;fill:#231f20}.st3{fill:#4f5d73}</style><circle cx="32" cy="32" r="32" fill="#e0995e"/><path d="M50 23H37v22h8c1.1 0 2-.9 2-2v-6s0-2 2-2h1c1.1 0 2-.9 2-2v-8c0-1.1-.9-2-2-2zM36 49c0 1.1-.9 2-2 2H18c-1.1 0-2-.9-2-2V21c0-1.1.9-2 2-2h16c1.1 0 2 .9 2 2v28z" class="st1"/><path d="M32 19c0 1.1-.9 2-2 2h-8c-1.1 0-2-.9-2-2s.9-2 2-2h8c1.1 0 2 .9 2 2z" class="st1"/><path fill="#f5cf87" d="M50 21H37v22h8c1.1 0 2-.9 2-2v-6s0-2 2-2h1c1.1 0 2-.9 2-2v-8c0-1.1-.9-2-2-2z"/><path d="M36 47c0 1.1-.9 2-2 2H18c-1.1 0-2-.9-2-2V19c0-1.1.9-2 2-2h16c1.1 0 2 .9 2 2v28z" class="st3"/><path d="M32 17c0 1.1-.9 2-2 2h-8c-1.1 0-2-.9-2-2s.9-2 2-2h8c1.1 0 2 .9 2 2z" class="st3"/></svg>