<svg xmlns="http://www.w3.org/2000/svg" xml:space="preserve" viewBox="0 0 64 64"><style>.st1{opacity:.2}.st2{fill:#231f20}.st4{fill:#c75c5c}.st5{fill:#e0995e}</style><g id="Layer_1"><circle cx="31.8" cy="32" r="32" fill="#e0e0d1"/><g class="st1"><path d="M38.6 22v-3.7c0 .9-3.9 3.3-5.2 4.1.5-.3 1-.5 1.6-.5h3.6z" class="st2"/><path d="M38.6 18.3c0-.2-.2-.3-.8-.3H20v20h12V25c0-.2 0-.5.1-.7.1-.6.5-1.2 1-1.6.4-.4 5.5-3.3 5.5-4.4z" class="st2"/></g><path fill="#76c2af" d="M38.6 20v-3.7c0 .9-3.9 3.3-5.2 4.1.5-.3 1-.5 1.6-.5h3.6z"/><path d="M38.6 16.3c0-.2-.2-.3-.8-.3H20v20h12V23c0-.2 0-.5.1-.7.1-.6.5-1.2 1-1.6.4-.4 5.5-3.3 5.5-4.4z" class="st4"/><g class="st1"><path d="M49 20H38.6v-1H34c-1.7 0-3 1.3-3 3v17c0 1.7 1.3 3 3 3h15c1.7 0 3-1.3 3-3V23c0-1.7-1.3-3-3-3z" class="st2"/></g><path d="M49 20H35c-1.7 0-3 1.3-3 3v14c0 1.7 1.3 3 3 3h14c1.7 0 3-1.3 3-3V23c0-1.7-1.3-3-3-3z" class="st4"/><g class="st1"><path d="M20 52c0 1.1-.9 2-2 2s-2-.9-2-2V18c0-1.1.9-2 2-2s2 .9 2 2v34z" class="st2"/></g><path d="M20 50c0 1.1-.9 2-2 2s-2-.9-2-2V16c0-1.1.9-2 2-2s2 .9 2 2v34z" class="st5"/><g class="st1"><circle cx="18" cy="17" r="3" class="st2"/></g><circle cx="18" cy="15" r="3" class="st5"/></g></svg>