<svg xmlns="http://www.w3.org/2000/svg" xml:space="preserve" id="Layer_1" x="0" y="0" version="1.1" viewBox="0 0 64 64"><style>.st1{fill:#4f5d73}.st3{opacity:.2;fill:#231f20}</style><circle cx="32" cy="32" r="32" fill="#f5cf87"/><path d="M34.5 50c0 1.1-.9 2-2 2h-12c-1.1 0-2-.9-2-2V26c0-1.1.9-2 2-2h12c1.1 0 2 .9 2 2v24z" class="st1"/><path fill="#fff" d="M31.6 38.2c-.8.8-2 .8-2.8 0l-8.5-8.5c-.8-.8-.8-2 0-2.8l17-17c.8-.8 2-.8 2.8 0l8.5 8.5c.8.8.8 2 0 2.8l-17 17z"/><path d="M27.9 44.9c-.8.8-2 .8-2.8 0l-8.5-8.5c-.8-.8-.8-2 0-2.8l17-17c.8-.8 2-.8 2.8 0l8.5 8.5c.8.8.8 2 0 2.8l-17 17z" class="st3"/><path d="M27.9 41.9c-.8.8-2 .8-2.8 0l-8.5-8.5c-.8-.8-.8-2 0-2.8l17-17c.8-.8 2-.8 2.8 0l8.5 8.5c.8.8.8 2 0 2.8l-17 17z" class="st1"/><circle cx="26.5" cy="32.5" r="6.5" class="st3"/><circle cx="26.5" cy="31.8" r="6" class="st1"/></svg>