<svg xmlns="http://www.w3.org/2000/svg" xml:space="preserve" id="Layer_1" x="0" y="0" version="1.1" viewBox="0 0 64 64"><style>.st2{opacity:.2;fill:#231f20}.st3{fill:#76c2af;stroke:#76c2af;stroke-width:4;stroke-linecap:round;stroke-linejoin:round;stroke-miterlimit:10}.st4{fill:#c75c5c}</style><circle cx="32" cy="32" r="32" fill="#4f5d73"/><path fill="none" stroke="#76c2af" stroke-linecap="round" stroke-miterlimit="10" stroke-width="4" d="M32 24v25"/><path d="M49.9 37.2c-.7-.4-1.6-.3-2.2.2 0 0-4.6 3.8-10.1 6.8-2.8 1.5-4.5 3.4-5.7 5.2-1.1-1.8-2.9-3.7-5.7-5.2-5.5-3-10-6.7-10-6.8-.6-.5-1.5-.6-2.2-.3-.7.4-1.1 1.1-1.1 1.9.4 6.3 4.8 18.3 18.9 18.3 14.1 0 18.6-12 19-18.3.2-.7-.2-1.4-.9-1.8z" class="st2"/><path d="M32 53.4s0-5.8 6.6-9.4c5.8-3.2 10.4-7 10.4-7s-1 16.4-17 16.4zM31.9 53.4s0-5.8-6.6-9.4C19.6 40.8 15 37 15 37s1 16.4 16.9 16.4z" class="st3"/><circle cx="26" cy="24" r="8" class="st2"/><circle cx="38" cy="24" r="8" class="st2"/><circle cx="32" cy="20" r="8" class="st2"/><circle cx="32" cy="30" r="8" class="st2"/><circle cx="26" cy="22" r="8" class="st4"/><circle cx="38" cy="22" r="8" class="st4"/><circle cx="32" cy="16" r="8" class="st4"/><circle cx="32" cy="28" r="8" class="st4"/><circle cx="32" cy="24" r="5" class="st2"/><circle cx="32" cy="22" r="5" fill="#f5cf87"/></svg>