<svg xmlns="http://www.w3.org/2000/svg" xml:space="preserve" id="Layer_1" x="0" y="0" version="1.1" viewBox="0 0 64 64"><style>.st1{opacity:.2}.st2{fill:#231f20}.st3{fill:none;stroke:#fff;stroke-width:3;stroke-linecap:round;stroke-linejoin:round;stroke-miterlimit:10}</style><circle cx="32" cy="32" r="32" fill="#4f5d73"/><g class="st1"><path d="M16.5 28c-.8 0-1.5-.7-1.5-1.5v-8c0-.8.7-1.5 1.5-1.5h8c.8 0 1.5.7 1.5 1.5s-.7 1.5-1.5 1.5H18v6.5c0 .8-.7 1.5-1.5 1.5z" class="st2"/></g><g class="st1"><path d="M47.5 28c-.8 0-1.5-.7-1.5-1.5V20h-6.5c-.8 0-1.5-.7-1.5-1.5s.7-1.5 1.5-1.5h8c.8 0 1.5.7 1.5 1.5v8c0 .8-.7 1.5-1.5 1.5z" class="st2"/></g><g class="st1"><path d="M47.5 51h-8c-.8 0-1.5-.7-1.5-1.5s.7-1.5 1.5-1.5H46v-6.5c0-.8.7-1.5 1.5-1.5s1.5.7 1.5 1.5v8c0 .8-.7 1.5-1.5 1.5z" class="st2"/></g><g class="st1"><path d="M24.5 51h-8c-.8 0-1.5-.7-1.5-1.5v-8c0-.8.7-1.5 1.5-1.5s1.5.7 1.5 1.5V48h6.5c.8 0 1.5.7 1.5 1.5s-.7 1.5-1.5 1.5z" class="st2"/></g><g class="st1"><path d="M35 38.5h-6c-.8 0-1.5-.7-1.5-1.5v-6c0-.8.7-1.5 1.5-1.5h6c.8 0 1.5.7 1.5 1.5v6c0 .8-.7 1.5-1.5 1.5zm-4.5-3h3v-3h-3v3z" class="st2"/></g><path d="M16.5 24.5v-8h8M39.5 16.5h8v8M47.5 39.5v8h-8M24.5 47.5h-8v-8" class="st3"/><path fill="none" stroke="#c75c5c" stroke-linecap="round" stroke-linejoin="round" stroke-miterlimit="10" stroke-width="3" d="M29 29h6v6h-6z"/></svg>