<svg xmlns="http://www.w3.org/2000/svg" xml:space="preserve" viewBox="0 0 64 64"><circle cx="32" cy="32" r="32" fill="#e0995e"/><path fill="#231f20" d="M32 22.9H14.5c-1.4 0-2.5 1.1-2.5 2.4v22.2c0 1.4 1.1 2.5 2.5 2.5h35c1.4 0 2.5-1.1 2.5-2.5V22.9H32z" opacity=".2"/><path fill="#fff" d="M32 20.9H14.5c-1.4 0-2.5 1.1-2.5 2.4v22.2c0 1.4 1.1 2.5 2.5 2.5h35c1.4 0 2.5-1.1 2.5-2.5V20.9H32z"/><path fill="#e0e0d1" d="M52 18.5c0-1.4-1.1-2.5-2.5-2.5H37c-1.4 0-2.5 1.1-2.5 2.5 0 0-.3 2.3-2.5 2.5h20v-2.5z"/></svg>