<svg xmlns="http://www.w3.org/2000/svg" xml:space="preserve" id="Layer_1" x="0" y="0" version="1.1" viewBox="0 0 64 64"><style>.st2{opacity:.2}.st3{fill:#231f20}.st5{fill:#e0e0d1}</style><circle cx="32" cy="32" r="32" fill="#4f5d73"/><path fill="#231f20" d="M37 21v18H15V21h22m0-3H15c-1.7 0-3 1.3-3 3v18c0 1.7 1.3 3 3 3h22c1.7 0 3-1.3 3-3V21c0-1.7-1.3-3-3-3z" opacity=".2"/><g class="st2"><path d="M48.5 52H24c-.8 0-1.5-.7-1.5-1.5S23.2 49 24 49h23V30c0-.8.7-1.5 1.5-1.5s1.5.7 1.5 1.5v20.5c0 .8-.7 1.5-1.5 1.5z" class="st3"/></g><g class="st2"><path d="M43.5 47H19c-.8 0-1.5-.7-1.5-1.5S18.2 44 19 44h23V25c0-.8.7-1.5 1.5-1.5s1.5.7 1.5 1.5v20.5c0 .8-.7 1.5-1.5 1.5z" class="st3"/></g><path fill="#fff" d="M37 19v18H15V19h22m0-3H15c-1.7 0-3 1.3-3 3v18c0 1.7 1.3 3 3 3h22c1.7 0 3-1.3 3-3V19c0-1.7-1.3-3-3-3z"/><path d="M48.5 50H24c-.8 0-1.5-.7-1.5-1.5S23.2 47 24 47h23V28c0-.8.7-1.5 1.5-1.5s1.5.7 1.5 1.5v20.5c0 .8-.7 1.5-1.5 1.5z" class="st5"/><path d="M43.5 45H19c-.8 0-1.5-.7-1.5-1.5S18.2 42 19 42h23V23c0-.8.7-1.5 1.5-1.5s1.5.7 1.5 1.5v20.5c0 .8-.7 1.5-1.5 1.5z" class="st5"/></svg>