<svg xmlns="http://www.w3.org/2000/svg" xml:space="preserve" id="Layer_1" x="0" y="0" version="1.1" viewBox="0 0 64 64"><style>.st3{fill:#c75c5c}</style><circle cx="32" cy="32" r="32" fill="#e0e0d1"/><path fill="#231f20" d="M44 16H30l-2.2 2.2c-1-1-2.6-1-3.5 0L22.5 20c-1.7-1.6-4.3-3.1-8.1-3.9-1.1-.2-2.1.4-2.4 1.5-.2 1.1.4 2.1 1.5 2.4 2.9.6 4.8 1.7 6.1 2.8l-1.4 1.4c-1 1-1 2.6 0 3.5L16 30v18c0 2.2 1.8 4 4 4h28c2.2 0 4-1.8 4-4V24c0-2.2-5.8-8-8-8zm4 8.4V29l-9-9h4.6c1.2.7 3.7 3.2 4.4 4.4z" opacity=".2"/><path d="M43.6 18c1.2.7 3.8 3.2 4.4 4.4V46H20V29.7L31.7 18h11.9m.4-4H30L16 28v18c0 2.2 1.8 4 4 4h28c2.2 0 4-1.8 4-4V22c0-2.2-5.8-8-8-8z" class="st3"/><path d="M20 48.5c-1.4 0-2.5-1.1-2.5-2.5V35.7l19.4-17.6 11.4 11.4h.7c.6 0 1.1-.1 1.5-.1V46c0 1.4-1.1 2.5-2.5 2.5H20z" class="st3"/><path d="m36.9 20.1 10 10 .9.9H49v15c0 .6-.4 1-1 1H20c-.6 0-1-.4-1-1v-9.7l17.9-16.2M37 16 16 35v11c0 2.2 1.8 4 4 4h28c2.2 0 4-1.8 4-4V29c0-1.1-.2-1.3-.6-1.3-.5 0-1.2.3-2.4.3L37 16z" class="st3"/><path fill="none" stroke="#4f5d73" stroke-linecap="round" stroke-miterlimit="10" stroke-width="4" d="M24 24s-1-6-10-8"/><path fill="none" stroke="#4f5d73" stroke-linecap="round" stroke-miterlimit="10" stroke-width="5" d="m20 24 6-6"/><path d="M20 48.5c-1.4 0-2.5-1.1-2.5-2.5V28.6l13.1-13.1H32c1.4 0 2.5 1.1 2.5 2.5v.1l5 28c-.1 1.3-1.2 2.4-2.5 2.4H20z" class="st3"/><path d="M32 17c.6 0 1 .4 1 1v.6l5 27.6c-.1.5-.5.8-1 .8H20c-.6 0-1-.4-1-1V29.2L31.2 17h.8m0-3h-2L16 28v18c0 2.2 1.8 4 4 4h17c2.2 0 4-1.8 4-4l-5-28c0-2.2-1.8-4-4-4z" class="st3"/></svg>