<svg xmlns="http://www.w3.org/2000/svg" xml:space="preserve" id="Layer_1" x="0" y="0" version="1.1" viewBox="0 0 64 64"><style>.st3{fill:#231f20}</style><circle cx="32" cy="32" r="32" fill="#c75c5c"/><g opacity=".2"><path d="M32 16.8 17.6 49.2 32 42l14.4 7.2z" class="st3"/><path d="M46.4 50.5c-.2 0-.4 0-.6-.1L32 43.5l-13.8 6.9c-.5.3-1.1.2-1.5-.2-.4-.4-.5-1-.3-1.5l14.4-32.3c.2-.5.7-.8 1.2-.8s1 .3 1.2.8l14.4 32.3c.2.5.1 1.1-.3 1.5-.3.2-.6.3-.9.3zM32 40.6c.2 0 .4 0 .6.1l11 5.5-11.6-26-11.6 26.1 11-5.5c.2-.1.4-.2.6-.2z" class="st3"/></g><path fill="#fff" stroke="#fff" stroke-linecap="round" stroke-linejoin="round" stroke-miterlimit="10" stroke-width="3" d="M32 15 17.9 46.7 32 39.6l14.1 7.1z"/></svg>