<svg xmlns="http://www.w3.org/2000/svg" xml:space="preserve" viewBox="0 0 64 64"><style>.st2{fill:#231f20}.st3{fill:#f5cf87}</style><g id="Layer_1"><circle cx="32" cy="32" r="32" fill="#4f5d73"/><g opacity=".2"><path d="M10 34.5c0 3.7.9 7.5 2.9 11s4.8 6.2 8.1 8.1l11-19.1H10zM43 53.5c7.1-4.1 11-11.5 11-19.1H32l11 19.1z" class="st2"/><path d="M43 15.4c-6.6-3.8-14.9-4.1-22 0l11 19.1 11-19.1z" class="st2"/></g><path d="M10 32.5c0 3.7.9 7.5 2.9 11s4.8 6.2 8.1 8.1l11-19.1H10zM43 51.5c7.1-4.1 11-11.5 11-19.1H32l11 19.1z" class="st3"/><path d="M43 13.4c-6.6-3.8-14.9-4.1-22 0l11 19.1 11-19.1z" class="st3"/></g></svg>