<svg xmlns="http://www.w3.org/2000/svg" xml:space="preserve" id="Layer_1" x="0" y="0" version="1.1" viewBox="0 0 64 64"><style>.st2{fill:#4f5d73}.st6{opacity:.2;fill:#231f20}</style><circle cx="32" cy="32" r="32" fill="#e0995e"/><path d="M44 54H30c-1.1 0-2-.9-2-2s.9-2 2-2h14c1.1 0 2 .9 2 2s-.9 2-2 2z" class="st2"/><path fill="#231f20" d="M50 20H22c-1.1 0-2-.9-2-2s.9-2 2-2h28c1.1 0 2 .9 2 2s-.9 2-2 2z" opacity=".2"/><path fill="#4f5d73" stroke="#fff" stroke-linecap="round" stroke-miterlimit="10" stroke-width="3" d="M50 16.5H22"/><path d="M37 25.5c0-.5 0-1 .1-1.5H37c-3.9 0-7.4 1.5-10 3.9-.4.4-1.3 1.1-2.6 1.1-3.1 0-14.4-3.6-14.4 0 0 3 2 3.9 2 3.9l8.6 4.1s1.4.7 1.4 2c0 8.3 6.7 11 15 11 7.3 0 14.1-2.6 14.7-10.1C43.4 39 37 34 37 25.5z" class="st6"/><path d="M37 23.5c0-.5 0-1 .1-1.5H37c-3.9 0-7.4 1.5-10 3.9-.4.4-1.3 1.1-2.6 1.1H10l2 3.9 8.6 4.1s1.4.7 1.4 2c0 8.3 6.7 11 15 11 7.3 0 13.4-1.2 14.7-8.1C43.4 39 37 32 37 23.5z" class="st2"/><path d="M13 27c.6 0 1 .4 1 1s-.4 1-1 1-1-.4-1-1 .4-1 1-1m0-4c-2.8 0-5 2.2-5 5s2.2 5 5 5 5-2.2 5-5-2.2-5-5-5z" class="st6"/><path fill="#fff" d="M13 24c1.1 0 2 .9 2 2s-.9 2-2 2-2-.9-2-2 .9-2 2-2m0-3c-2.8 0-5 2.2-5 5s2.2 5 5 5 5-2.2 5-5-2.2-5-5-5z"/><path fill="#e0e0d1" d="M37.1 22c0 .5-.1 1-.1 1.5C37 32 43.4 39 51.7 39.9c.2-.9.3-1.9.3-2.9 0-8.3-6.7-15-14.9-15z"/></svg>