<svg xmlns="http://www.w3.org/2000/svg" xml:space="preserve" id="Layer_1" x="0" y="0" version="1.1" viewBox="0 0 64 64"><style>.st5{fill:#4f5d73}</style><circle cx="32" cy="32" r="32" fill="#77b3d4"/><circle cx="32" cy="30" r="20" fill="#231f20" opacity=".2"/><path fill="#231f20" d="M38 55c0 1.7-1.3 3-3 3h-6c-1.7 0-3-1.3-3-3s1.3-3 3-3h6c1.7 0 3 1.3 3 3z" opacity=".2"/><circle cx="32" cy="28" r="20" class="st5"/><ellipse cx="32" cy="28" fill="#fff" rx="16" ry="20"/><ellipse cx="32" cy="28" class="st5" rx="8" ry="20"/><path fill="#c75c5c" d="M38 53c0 1.7-1.3 3-3 3h-6c-1.7 0-3-1.3-3-3s1.3-3 3-3h6c1.7 0 3 1.3 3 3z"/></svg>