<svg xmlns="http://www.w3.org/2000/svg" xml:space="preserve" viewBox="0 0 64 64"><style>.st2{fill:#231f20}.st4{fill:#4f5d73}.st6{fill:#f5cf87}</style><g id="Layer_1"><circle cx="32" cy="32" r="32" fill="#c75c5c"/><path d="M46 50h-2v-4c0-4.5-3-7.4-3-7.4s-3-2.8-3.9-3.7c-.9-.9 0-1.8 0-1.8s1.3-1.3 4.2-4c2.8-2.7 2.7-6.7 2.7-6.7v-5.1l-12-1-12 1v5.1s-.1 3.9 2.7 6.7c2.8 2.7 4.2 4 4.2 4s.9.9 0 1.8-3.9 3.7-3.9 3.7-3 2.8-3 7.4v4h-2c-1.1 0-2 .9-2 2s.9 2 2 2h28c1.1 0 2-.9 2-2s-.9-2-2-2z" class="st2" opacity=".2"/><path fill="#fff" d="M41 36.6s-3-2.8-3.9-3.7c-.9-.9 0-1.8 0-1.8s1.3-1.3 4.2-4c2.8-2.7 2.7-6.7 2.7-6.7v-5.1l-12-1-12 1v5.1s-.1 3.9 2.7 6.7c2.8 2.7 4.2 4 4.2 4s.9.9 0 1.8-3.9 3.7-3.9 3.7-3 2.8-3 7.4v5.1h24V44c0-4.5-3-7.4-3-7.4z"/><path d="M31 43V32c0-2.1-1-3.4-1.3-3.7l-4.2-4C24 22.9 24 20.6 24 20.6h16s0 2.3-1.5 3.7l-4.2 4c-.4.3-1.3 1.6-1.3 3.7v11h-2z" class="st4"/><path d="M48 16c0 1.1-.9 2-2 2H18c-1.1 0-2-.9-2-2s.9-2 2-2h28c1.1 0 2 .9 2 2z" class="st2" opacity=".3"/><path d="M48 14c0 1.1-.9 2-2 2H18c-1.1 0-2-.9-2-2s.9-2 2-2h28c1.1 0 2 .9 2 2zM48 50c0 1.1-.9 2-2 2H18c-1.1 0-2-.9-2-2s.9-2 2-2h28c1.1 0 2 .9 2 2z" class="st6"/><path d="M41 48H23l9-8z" class="st4"/></g></svg>