<svg xmlns="http://www.w3.org/2000/svg" xml:space="preserve" viewBox="0 0 64 64"><circle cx="32" cy="32" r="32" fill="#e0995e"/><path fill="#231f20" d="M51.4 18.4c-.2-.4-.5-.7-.9-.8-.4-.1-.8-.1-1.2.1 0 0-4.2 2.2-9.1 2.2-2.8 0-5.3-.7-7.4-2.1-.5-.3-1.1-.3-1.6 0-2.1 1.4-4.6 2.1-7.4 2.1-4.9 0-9-2.1-9.1-2.2-.4-.2-.8-.2-1.2-.1-.4.1-.7.4-.9.8-.1.3-3.1 6.8-3.2 14.6-.1 8.9 3.7 20.4 22.2 24.5h.6C50.9 53.6 54.6 42 54.5 33c0-7.8-3-14.4-3.1-14.6z" opacity=".2"/><path fill="#4f5d73" stroke="#fff" stroke-linecap="round" stroke-linejoin="round" stroke-miterlimit="10" stroke-width="3" d="M11 30.5c-.1 8.8 3.8 19.2 21 23 17.3-3.6 21.1-14.1 21-23H11z"/><path fill="#c75c5c" stroke="#fff" stroke-linecap="round" stroke-linejoin="round" stroke-miterlimit="10" stroke-width="3" d="M50 16.5s-10 5.3-18 0c-8 5.3-18 0-18 0s-3 6.4-3 14h42c0-7.6-3-14-3-14z"/></svg>