<svg xmlns="http://www.w3.org/2000/svg" xml:space="preserve" id="Layer_1" x="0" y="0" version="1.1" viewBox="0 0 64 64"><style>.st4{fill:#231f20}.st5{fill:#fff}</style><circle cx="32" cy="32" r="32" fill="#e0995e"/><path fill="#231f20" d="M52 42.9c0 1.1-.9 2.1-2 2.1H14c-1.1 0-2-.9-2-2.1V26.1c0-1.1.9-2.1 2-2.1h36c1.1 0 2 .9 2 2.1v16.8z" opacity=".2"/><path fill="#f5cf87" d="M52 40.9c0 1.1-.9 2.1-2 2.1H14c-1.1 0-2-.9-2-2.1V24.1c0-1.1.9-2.1 2-2.1h36c1.1 0 2 .9 2 2.1v16.8z"/><g opacity=".2"><path d="M39.9 38H24.1c-.9 0-1.6.7-1.6 1.5s.7 1.5 1.6 1.5h15.8c.9 0 1.6-.7 1.6-1.5s-.7-1.5-1.6-1.5z" class="st4"/><circle cx="20" cy="39.5" r="1.5" class="st4"/><circle cx="16" cy="39.5" r="1.5" class="st4"/><circle cx="48" cy="39.5" r="1.5" class="st4"/><circle cx="44" cy="39.5" r="1.5" class="st4"/><path d="M20 33.8h-4c-.8 0-1.5.7-1.5 1.5s.7 1.5 1.5 1.5h4c.8 0 1.5-.7 1.5-1.5s-.7-1.5-1.5-1.5zM48 33.8h-4c-.8 0-1.5.7-1.5 1.5s.7 1.5 1.5 1.5h4c.8 0 1.5-.7 1.5-1.5s-.7-1.5-1.5-1.5z" class="st4"/><circle cx="20" cy="31.5" r="1.5" class="st4"/><circle cx="16" cy="31.5" r="1.5" class="st4"/><circle cx="48" cy="31.5" r="1.5" class="st4"/><circle cx="44" cy="31.5" r="1.5" class="st4"/><circle cx="20" cy="27.5" r="1.5" class="st4"/><circle cx="16" cy="27.5" r="1.5" class="st4"/><circle cx="28" cy="35.3" r="1.5" class="st4"/><circle cx="24" cy="35.3" r="1.5" class="st4"/><circle cx="28" cy="31.5" r="1.5" class="st4"/><circle cx="24" cy="31.5" r="1.5" class="st4"/><circle cx="28" cy="27.5" r="1.5" class="st4"/><circle cx="24" cy="27.5" r="1.5" class="st4"/><circle cx="36" cy="35.3" r="1.5" class="st4"/><circle cx="32" cy="35.3" r="1.5" class="st4"/><circle cx="36" cy="31.5" r="1.5" class="st4"/><circle cx="32" cy="31.5" r="1.5" class="st4"/><circle cx="36" cy="27.5" r="1.5" class="st4"/><circle cx="40" cy="35.3" r="1.5" class="st4"/><circle cx="40" cy="31.5" r="1.5" class="st4"/><circle cx="40" cy="27.5" r="1.5" class="st4"/><circle cx="32" cy="27.5" r="1.5" class="st4"/><circle cx="48" cy="27.5" r="1.5" class="st4"/><circle cx="44" cy="27.5" r="1.5" class="st4"/></g><path d="M39.9 37H24.1c-.9 0-1.6.7-1.6 1.5s.7 1.5 1.6 1.5h15.8c.9 0 1.6-.7 1.6-1.5s-.7-1.5-1.6-1.5z" class="st5"/><circle cx="20" cy="38.5" r="1.5" class="st5"/><circle cx="16" cy="38.5" r="1.5" class="st5"/><circle cx="48" cy="38.5" r="1.5" class="st5"/><circle cx="44" cy="38.5" r="1.5" class="st5"/><path d="M20 32.8h-4c-.8 0-1.5.7-1.5 1.5s.7 1.5 1.5 1.5h4c.8 0 1.5-.7 1.5-1.5s-.7-1.5-1.5-1.5zM48 32.8h-4c-.8 0-1.5.7-1.5 1.5s.7 1.5 1.5 1.5h4c.8 0 1.5-.7 1.5-1.5s-.7-1.5-1.5-1.5z" class="st5"/><circle cx="20" cy="30.5" r="1.5" class="st5"/><circle cx="16" cy="30.5" r="1.5" class="st5"/><circle cx="48" cy="30.5" r="1.5" class="st5"/><circle cx="44" cy="30.5" r="1.5" class="st5"/><circle cx="20" cy="26.5" r="1.5" class="st5"/><circle cx="16" cy="26.5" r="1.5" class="st5"/><circle cx="28" cy="34.3" r="1.5" class="st5"/><circle cx="24" cy="34.3" r="1.5" class="st5"/><circle cx="28" cy="30.5" r="1.5" class="st5"/><circle cx="24" cy="30.5" r="1.5" class="st5"/><circle cx="28" cy="26.5" r="1.5" class="st5"/><circle cx="24" cy="26.5" r="1.5" class="st5"/><circle cx="36" cy="34.3" r="1.5" class="st5"/><circle cx="32" cy="34.3" r="1.5" class="st5"/><circle cx="36" cy="30.5" r="1.5" class="st5"/><circle cx="32" cy="30.5" r="1.5" class="st5"/><circle cx="36" cy="26.5" r="1.5" class="st5"/><circle cx="40" cy="34.3" r="1.5" class="st5"/><circle cx="40" cy="30.5" r="1.5" class="st5"/><circle cx="40" cy="26.5" r="1.5" class="st5"/><circle cx="32" cy="26.5" r="1.5" class="st5"/><circle cx="48" cy="26.5" r="1.5" class="st5"/><circle cx="44" cy="26.5" r="1.5" class="st5"/></svg>