<svg xmlns="http://www.w3.org/2000/svg" xml:space="preserve" id="Layer_1" x="0" y="0" version="1.1" viewBox="0 0 64 64"><style>.st2{fill:#4f5d73}.st3{opacity:.2}.st4{fill:#fff}.st5{opacity:.2;fill:#231f20}</style><circle cx="32" cy="32" r="32" fill="#e0e0d1"/><circle cx="32" cy="32" r="15.4" fill="#76c2af"/><circle cx="32" cy="32" r="8.5" class="st2"/><g class="st3"><path d="M43.1 17.9c-6.1-1.3-14-.8-20.3.9-.5 1.5-.8 3.1-.8 4.8C22 32.1 28.9 39 37.4 39c5.5 0 10.2-2.9 13-7.1-1-5.9-2.6-13-7.3-14z" class="st4"/></g><circle cx="36" cy="26" r="2" class="st4"/><path d="M32 20.5c6.7 0 12.1 5.4 12.1 12.1S38.7 44.7 32 44.7s-12.1-5.4-12.1-12.1S25.3 20.5 32 20.5m0-3.3c-8.5 0-15.4 6.9-15.4 15.4S23.5 48 32 48s15.4-6.9 15.4-15.4S40.5 17.2 32 17.2z" class="st5"/><path d="M32 19c7.2 0 13 5.8 13 13s-5.8 13-13 13-13-5.8-13-13 5.8-13 13-13m0-3c-8.8 0-16 7.2-16 16s7.2 16 16 16 16-7.2 16-16-7.2-16-16-16z" class="st2"/><path d="M32 17.4c8.3 0 15 6.7 15 15s-6.7 15-15 15-15-6.7-15-15c0-8.2 6.7-15 15-15m0-3.2c-10.1 0-18.2 8.2-18.2 18.2 0 10.1 8.2 18.2 18.2 18.2s18.2-8.2 18.2-18.2S42.1 14.2 32 14.2z" class="st5"/><path d="M32 16c8.8 0 16 7.2 16 16s-7.2 16-16 16-16-7.2-16-16 7.2-16 16-16m0-3c-10.5 0-19 8.5-19 19s8.5 19 19 19 19-8.5 19-19-8.5-19-19-19z" class="st2"/><path d="M32 14.5c9.9 0 17.9 8 17.9 17.9 0 9.9-8 17.9-17.9 17.9s-17.9-8-17.9-17.9c0-9.8 8-17.9 17.9-17.9m0-3.1c-11.6 0-21.1 9.4-21.1 21.1 0 11.6 9.4 21.1 21.1 21.1s21.1-9.4 21.1-21.1c0-11.7-9.5-21.1-21.1-21.1z" class="st5"/><circle cx="32" cy="34" r="22" fill="#231f20" class="st3"/><path d="M32 13c10.5 0 19 8.5 19 19s-8.5 19-19 19-19-8.5-19-19 8.5-19 19-19m0-3c-12.2 0-22 9.8-22 22s9.8 22 22 22 22-9.8 22-22-9.8-22-22-22z" class="st2"/></svg>