<svg xmlns="http://www.w3.org/2000/svg" xml:space="preserve" viewBox="0 0 64 64"><style>.st0{fill:#c75c5c}.st1{fill:#e0e0d1}.st2{fill:#f5cf87}.st3{opacity:.2}.st4{fill:#231f20}.st5{fill:#fff}</style><g id="Layer_1"><circle cx="32" cy="32" r="32" class="st0"/><path d="M24 40c0-.5.6-.5 1.1-.8l6-3.5c.5-.3 1.3-.3 1.7 0l6 3.5c.5.3 1.1.2 1.1.8v7.4c0 .5-.6 1.5-1.1 1.8l-6 3.5c-.5.3-1.3.3-1.7 0l-6-3.5c-.5-.3-1.1-1.2-1.1-1.8V40z" class="st1"/><path d="M32 45c-9.4 0-17-7.6-17-17s7.6-17 17-17 17 7.6 17 17-7.6 17-17 17z" class="st2"/><path d="M32 12c8.8 0 16 7.2 16 16s-7.2 16-16 16-16-7.2-16-16 7.2-16 16-16m0-2c-9.9 0-18 8.1-18 18s8.1 18 18 18 18-8.1 18-18-8.1-18-18-18z" class="st0"/><g class="st3"><path d="M24 46.1v3.3c0 .6.6 1.5 1.1 1.8l6 3.5c.5.3 1.3.3 1.7 0l6-3.5c.5-.3 1.1-1.2 1.1-1.8v-3.3c-2.4 1.2-5.1 1.9-8 1.9s-5.5-.7-7.9-1.9z" class="st4"/></g><path d="M24 40.1v7.4c0 .6.6 1.5 1.1 1.8l6 3.5c.5.3 1.3.3 1.7 0l6-3.5c.5-.3 1.1-1.2 1.1-1.8v-7.4c-2.4 1.2-5.1 1.9-8 1.9s-5.5-.7-7.9-1.9z" class="st1"/><g class="st3"><circle cx="32" cy="30" r="16" class="st4"/></g><circle cx="32" cy="28" r="16" class="st2"/><path d="M32 41.6c-.8 0-1.5-.7-1.5-1.5V32c-2.7-.1-4.8-.8-6.4-2-1.6-1.2-2.5-2.9-2.5-4.8 0-3.2 2.5-5.7 5.6-5.7 1.7 0 3.1.6 4.2 1.7 2.3 2.4 2.1 6.4 2.1 6.9v12c0 .8-.7 1.5-1.5 1.5zm-4.8-19.1c-1.6 0-2.6 1.4-2.6 2.7 0 .6.2 1.6 1.3 2.4.8.6 2.1 1.2 4.6 1.4v-1c0-.9-.1-3.5-1.3-4.7-.5-.6-1.2-.8-2-.8z" class="st5"/><path d="M32 41.6c-.8 0-1.5-.7-1.5-1.5V28c0-.4-.2-4.4 2.1-6.8 1.1-1.1 2.5-1.7 4.2-1.7 3.1 0 5.6 2.6 5.6 5.7 0 1.9-.9 3.6-2.5 4.8-1.6 1.2-3.7 1.8-6.4 2v8.1c0 .8-.7 1.5-1.5 1.5zm4.8-19.1c-.9 0-1.5.3-2 .8-1.2 1.3-1.3 3.8-1.3 4.6V29c2.4-.2 3.8-.8 4.6-1.4 1.1-.8 1.3-1.8 1.3-2.4 0-1.3-1-2.7-2.6-2.7z" class="st5"/></g></svg>