<svg xmlns="http://www.w3.org/2000/svg" xml:space="preserve" id="Layer_1" x="0" y="0" version="1.1" viewBox="0 0 64 64"><style>.st2{fill:#231f20}.st3{fill:#fff}</style><circle cx="32" cy="32" r="32" fill="#e0995e"/><g opacity=".2"><path d="M32 12c-.8 0-1.5.7-1.5 1.5v8.2c0 .8.7 1.5 1.5 1.5s1.5-.7 1.5-1.5v-8.2c0-.8-.7-1.5-1.5-1.5zM21.5 33.5c0-.8-.7-1.5-1.5-1.5h-8c-.8 0-1.5.7-1.5 1.5S11.2 35 12 35h8c.8 0 1.5-.7 1.5-1.5zM32 44c-.8 0-1.5.7-1.5 1.5v8c0 .8.7 1.5 1.5 1.5s1.5-.7 1.5-1.5v-8c0-.8-.7-1.5-1.5-1.5zM39.3 43.1c-.4-.7-1.3-1-2-.5-.7.4-1 1.3-.5 2l4 6.9c.3.5.8.8 1.3.8.3 0 .5-.1.7-.2.7-.4 1-1.3.5-2l-4-7zM23.3 15.4c-.4-.7-1.3-1-2-.5-.7.4-1 1.3-.5 2l4.1 7.1c.3.5.8.8 1.3.8.3 0 .5-.1.7-.2.7-.4 1-1.3.5-2l-4.1-7.2zM40.9 28.3c.3.5.8.8 1.3.8.3 0 .5-.1.7-.2l7.1-4.1c.7-.4 1-1.3.5-2-.4-.7-1.3-1-2-.5l-7.1 4.1c-.6.3-.9 1.2-.5 1.9zM52 32h-8.2c-.8 0-1.5.7-1.5 1.5S43 35 43.8 35H52c.8 0 1.5-.7 1.5-1.5S52.8 32 52 32zM50.1 42.2l-6.9-4c-.7-.4-1.6-.2-2 .5-.4.7-.2 1.6.5 2l6.9 4c.2.1.5.2.7.2.5 0 1-.3 1.3-.8.4-.6.2-1.5-.5-1.9zM13.9 24.8l7.1 4.1c.2.1.5.2.7.2.5 0 1-.3 1.3-.8.4-.7.2-1.6-.5-2l-7.1-4.1c-.7-.4-1.6-.2-2 .5-.4.8-.2 1.7.5 2.1zM22.9 38.8c-.4-.7-1.3-1-2-.5l-6.9 4c-.7.4-1 1.3-.5 2 .3.5.8.8 1.3.8.3 0 .5-.1.7-.2l6.9-4c.7-.5.9-1.4.5-2.1zM26.8 42.6c-.7-.4-1.6-.2-2 .5l-4 6.9c-.4.7-.2 1.6.5 2 .2.1.5.2.7.2.5 0 1-.3 1.3-.8l4-6.9c.4-.6.2-1.5-.5-1.9zM37.2 24.6c.2.1.5.2.7.2.5 0 1-.3 1.3-.8l4.1-7.1c.4-.7.2-1.6-.5-2-.7-.4-1.6-.2-2 .5l-4.1 7.1c-.5.7-.3 1.6.5 2.1z" class="st2"/></g><path d="M32 10c-.8 0-1.5.7-1.5 1.5v8.2c0 .8.7 1.5 1.5 1.5s1.5-.7 1.5-1.5v-8.2c0-.8-.7-1.5-1.5-1.5zM21.5 31.5c0-.8-.7-1.5-1.5-1.5h-8c-.8 0-1.5.7-1.5 1.5S11.2 33 12 33h8c.8 0 1.5-.7 1.5-1.5zM32 42c-.8 0-1.5.7-1.5 1.5v8c0 .8.7 1.5 1.5 1.5s1.5-.7 1.5-1.5v-8c0-.8-.7-1.5-1.5-1.5zM39.3 41.1c-.4-.7-1.3-1-2-.5-.7.4-1 1.3-.5 2l4 6.9c.3.5.8.8 1.3.8.3 0 .5-.1.7-.2.7-.4 1-1.3.5-2l-4-7zM23.3 13.4c-.4-.7-1.3-1-2-.5-.7.4-1 1.3-.5 2l4.1 7.1c.3.5.8.8 1.3.8.3 0 .5-.1.7-.2.7-.4 1-1.3.5-2l-4.1-7.2zM40.9 26.3c.3.5.8.8 1.3.8.3 0 .5-.1.7-.2l7.1-4.1c.7-.4 1-1.3.5-2-.4-.7-1.3-1-2-.5l-7.1 4.1c-.6.3-.9 1.2-.5 1.9zM52 30h-8.2c-.8 0-1.5.7-1.5 1.5S43 33 43.8 33H52c.8 0 1.5-.7 1.5-1.5S52.8 30 52 30zM50.1 40.2l-6.9-4c-.7-.4-1.6-.2-2 .5-.4.7-.2 1.6.5 2l6.9 4c.2.1.5.2.7.2.5 0 1-.3 1.3-.8.4-.6.2-1.5-.5-1.9zM13.9 22.8l7.1 4.1c.2.1.5.2.7.2.5 0 1-.3 1.3-.8.4-.7.2-1.6-.5-2l-7.1-4.1c-.7-.4-1.6-.2-2 .5-.4.8-.2 1.7.5 2.1zM22.9 36.8c-.4-.7-1.3-1-2-.5l-6.9 4c-.7.4-1 1.3-.5 2 .3.5.8.8 1.3.8.3 0 .5-.1.7-.2l6.9-4c.7-.5.9-1.4.5-2.1zM26.8 40.6c-.7-.4-1.6-.2-2 .5l-4 6.9c-.4.7-.2 1.6.5 2 .2.1.5.2.7.2.5 0 1-.3 1.3-.8l4-6.9c.4-.6.2-1.5-.5-1.9zM37.2 22.6c.2.1.5.2.7.2.5 0 1-.3 1.3-.8l4.1-7.1c.4-.7.2-1.6-.5-2-.7-.4-1.6-.2-2 .5l-4.1 7.1c-.5.7-.3 1.6.5 2.1z" class="st3"/></svg>