<svg xmlns="http://www.w3.org/2000/svg" xml:space="preserve" id="Layer_1" x="0" y="0" version="1.1" viewBox="0 0 64 64"><style>.st1{opacity:.2}.st2{fill:#231f20}.st6{fill:#f5cf87}</style><circle cx="32" cy="32" r="32" fill="#c75c5c"/><g class="st1"><path d="M33.8 25.5 12.6 46.8c-.8.8-.8 2 0 2.8l2.8 2.8c.8.8 2 .8 2.8 0l21.2-21.2-5.6-5.7z" class="st2"/></g><path fill="#231f20" d="M47.9 22.7c.8-.8.8-2 0-2.8l-2.8-2.8c-.8-.8-2-.8-2.8 0l-7.1 7.1 5.7 5.7 7-7.2z" opacity=".2"/><g class="st1"><path d="M20.5 31.6c-.8 0-1.5-.7-1.5-1.5v-8c0-.8.7-1.5 1.5-1.5s1.5.7 1.5 1.5v8c0 .8-.7 1.5-1.5 1.5z" class="st2"/></g><g class="st1"><path d="M23.1 27H18c-.8 0-1.5-.7-1.5-1.5S17.2 24 18 24h5.1c.8 0 1.5.7 1.5 1.5s-.7 1.5-1.5 1.5z" class="st2"/></g><g class="st1"><path d="M33.5 22c-.8 0-1.5-.7-1.5-1.5v-8c0-.8.7-1.5 1.5-1.5s1.5.7 1.5 1.5v8c0 .8-.7 1.5-1.5 1.5z" class="st2"/></g><g class="st1"><path d="M36.1 17.4H31c-.8 0-1.5-.7-1.5-1.5s.7-1.5 1.5-1.5h5.1c.8 0 1.5.7 1.5 1.5s-.7 1.5-1.5 1.5z" class="st2"/></g><g class="st1"><path d="M49.5 41.6c-.8 0-1.5-.7-1.5-1.5v-8c0-.8.7-1.5 1.5-1.5s1.5.7 1.5 1.5v8c0 .8-.7 1.5-1.5 1.5z" class="st2"/></g><g class="st1"><path d="M52.1 37H47c-.8 0-1.5-.7-1.5-1.5S46.2 34 47 34h5.1c.8 0 1.5.7 1.5 1.5s-.7 1.5-1.5 1.5z" class="st2"/></g><path fill="#4f5d73" d="M33.8 23.5 12.6 44.8c-.8.8-.8 2 0 2.8l2.8 2.8c.8.8 2 .8 2.8 0l21.2-21.2-5.6-5.7z"/><path fill="#fff" d="M47.9 20.7c.8-.8.8-2 0-2.8l-2.8-2.8c-.8-.8-2-.8-2.8 0l-7.1 7.1 5.7 5.7 7-7.2z"/><path d="M20.5 29.6c-.8 0-1.5-.7-1.5-1.5v-8c0-.8.7-1.5 1.5-1.5s1.5.7 1.5 1.5v8c0 .8-.7 1.5-1.5 1.5z" class="st6"/><path d="M23.1 25H18c-.8 0-1.5-.7-1.5-1.5S17.2 22 18 22h5.1c.8 0 1.5.7 1.5 1.5s-.7 1.5-1.5 1.5zM33.5 20c-.8 0-1.5-.7-1.5-1.5v-8c0-.8.7-1.5 1.5-1.5s1.5.7 1.5 1.5v8c0 .8-.7 1.5-1.5 1.5z" class="st6"/><path d="M36.1 15.4H31c-.8 0-1.5-.7-1.5-1.5s.7-1.5 1.5-1.5h5.1c.8 0 1.5.7 1.5 1.5s-.7 1.5-1.5 1.5zM49.5 39.6c-.8 0-1.5-.7-1.5-1.5v-8c0-.8.7-1.5 1.5-1.5s1.5.7 1.5 1.5v8c0 .8-.7 1.5-1.5 1.5z" class="st6"/><path d="M52.1 35H47c-.8 0-1.5-.7-1.5-1.5S46.2 32 47 32h5.1c.8 0 1.5.7 1.5 1.5s-.7 1.5-1.5 1.5z" class="st6"/></svg>