<svg xmlns="http://www.w3.org/2000/svg" xml:space="preserve" id="Layer_1" x="0" y="0" version="1.1" viewBox="0 0 64 64"><style>.st6{fill:#e0995e}</style><circle cx="32" cy="32" r="32" fill="#f5cf87"/><path fill="#231f20" d="M36.1 49c-.3 0-.6 0-.8-.1l-9.7-2.4c-1.9-.5-3-2.4-2.6-4.2l1.4-5.8c.4-1.6 1.8-2.7 3.4-2.7.3 0 .6 0 .8.1l9.7 2.4c1.9.5 3 2.4 2.6 4.2l-1.4 5.8c-.4 1.6-1.8 2.7-3.4 2.7zm-8.3-12.2c-.2 0-.4.1-.5.4L25.9 43c-.1.3.1.5.4.6L36 46c.2.1.5 0 .6-.4l1.4-5.8c.1-.3-.1-.5-.4-.6l-9.7-2.4h-.1z" opacity=".2"/><path fill="#4f5d73" d="M36.1 47c-.3 0-.6 0-.8-.1l-9.7-2.4c-1.9-.5-3-2.4-2.6-4.2l1.4-5.8c.4-1.6 1.8-2.7 3.4-2.7.3 0 .6 0 .8.1l9.7 2.4c1.9.5 3 2.4 2.6 4.2l-1.4 5.8c-.4 1.6-1.8 2.7-3.4 2.7zm-8.3-12.2c-.2 0-.4.1-.5.4L25.9 41c-.1.3.1.5.4.6L36 44c.2.1.5 0 .6-.4l1.4-5.8c.1-.3-.1-.5-.4-.6l-9.7-2.4h-.1z"/><path fill="#231f20" d="M50 21c-1.1 0-2 .9-2 2v-.5l-34.3 7.4c-.4-.5-1-.9-1.7-.9-1.1 0-2 .9-2 2v6c0 1.1.9 2 2 2 .7 0 1.3-.4 1.7-.9L48 45.5V45c0 1.1.9 2 2 2s2-.9 2-2V23c0-1.1-.9-2-2-2z" opacity=".2"/><path fill="#c75c5c" d="m48 43.5-37-8v-7l37-8z"/><path d="M14 35c0 1.1-.9 2-2 2s-2-.9-2-2v-6c0-1.1.9-2 2-2s2 .9 2 2v6zM52 43c0 1.1-.9 2-2 2s-2-.9-2-2V21c0-1.1.9-2 2-2s2 .9 2 2v22z" class="st6"/></svg>