<svg xmlns="http://www.w3.org/2000/svg" xml:space="preserve" id="Layer_1" x="0" y="0" version="1.1" viewBox="0 0 64 64"><style>.st4{fill:#f5cf87}</style><circle cx="32" cy="32" r="32" fill="#c75c5c"/><path fill="#231f20" d="M48 52c0 1.1-.9 2-2 2H18c-1.1 0-2-.9-2-2V16c0-1.1.9-2 2-2h23c1.1 0 7 5.9 7 7v31z" opacity=".2"/><path fill="#4f5d73" d="M48 50c0 1.1-.9 2-2 2H18c-1.1 0-2-.9-2-2V14c0-1.1.9-2 2-2h23c1.1 0 7 5.9 7 7v31z"/><path fill="#e0e0d1" d="M44 46c0 1.1-.9 2-2 2H22c-1.1 0-2-.9-2-2V26c0-1.1.9-2 2-2h20c1.1 0 2 .9 2 2v20z"/><path d="M20 12h4v6h-4zM26 12h4v6h-4zM32 12h4v6h-4z" class="st4"/></svg>