<svg xmlns="http://www.w3.org/2000/svg" xml:space="preserve" id="Layer_1" x="0" y="0" version="1.1" viewBox="0 0 64 64"><style>.st2{opacity:.2}.st3{fill:#231f20}</style><circle cx="32" cy="32" r="32" fill="#f5cf87"/><g class="st2"><path d="M30 58c-1.7 0-3-1.3-3-3V22h6c0 22.1 13.4 25 13.6 25.1 1.6.3 2.7 1.9 2.4 3.5s-1.9 2.7-3.5 2.4c-.5-.1-7.2-1.5-12.4-8.8V55c-.1 1.7-1.4 3-3.1 3z" class="st3"/></g><path fill="none" stroke="#4f5d73" stroke-linecap="round" stroke-miterlimit="10" stroke-width="6" d="M46 48s-16-3.1-16-28v33"/><g class="st2"><path d="M21.4 24c-1.5 0-1.9-1.1-.9-2.4L28.2 11c1-1.3 2.6-1.3 3.5 0l7.7 10.6c1 1.3.6 2.4-.9 2.4H21.4z" class="st3"/></g><path fill="#4f5d73" d="M21.4 22c-1.5 0-1.9-1.1-.9-2.4L28.2 9c1-1.3 2.6-1.3 3.5 0l7.7 10.6c1 1.3.6 2.4-.9 2.4H21.4z"/></svg>