<svg xmlns="http://www.w3.org/2000/svg" xml:space="preserve" id="Layer_1" x="0" y="0" version="1.1" viewBox="0 0 64 64"><style>.st1{opacity:.2}.st2,.st4{fill:#231f20}.st4{opacity:.2}.st5{fill:#4f5d73}.st6,.st8{fill:none;stroke:#fff;stroke-width:3;stroke-linecap:round;stroke-linejoin:round;stroke-miterlimit:10}.st8{stroke:#c75c5c}</style><g class="st1"><path d="M44 56H30c-1.1 0-2-.9-2-2s.9-2 2-2h14c1.1 0 2 .9 2 2s-.9 2-2 2z" class="st2"/></g><circle cx="32" cy="32" r="32" fill="#76c2af"/><path d="M17 33c3.3 0 6 2.7 6 6s-2.7 6-6 6-6-2.7-6-6 2.7-6 6-6m0-3c-5 0-9 4-9 9s4 9 9 9 9-4 9-9-4-9-9-9zM47 33c3.3 0 6 2.7 6 6s-2.7 6-6 6-6-2.7-6-6 2.7-6 6-6m0-3c-5 0-9 4-9 9s4 9 9 9 9-4 9-9-4-9-9-9z" class="st4"/><path d="M17 31c3.3 0 6 2.7 6 6s-2.7 6-6 6-6-2.7-6-6 2.7-6 6-6m0-3c-5 0-9 4-9 9s4 9 9 9 9-4 9-9-4-9-9-9zM47 31c3.3 0 6 2.7 6 6s-2.7 6-6 6-6-2.7-6-6 2.7-6 6-6m0-3c-5 0-9 4-9 9s4 9 9 9 9-4 9-9-4-9-9-9z" class="st5"/><g class="st1"><path d="M33 40H18c-.8 0-1.5-.7-1.5-1.5S17.2 37 18 37h14.5l1.6-1.2c.7-.5 1.6-.4 2.1.3s.4 1.6-.3 2.1l-2 1.5c-.3.2-.6.3-.9.3z" class="st2"/></g><path d="M18 36.5h15l2-1.5" class="st6"/><path fill="none" stroke="#f5cf87" stroke-linecap="round" stroke-linejoin="round" stroke-miterlimit="10" stroke-width="3" d="m43 21.1 1 1.9"/><g class="st1"><path d="M55 32.4c-.3 0-.7-.1-1-.3-5.2-4.4-11.4-1.8-11.4-1.8-.8.3-1.6 0-2-.8-.3-.8 0-1.6.8-2 .3-.1 7.9-3.3 14.6 2.2.6.5.7 1.5.2 2.1-.3.4-.8.6-1.2.6z" class="st2"/></g><g class="st1"><path d="M26 28.4h-4.6c8.8 10.3 15.6 4 15.6 4 0-2.9-5-4-11-4z" class="st2"/></g><g class="st1"><path d="M32.4 36c-3.3 0-6.9-2-10.5-6.1H14c-2.4 0-4.1 1.2-4.1 1.2-.7.5-1.6.3-2.1-.3-.5-.7-.4-1.6.3-2.1.1-.1 2.4-1.8 5.9-1.8h12c10.3 0 12.5 3 12.5 5.5 0 .3-.1.7-.3.9-.1.1-2 2.5-5.5 2.7h-.3zm-6.3-6.1c2.3 2.1 4.5 3.1 6.5 3.1 1.3-.1 2.3-.6 2.8-1-.7-1.1-3.7-2.1-9.3-2.1z" class="st2"/></g><path d="M42 26s7-3 13 2" class="st8"/><path fill="#e0995e" d="M26 25.5h-4.6c8.8 10.3 15.6 4 15.6 4 0-2.9-5-4-11-4z"/><path d="M9 27s2-1.5 5-1.5h12c6 0 11 1.1 11 4 0 0-5 6.5-14-3.5" class="st8"/><g class="st1"><path d="M47 40.5c-.5 0-1-.3-1.3-.8L36.1 22H32c-.8 0-1.5-.7-1.5-1.5S31.2 19 32 19h5c.6 0 1.1.3 1.3.8l10 18.5c.4.7.1 1.6-.6 2-.2.1-.5.2-.7.2z" class="st2"/></g><path d="M32 18.5h5L47 37" class="st6"/></svg>