<svg xmlns="http://www.w3.org/2000/svg" xml:space="preserve" viewBox="0 0 64 64"><circle cx="32" cy="32" r="32" fill="#76c2af"/><path fill="#231f20" d="M13.9 49.4c1.6 2.1 4.9 2.2 7.4.3 1-.8 2.8-2.9 2.8-7.2V29.2l19-3.6V34c0 3-2.4 3.7-3.2 3.8H39.6c-1 .2-1.9.6-2.8 1.2-2.5 1.9-3.2 5.1-1.6 7.2 1.6 2.1 4.9 2.2 7.4.3 1.3-1 2.5-2.8 2.5-5.7V18.5c0-1.2-1-1.8-2.1-1.5l-19.2 3.6c-1.3.4-1.8 1.7-1.8 2.8v13c0 3-2.7 4.4-3.5 4.5H18.2c-.9.2-1.9.6-2.7 1.2-2.5 2-3.2 5.2-1.6 7.3z" opacity=".2"/><path fill="#fff" d="M13.9 47.4c1.6 2.1 4.9 2.2 7.4.3 1-.8 2.8-2.9 2.8-7.2V27.2l19-3.6V32c0 3-2.4 3.7-3.2 3.8H39.6c-1 .2-1.9.6-2.8 1.2-2.5 1.9-3.2 5.1-1.6 7.2 1.6 2.1 4.9 2.2 7.4.3 1.3-1 2.5-2.8 2.5-5.7V16.5c0-1.2-1-1.8-2.1-1.5l-19.2 3.6c-1.3.4-1.8 1.7-1.8 2.8v13c0 3-2.7 4.4-3.5 4.5H18.2c-.9.2-1.9.6-2.7 1.2-2.5 2-3.2 5.2-1.6 7.3z"/></svg>