<svg xmlns="http://www.w3.org/2000/svg" xml:space="preserve" viewBox="0 0 64 64"><style>.st1{opacity:.2}.st2{fill:#231f20}.st3{fill:#e0e0d1}.st4{fill:#4f5d73}</style><g id="Layer_1"><circle cx="32" cy="32" r="32" fill="#c75c5c"/><g class="st1"><path d="M52 50c0 2.2-1.8 4-4 4H16c-2.2 0-4-1.8-4-4V22c0-2.2 1.8-4 4-4h32c2.2 0 4 1.8 4 4v28z" class="st2"/></g><path d="M52 48c0 2.2-1.8 4-4 4H16c-2.2 0-4-1.8-4-4V20c0-2.2 1.8-4 4-4h32c2.2 0 4 1.8 4 4v28z" class="st3"/><g class="st1"><path d="M52 46c0 2.2-1.8 4-4 4H16c-2.2 0-4-1.8-4-4V18c0-2.2 1.8-4 4-4h32c2.2 0 4 1.8 4 4v28z" class="st2"/></g><path d="M52 44c0 2.2-1.8 4-4 4H16c-2.2 0-4-1.8-4-4V16c0-2.2 1.8-4 4-4h32c2.2 0 4 1.8 4 4v28z" class="st3"/><path d="M16 24h12v12H16zM36 27h12v1H36zM36 25h12v1H36zM32 24h3v4h-3zM32 30h16v1H32zM32 32h16v1H32zM32 34h16v1H32zM32 36h16v1H32zM35.9 39H48v1H35.9zM16 39h12v1H16zM16 41h12v1H16zM16 43h12v1H16zM16 45h12v1H16zM32 41h16v1H32zM32 43h16v1H32zM32 45h16v1H32z" class="st4"/><circle cx="24" cy="28" r="2" class="st3"/><path d="M16 16h32v4H16z" class="st4"/><path d="M27 35v-2.4l-.8-.8c-.5-.5-1.3-.5-1.8 0l-.8.8-1.9-1.9c-1-1-2.6-1-3.5 0L17 31.9V35h10z" class="st3"/></g></svg>