<svg xmlns="http://www.w3.org/2000/svg" xml:space="preserve" id="Layer_1" x="0" y="0" version="1.1" viewBox="0 0 64 64"><style>.st3{fill:#c75c5c}</style><circle cx="32" cy="32" r="32" fill="#e0e0d1"/><path fill="#231f20" d="M52 17H20c-1.1 0-2 .9-2 2v2h-4c-2.2 0-4 1.8-4 4v7c0 2.2 1.8 4 4 4h18v19c0 1.1.9 2 2 2s2-.9 2-2V36c0-2.2-1.8-4-4-4H14v-7h4v2c0 1.1.9 2 2 2h17.5c.8 0 1.5.7 1.5 1.5s.7 1.5 1.5 1.5 1.5-.7 1.5-1.5.7-1.5 1.5-1.5 1.5.7 1.5 1.5v3c0 .8.7 1.5 1.5 1.5s1.5-.7 1.5-1.5v-3c0-.8.7-1.5 1.5-1.5s1.5.7 1.5 1.5v1c0 .8.7 1.5 1.5 1.5s1.5-.7 1.5-1.5V19c0-1.1-.9-2-2-2z" opacity=".2"/><path fill="none" stroke="#4f5d73" stroke-linecap="round" stroke-miterlimit="10" stroke-width="4" d="M34 53V34c0-1.1-.9-2-2-2H14c-1.1 0-2-.9-2-2v-7c0-1.1.9-2 2-2h18"/><path d="M54 29.5c0 .8-.7 1.5-1.5 1.5s-1.5-.7-1.5-1.5v-6c0-.8.7-1.5 1.5-1.5s1.5.7 1.5 1.5v6zM48 31.5c0 .8-.7 1.5-1.5 1.5s-1.5-.7-1.5-1.5v-6c0-.8.7-1.5 1.5-1.5s1.5.7 1.5 1.5v6zM51 24c0 .8-.7 1.5-1.5 1.5v.5c-.8 0-1.5-1.2-1.5-2v4.5c0-.8.7-1.5 1.5-1.5s1.5.7 1.5 1.5V24zM42 28.5c0 .8-.7 1.5-1.5 1.5s-1.5-.7-1.5-1.5v-6c0-.8.7-1.5 1.5-1.5s1.5.7 1.5 1.5v6zM45 24c0 .8-.7 1.5-1.5 1.5v.5c-.8 0-1.5-1.2-1.5-2v4.5c0-.8.7-1.5 1.5-1.5s1.5.7 1.5 1.5V24zM39 24c0 .8-.7 1.5-1.5 1.5v.5c-.8 0-1.5-1.2-1.5-2v2c0-.8.7 1 1.5 1s1.5.7 1.5 1.5V24z" class="st3"/><path fill="#e0995e" d="M54 17c0-1.1-.9-2-2-2H20c-1.1 0-2 .9-2 2v4h36v-4z"/><path d="M18 17v8c0 1.1.9 2 2 2h32c1.1 0 2-.9 2-2v-4l-36-4z" class="st3"/></svg>