<svg xmlns="http://www.w3.org/2000/svg" xml:space="preserve" id="Layer_1" x="0" y="0" version="1.1" viewBox="0 0 64 64"><style>.st1{opacity:.2;fill:#231f20}</style><circle cx="32" cy="32" r="32" fill="#76c2af"/><path d="M48 50c0 1.1-.9 2-2 2H18c-1.1 0-2-.9-2-2V16c0-1.1.9-2 2-2h28c1.1 0 2 .9 2 2v34z" class="st1"/><path fill="#e0e0d1" d="M48 48c0 1.1-.9 2-2 2H18c-1.1 0-2-.9-2-2V14c0-1.1.9-2 2-2h28c1.1 0 2 .9 2 2v34z"/><path d="M46 14H18c-1.1 0-2 .9-2 2v6c0 1.1 0 0 0 0l15.5 2c.4 0 1.5.4 1.5 1.3V27c0 .8.7 1.5 1.5 1.5S36 27.8 36 27s.7-1.5 1.5-1.5 1.5.7 1.5 1.5v13.5c0 .8.7 1.5 1.5 1.5s1.5-.7 1.5-1.5V30c0-.8.7-1.5 1.5-1.5s1.5.7 1.5 1.5v2.5c0 .8.7 1.5 1.5 1.5s1.5-.7 1.5-1.5V16c0-1.1-.9-2-2-2z" class="st1"/><path fill="#c75c5c" d="M46 12H18c-1.1 0-2 .9-2 2v6c0 1.1 0 0 0 0l15.5 2c.4 0 1.5.4 1.5 1.3V25c0 .8.7 1.5 1.5 1.5S36 25.8 36 25s.7-1.5 1.5-1.5 1.5.7 1.5 1.5v13.5c0 .8.7 1.5 1.5 1.5s1.5-.7 1.5-1.5V28c0-.8.7-1.5 1.5-1.5s1.5.7 1.5 1.5v2.5c0 .8.7 1.5 1.5 1.5s1.5-.7 1.5-1.5V14c0-1.1-.9-2-2-2z"/><path fill="#231f20" d="M32 34c-9.6 0-17.5-7.8-17.5-17.5 0-.6.4-1 1-1s1 .4 1 1C16.5 25 23.5 32 32 32s15.5-7 15.5-15.5c0-.6.4-1 1-1s1 .4 1 1C49.5 26.2 41.6 34 32 34z" opacity=".2"/><path fill="none" stroke="#4f5d73" stroke-linecap="round" stroke-miterlimit="10" stroke-width="2" d="M48.5 14.5C48.5 23.6 41.1 31 32 31s-16.5-7.4-16.5-16.5"/></svg>