<svg xmlns="http://www.w3.org/2000/svg" xml:space="preserve" id="Layer_1" x="0" y="0" version="1.1" viewBox="0 0 64 64"><style>.st3{fill:#c75c5c}</style><circle cx="32" cy="32" r="32" fill="#e0e0d1"/><path fill="#231f20" d="M49.9 16.1c-1.9-1.9-13 6-19.9 12.9-3.4 3.4-5.1 5.8-5.7 7.7-2.1-.2-4.4.6-5.9 2.1-1 1-1.5 2-1.9 3.2-.8 2.2-1.5 5-4.5 7 2.2 2.2 11 2.9 15.2-1.4.4-.4.8-1 1.1-1.5.7-1.3 1.1-2.9.9-4.4 1.9-.6 4.3-2.3 7.7-5.7 6.9-6.8 14.9-17.9 13-19.9z" opacity=".2"/><path fill="#e0995e" d="M30 27c-6.8 6.8-6.8 9.9-4.9 11.9 1.9 1.9 5 2 11.9-4.9 6.8-6.8 14.8-17.9 12.9-19.9S36.8 20.2 30 27z"/><path d="M12 47c2.2 2.2 11 2.9 15.2-1.4.4-.4.8-1 1.1-1.5-6.6-.2-10.1-2.4-11.9-4.1-.7 2.2-1.4 5-4.4 7z" class="st3"/><path fill="#4f5d73" d="M27.8 36.2c-2.4-2.4-6.9-1.9-9.4.5-1 1-1.5 2-1.9 3.2 1.7 1.7 5.1 6.9 11.9 4.1 1.4-2.4 1.3-5.8-.6-7.8z"/><path d="M16.5 40s4-.8 5.9 2.1c1.9 2.8 5.9 2 5.9 2L23.2 47 18 43.2 16.5 40z" class="st3"/></svg>