<svg xmlns="http://www.w3.org/2000/svg" xml:space="preserve" id="Layer_1" x="0" y="0" version="1.1" viewBox="0 0 64 64"><style>.st2{fill:#c75c5c}.st4{fill:#4f5d73}.st5{opacity:.2}.st6{fill:#231f20}</style><circle cx="32" cy="32" r="32" fill="#77b3d4"/><path fill="#231f20" d="M32 55.1c-.4 0-.8-.1-1-.4L8 32l4-2 20 21.5 22.6-20.7c.2.2-.2-2 0-1.6.3.6 1.1 2.3 1.4 2.7L33 54.7c-.2.3-.6.4-1 .4z" opacity=".2"/><path d="M32 53.5c-.4 0-.8-.1-1-.4L8 32h4.3L32 50l22.6-20.7c.2.2.4.8.6 1.2.3.6.5 1.1.8 1.6l-23 21c-.2.3-.6.4-1 .4z" class="st4"/><g class="st5"><path d="M46 31c-.1-.5-.7-.8-1-1-.2-.1-1.2 2-1.5 2-.6 0-.6.5-.9 1L32 51.8 21.4 33c-.3-.5.2-3-.4-3-.2 0-.8-1.1-1-1-.3.2-.9-.5-1 0-.1.5-3.2-.4-3 0l14 25.3c1.4-.3 2.8-.3 4.3-.3L47 31c.2-.4-.9.5-1 0z" class="st6"/></g><path d="M32 53.5c-.6 0-1.1-.3-1.3-.8L19 32c-.2-.4.1-1.2.2-1.7s.3-.9.6-1.1c.2-.1.5-.2.7-.2.6 0 .6.5.9 1L32 48.8l10.6-18.7c.3-.5.3-1 .9-1 .2 0 .5.1.7.2.3.2.5.5.6 1.1.1.5.4 1.3.2 1.7L33.3 52.7c-.2.5-.7.8-1.3.8z" class="st4"/><g class="st5"><path d="M45 34h8.8l2.2-2c-1-12.3-11.4-22-24-22 7.2 0 13 10.7 13 24zM32 10C19.6 10 9.2 19.9 8 32l2.2 2H19c0-13.3 5.8-24 13-24z" class="st6"/><path d="M19 34h26c0-13.3-5.8-24-13-24S19 20.7 19 34z" class="st6"/></g><path d="M45 32h11C56 18.7 45.3 8 32 8c7.2 0 13 10.7 13 24zM32 8C18.7 8 8 18.7 8 32h11c0-13.3 5.8-24 13-24z" class="st2"/><path fill="#fff" d="M19 32h26c0-13.3-5.8-24-13-24S19 18.7 19 32z"/><g class="st5"><circle cx="32" cy="54" r="4" class="st6"/></g><circle cx="32" cy="52" r="4" fill="#e0e0d1"/></svg>