<svg xmlns="http://www.w3.org/2000/svg" xml:space="preserve" viewBox="0 0 64 64"><style>.st1{opacity:.2}.st2{fill:#231f20}</style><g id="Layer_1"><circle cx="32" cy="32" r="32" fill="#e0e0d1"/><g class="st1"><path d="M55 31c0-11-9-20-20-20v20h20z" class="st2"/></g><path fill="#4f5d73" d="M55 29c0-11-9-20-20-20v20h20z"/><g class="st1"><path d="M31 13C18.8 13 9 22.8 9 35s9.8 22 22 22c5.7 0 10.9-2.2 14.8-5.7L31 35V13z" class="st2"/></g><path fill="#76c2af" d="M31 11C18.8 11 9 20.8 9 33s9.8 22 22 22c5.7 0 10.9-2.2 14.8-5.7L31 33V11z"/><g class="st1"><path d="M53 33H31v2l14.8 16.3c4.4-4 7.2-11.8 7.2-18.3z" class="st2"/></g><path fill="#c75c5c" d="M53 33H31l14.8 16.3c4.4-4 7.2-9.8 7.2-16.3z"/></g></svg>