<svg xmlns="http://www.w3.org/2000/svg" xml:space="preserve" viewBox="0 0 64 64"><style>.st3{fill:#c75c5c}.st4{fill:#4f5d73}</style><g id="Layer_1"><circle cx="32" cy="32" r="32" fill="#e0e0d1"/><path fill="#231f20" d="M39.5 37.2V22.8c2.7-.9 4.5-2.3 4.5-3.9 0-2.8-5.4-4-12-4s-12 1.2-12 4c0 1.6 1.8 3 4.5 3.9v14.3C21.8 38 20 39.4 20 41c0 2.5 4.3 4.5 10 4.9V53l2 4 2-4v-7c5.7-.4 10-2.4 10-4.9 0-1.6-1.8-3-4.5-3.9z" opacity=".2"/><ellipse cx="32" cy="39.1" class="st3" rx="12" ry="5"/><path d="M44 16.9c0 2.8-5.4 5-12 5s-12-2.2-12-5 5.4-4 12-4 12 1.3 12 4z" class="st3"/><path d="M25 20h14v20H25z" class="st3"/><path d="m30 51.1 2 4 2-4v-10h-4z" class="st4"/><ellipse cx="32" cy="41.2" class="st4" rx="2" ry="1.4"/></g></svg>