<svg xmlns="http://www.w3.org/2000/svg" xml:space="preserve" viewBox="0 0 64 64"><style>.st2{fill:#f5cf87}.st4{opacity:.2}.st5{fill:#231f20}.st6{fill:#e0e0d1}</style><g id="Layer_1"><circle cx="32" cy="32" r="32" fill="#4f5d73"/><path fill="#c75c5c" d="M16 36c0 1.1-.9 2-2 2s-2-.9-2-2v-2c0-1.1.9-2 2-2s2 .9 2 2v2z"/><path d="M24 28c0 1.1-.9 2-2 2s-2-.9-2-2v-2c0-1.1.9-2 2-2s2 .9 2 2v2zM44 28c0 1.1-.9 2-2 2s-2-.9-2-2v-2c0-1.1.9-2 2-2s2 .9 2 2v2z" class="st2"/><path fill="#76c2af" d="M48 36c0 1.1.9 2 2 2s2-.9 2-2v-2c0-1.1-.9-2-2-2s-2 .9-2 2v2z"/><g class="st4"><path d="m32 32.6 17 4.8c2.9.9 3-.4 3-2.4v1.2c0-2 .1-3.4-1.8-4.5L32 23l-18.2 8.7C12 32.8 12 34.2 12 36.2V35c0 2 .1 3.3 3 2.4l17-4.8z" class="st5"/></g><path d="m32 30.6 17 4.8c2.9.9 3-.4 3-2.4v1.2c0-2 .1-3.4-1.8-4.5L32 21l-18.2 8.7C12 30.8 12 32.2 12 34.2V33c0 2 .1 3.3 3 2.4l17-4.8zM52 33.4V33v.4zM52 33.5v.7-.7z" class="st6"/><g class="st4"><path d="m32 21-5 2.4.4 8.5 4.6-1.3 4.6 1.3.4-8.5z" class="st5"/></g><path d="M35 43.6c0 1.6-.3 2.9-2 2.9h-2c-1.7 0-2-1.3-2-2.9l-1-26.9c0-1.6 2.3-6.8 4-6.8 1.7 0 4 5.2 4 6.8l-1 26.9z" class="st6"/><g class="st4"><path d="M43 48.8 32 42l-11 6.8c-1.2.9-1 2.3-1 3.9 0 0 .2 1.8 2 1.1L32 50l10 3.9c1.8.7 2-1.1 2-1.1 0-1.7.1-3-1-4z" class="st5"/></g><path d="M43 46.8 32 40l-11 6.8c-1.2.9-1 2.3-1 3.9 0 0 .2 1.8 2 1.1L32 48l10 3.9c1.8.7 2-1.1 2-1.1 0-1.7.1-3-1-4z" class="st6"/><g class="st4"><path d="M34 51c0 1.1-.9 2-2 2s-2-.9-2-2v-5c0-1.1.9-2 2-2s2 .9 2 2v5z" class="st5"/></g><path d="M34 49c0 1.1-.9 2-2 2s-2-.9-2-2v-5c0-1.1.9-2 2-2s2 .9 2 2v5z" class="st6"/><path fill="#77b3d4" d="M32 16c1.2 0 2.2-1.2 2.7-3-.8-1.6-1.9-3-2.7-3s-1.9 1.4-2.7 3c.5 1.8 1.5 3 2.7 3z"/></g></svg>