<svg xmlns="http://www.w3.org/2000/svg" xml:space="preserve" viewBox="0 0 64 64"><circle cx="32" cy="32" r="32" fill="#c75c5c"/><path fill="#231f20" d="M32 16c9.9 0 18 8.1 18 18s-8.1 18-18 18-18-8.1-18-18 8.1-18 18-18m0-4c-12.2 0-22 9.8-22 22s9.8 22 22 22 22-9.8 22-22-9.8-22-22-22z" opacity=".2"/><path fill="#231f20" d="M28 44.6c-.3 0-.7-.1-1-.3-.6-.4-1-1-1-1.7V25.4c0-.7.4-1.4 1-1.7.6-.4 1.4-.4 2 0l12 8.6c.6.4 1 1 1 1.7s-.4 1.4-1 1.7l-12 8.6c-.3.2-.7.3-1 .3z" opacity=".2"/><path fill="#e0e0d1" d="M32 14c9.9 0 18 8.1 18 18s-8.1 18-18 18-18-8.1-18-18 8.1-18 18-18m0-4c-12.2 0-22 9.8-22 22s9.8 22 22 22 22-9.8 22-22-9.8-22-22-22z"/><path fill="#f5cf87" d="M28 42.6c-.3 0-.7-.1-1-.3-.6-.4-1-1-1-1.7V23.4c0-.7.4-1.4 1-1.7.6-.4 1.4-.4 2 0l12 8.6c.6.4 1 1 1 1.7s-.4 1.4-1 1.7l-12 8.6c-.3.2-.7.3-1 .3z"/></svg>