<svg xmlns="http://www.w3.org/2000/svg" xml:space="preserve" id="Layer_1" x="0" y="0" version="1.1" viewBox="0 0 64 64"><style>.st1{opacity:.2;fill:#231f20}.st2{fill:#4f5d73}.st3{fill:#e0e0d1}</style><circle cx="32" cy="32" r="32" fill="#76c2af"/><path d="M18.4 50.4c-.8.8-2 .8-2.8 0-.8-.8-.8-2 0-2.8l9.9-9.9c.8-.8 2-.8 2.8 0 .8.8.8 2 0 2.8l-9.9 9.9zM31.1 26.4c-.8.8-2 .8-2.8 0-.8-.8-.8-2 0-2.8l9.9-9.9c.8-.8 2-.8 2.8 0 .8.8.8 2 0 2.8l-9.9 9.9zM42.5 37.7c-.8.8-2 .8-2.8 0-.8-.8-.8-2 0-2.8l9.9-9.9c.8-.8 2-.8 2.8 0 .8.8.8 2 0 2.8l-9.9 9.9z" class="st1"/><path d="M18.4 48.4c-.8.8-2 .8-2.8 0-.8-.8-.8-2 0-2.8l9.9-9.9c.8-.8 2-.8 2.8 0 .8.8.8 2 0 2.8l-9.9 9.9z" class="st2"/><path d="M31.1 24.4c-.8.8-2 .8-2.8 0-.8-.8-.8-2 0-2.8l9.9-9.9c.8-.8 2-.8 2.8 0 .8.8.8 2 0 2.8l-9.9 9.9zM42.5 35.7c-.8.8-2 .8-2.8 0-.8-.8-.8-2 0-2.8l9.9-9.9c.8-.8 2-.8 2.8 0 .8.8.8 2 0 2.8l-9.9 9.9z" class="st3"/><path d="m27.9 19.3-8 8c-4.3 4.3-4.3 11.3 0 15.6l2.8 2.8C27 50 34 50 38.3 45.7l8-8-18.4-18.4z" class="st1"/><path d="m27.9 17.7-8 8c-4.3 4.3-4.3 11.3 0 15.6l2.8 2.8c4.3 4.3 11.3 4.3 15.6 0l8-8-18.4-18.4z" class="st2"/><path d="M48.1 40.4c-.8.8-2 .8-2.8 0L25.5 20.6c-.8-.8-.8-2 0-2.8.8-.8 2-.8 2.8 0l19.8 19.8c.8.8.8 2 0 2.8z" class="st1"/><path d="M48.1 38.5c-.8.8-2 .8-2.8 0L25.5 18.7c-.8-.8-.8-2 0-2.8.8-.8 2-.8 2.8 0l19.8 19.8c.8.8.8 2 0 2.8z" class="st2"/></svg>