<svg xmlns="http://www.w3.org/2000/svg" xml:space="preserve" id="Layer_1" x="0" y="0" version="1.1" viewBox="0 0 64 64"><style>.st1{opacity:.2}.st2{fill:#231f20}</style><circle cx="32" cy="32" r="32" fill="#c75c5c"/><g class="st1"><path d="m52.2 22-24.3-4.3c-1-.2-1.9.5-2 1.4L21 46.9c-.2 1 .5 1.9 1.4 2l24.3 4.3c1 .2 1.9-.5 2-1.4L53.6 24c.2-.9-.4-1.8-1.4-2zm-23.9-1.5 22.6 4L47 46.2l-22.6-4 3.9-21.7z" class="st2"/></g><path fill="#e0e0d1" d="M52.5 20.3 28.2 16c-1-.2-1.9.5-2 1.4l-4.9 27.8c-.2 1 .5 1.9 1.4 2L47 51.5c1 .2 1.9-.5 2-1.4l5-27.8c.1-.9-.5-1.8-1.5-2zm-23.9-1.6 22.6 4-3.9 21.7-22.6-4 3.9-21.7z"/><path fill="#4f5d73" d="m28.60099 18.75355 22.54505 4.00979-3.8522 21.659-22.54505-4.00979z"/><g class="st1"><path d="m37.6 15-24.2 4.8c-1 .2-1.6 1.1-1.4 2.1l5.5 27.7c.2 1 1.1 1.6 2.1 1.4l24.2-4.8c1-.2 1.6-1.1 1.4-2.1l-5.5-27.7c-.2-1-1.1-1.6-2.1-1.4zm-22.8 7.2 22.5-4.5 4.3 21.6-22.5 4.5-4.3-21.6z" class="st2"/></g><path fill="#fff" d="m36.1 13-24.2 4.8c-1 .2-1.6 1.1-1.4 2.1L16 47.6c.2 1 1.1 1.6 2.1 1.4l24.2-4.8c1-.2 1.6-1.1 1.4-2.1l-5.5-27.7c-.3-.9-1.2-1.6-2.1-1.4zm-22.9 7.3 22.5-4.5L40 37.4l-22.5 4.5-4.3-21.6z"/><path fill="#77b3d4" d="m13.27188 20.22922 22.46261-4.45405 4.279 21.5798-22.46261 4.45405z"/></svg>