<svg xmlns="http://www.w3.org/2000/svg" xml:space="preserve" id="Layer_1" x="0" y="0" version="1.1" viewBox="0 0 64 64"><style>.st1{fill:#e0e0d1}.st3{opacity:.2;fill:#231f20}.st5{fill:#4f5d73}</style><circle cx="32" cy="32" r="32" fill="#e0995e"/><path d="M48 38c0 1.1-.9 2-2 2H18c-1.1 0-2-.9-2-2V16.1c0-1.1.9-2 2-2h28c1.1 0 2 .9 2 2V38z" class="st1"/><path fill="#fff" d="m14 40 2-3h32l2 3z"/><circle cx="32" cy="29" r="8" class="st3"/><path fill="#77b3d4" d="M32 33.5c-3.6 0-6.5-2.9-6.5-6.5s2.9-6.5 6.5-6.5 6.5 2.9 6.5 6.5-2.9 6.5-6.5 6.5z"/><path d="M32 22c2.8 0 5 2.2 5 5s-2.2 5-5 5-5-2.2-5-5 2.2-5 5-5m0-3c-4.4 0-8 3.6-8 8s3.6 8 8 8 8-3.6 8-8-3.6-8-8-8z" class="st5"/><circle cx="20.5" cy="34.5" r="2.5" class="st3"/><circle cx="20.5" cy="32.5" r="2.5" fill="#c75c5c"/><path d="M14 40h36v2H14z" class="st1"/><path d="M40 22c0 1.1.9 2 2 2h4c1.1 0 2-.9 2-2v-4c0-1.1-.9-2-2-2h-4c-1.1 0-2 .9-2 2v4z" class="st3"/><path d="M40 20c0 1.1.9 2 2 2h4c1.1 0 2-.9 2-2v-4c0-1.1-.9-2-2-2h-4c-1.1 0-2 .9-2 2v4z" class="st5"/><path fill="#231f20" d="M14 46c0 3.3 2.7 6 6 6h24c3.3 0 6-2.7 6-6v-2H14v2z" opacity=".2"/><path d="M14 44c0 3.3 2.7 6 6 6h24c3.3 0 6-2.7 6-6v-2H14v2z" class="st5"/></svg>