<svg xmlns="http://www.w3.org/2000/svg" xml:space="preserve" viewBox="0 0 64 64"><style>.st1{opacity:.2}.st2{fill:#231f20}.st4{fill:#f5cf87}</style><g id="Layer_1"><circle cx="32" cy="32" r="32" fill="#76c2af"/><g class="st1"><path d="M52 50c0 2.2-1.8 4-4 4H16c-2.2 0-4-1.8-4-4V18c0-2.2 1.8-4 4-4h32c2.2 0 4 1.8 4 4v32z" class="st2"/></g><path fill="#c75c5c" d="M52 48c0 2.2-1.8 4-4 4H16c-2.2 0-4-1.8-4-4V16c0-2.2 1.8-4 4-4h32c2.2 0 4 1.8 4 4v32z"/><g class="st1"><path d="M24 14h4v40h-4z" class="st2"/></g><g class="st1"><path d="M12 30h40v4H12z" class="st2"/></g><path d="M24 12h4v40h-4z" class="st4"/><path d="M12 28h40v4H12z" class="st4"/><g class="st1"><path d="M36 22c-1.3-1.3-2.9-1.9-4.5-1.9s-3.3.6-4.5 1.9c-1.8 1.8-2 4.5-1.9 7.5-.6-.3-4.9-2.4-5.3-6.2-.1-.8-.8-1.4-1.7-1.3-.8.1-1.4.8-1.3 1.7.4 3.6 2.9 5.9 4.8 7.3-2.2.1-4.2.5-5.7 1.9-2.5 2.5-2.5 6.6 0 9.1 1.3 1.3 2.9 1.9 4.5 1.9s3.3-.6 4.5-1.9c1.7-1.7 2-4.2 2-7 .1.1.2.2.4.3 0 0 4.6 2.7 4.6 6.8 0 .8.7 1.5 1.5 1.5s1.5-.7 1.5-1.5c0-4.9-4-8-5.6-9 2.7 0 5-.3 6.7-2 2.5-2.5 2.5-6.6 0-9.1zM22.8 39.9c-.6.6-1.5 1-2.4 1-.9 0-1.8-.4-2.4-1-1.3-1.3-1.3-3.5 0-4.8.8-.8 2.1-1.1 4.7-1.1h1.2c.1 2.6 0 4.8-1.1 5.9zM33.9 29c-.8.8-2.1 1.1-4.7 1.1H28c-.1-2.6 0-4.8 1.1-5.9.6-.6 1.5-1 2.4-1s1.8.4 2.4 1c1.3 1.3 1.3 3.5 0 4.8z" class="st2"/></g><path d="M31.5 21.2c.9 0 1.8.4 2.4 1 1.3 1.3 1.3 3.5 0 4.8-.8.8-2.1 1.1-4.7 1.1H28c-.1-2.6 0-4.8 1.1-5.9.6-.7 1.5-1 2.4-1m0-3c-1.6 0-3.3.6-4.5 1.9-2.5 2.5-1.9 6.7-1.9 11 1.4 0 2.8.1 4.2.1 2.7 0 5.1-.3 6.8-2 2.5-2.5 2.5-6.6 0-9.1-1.3-1.3-3-1.9-4.6-1.9z" class="st4"/><path d="M22.7 32h1.2c.1 2.6 0 4.8-1.1 5.9-.6.6-1.5 1-2.4 1s-1.8-.4-2.4-1c-1.3-1.3-1.3-3.5 0-4.8.8-.8 2.1-1.1 4.7-1.1m0-3c-2.7 0-5.1.3-6.8 2-2.5 2.5-2.5 6.6 0 9.1 1.3 1.3 2.9 1.9 4.5 1.9s3.3-.6 4.5-1.9c2.5-2.5 1.9-6.7 1.9-11-1.4 0-2.8-.1-4.1-.1z" class="st4"/><path d="M33.4 41.6c-.8 0-1.5-.7-1.5-1.5 0-4.1-4.6-6.7-4.6-6.8-.7-.4-1-1.3-.6-2s1.3-1 2-.6c.3.1 6.2 3.5 6.2 9.4 0 .8-.7 1.5-1.5 1.5zM24.5 30.5c-.2 0-.4 0-.6-.1-.3-.1-6.5-2.8-7.2-8.7-.1-.8.5-1.6 1.3-1.7.8-.1 1.6.5 1.7 1.3.5 4.1 5.3 6.2 5.4 6.2.8.3 1.1 1.2.8 2-.3.7-.8 1-1.4 1z" class="st4"/></g></svg>