<svg xmlns="http://www.w3.org/2000/svg" xml:space="preserve" viewBox="0 0 64 64"><circle cx="32" cy="32" r="32" fill="#e0e0d1"/><path fill="#231f20" d="M46 32.7c-.2 3.5-1.8 8.8-8.3 13.9-.3.2-.7.4-1 .4-.5 0-1-.2-1.3-.7-.6-.8-.4-1.8.3-2.4 5.3-4.2 6.7-8.3 7-11.1-.7.4-1.6.7-2.5.7-2.8 0-5.1-2.4-5.1-5.3s2.3-5.3 5.1-5.3c.6 0 1.2.2 1.8.4l.6.3h.1c.2.1.5.3.8.6l.4.4c1 1.3 2.4 3.6 2.1 8.1zm-22.8.9c-2.8 0-5.1-2.4-5.1-5.3s2.3-5.3 5.1-5.3c.6 0 1.2.2 1.8.4l.6.3h.1c.2.1.5.3.8.6l.4.4c1.3 1.2 2.7 3.6 2.3 8.1-.2 3.5-1.8 8.8-8.3 13.9-.3.2-.7.4-1 .4-.5 0-1-.2-1.3-.7-.6-.8-.4-1.8.3-2.4 5.3-4.2 6.7-8.3 7-11.1-1 .4-1.8.7-2.7.7z" opacity=".2"/><path fill="#4f5d73" d="M46 30.7c-.2 3.5-1.8 8.8-8.3 13.9-.3.2-.7.4-1 .4-.5 0-1-.2-1.3-.7-.6-.8-.4-1.8.3-2.4 5.3-4.2 6.7-8.3 7-11.1-.7.4-1.6.7-2.5.7-2.8 0-5.1-2.4-5.1-5.3s2.3-5.3 5.1-5.3c.6 0 1.2.2 1.8.4l.6.3h.1c.2.1.5.3.8.6l.4.4c1 1.3 2.4 3.6 2.1 8.1zm-22.8.9c-2.8 0-5.1-2.4-5.1-5.3s2.3-5.3 5.1-5.3c.6 0 1.2.2 1.8.4l.6.3h.1c.2.1.5.3.8.6l.4.4c1.3 1.2 2.7 3.6 2.3 8.1-.2 3.5-1.8 8.8-8.3 13.9-.3.2-.7.4-1 .4-.5 0-1-.2-1.3-.7-.6-.8-.4-1.8.3-2.4 5.3-4.2 6.7-8.3 7-11.1-1 .4-1.8.7-2.7.7z"/></svg>