<svg xmlns="http://www.w3.org/2000/svg" xml:space="preserve" id="Layer_1" x="0" y="0" version="1.1" viewBox="0 0 64 64"><style>.st2{opacity:.2}.st3{fill:#231f20}.st4{fill:#fff}.st5{fill:#4f5d73}.st6{fill:none;stroke:#e0e0d1;stroke-width:3;stroke-linecap:round;stroke-linejoin:round;stroke-miterlimit:10}</style><circle cx="32" cy="32" r="32" fill="#c75c5c"/><g class="st2"><path d="m57.7 31.9-5.3-5.3-6.3-6.3c-.4-.4-1.1-.4-1.6 0l-3.9 3.9-3.9 3.9c-.4.4-.4 1.1 0 1.6L43 36l5.3 5.3c.4.4 1.1.4 1.6 0l3.9-3.9 3.9-3.9c.4-.5.4-1.2 0-1.6zM23.4 24.3l-3.9-3.9c-.4-.4-1.1-.4-1.6 0l-6.3 6.3L6.3 32c-.4.4-.8 1.5-.3 1.9l3.9 3.9 3.9 3.9c.4.4 1.1.4 1.6 0L21 36l6.3-6.3c.4-.4.4-1.1 0-1.6l-3.9-3.8z" class="st3"/></g><path d="M47.7 29.3 43 34l5.3 5.3c.4.4 1.1.4 1.6 0l3.9-3.9-6.1-6.1zM52.4 24.6l-6.3-6.3c-.4-.4-1.1-.4-1.6 0l-3.9 3.9 7.1 7.1 4.7-4.7z" class="st4"/><path d="m53.7 35.4 3.9-3.9c.4-.4.4-1.1 0-1.6l-5.3-5.3-4.7 4.7 6.1 6.1z" class="st5"/><path d="m40.6 22.3-3.9 3.9c-.4.4-.4 1.1 0 1.6L43 34l4.7-4.7-7.1-7z" class="st5"/><path d="M16.3 29.3 21 34l-5.6 5.6c-.4.4-1.1.4-1.6 0l-3.9-3.9 6.4-6.4zM11.6 24.6l6.3-6.3c.4-.4 1.1-.4 1.6 0l3.9 3.9-7.1 7.1-4.7-4.7z" class="st4"/><path d="M9.9 35.7 6 31.8c-.4-.4-.1-1.5.3-1.9l5.3-5.3 4.7 4.7-6.4 6.4zM23.4 22.3l3.9 3.9c.4.4.4 1.1 0 1.6L21 34l-4.7-4.7 7.1-7z" class="st5"/><g class="st2"><path d="M17.6 50.2c-.4 0-.8-.1-1.1-.4-.6-.6-.6-1.5 0-2.1L45 19.2c.6-.6 1.5-.6 2.1 0 .6.6.6 1.5 0 2.1L18.6 49.8c-.3.3-.6.4-1 .4z" class="st3"/></g><path d="M46 18.2 17.6 46.7" class="st6"/><g class="st2"><path d="M46.4 50.2c-.4 0-.8-.1-1.1-.4L16.9 21.3c-.6-.6-.6-1.5 0-2.1.6-.6 1.5-.6 2.1 0l28.5 28.5c.6.6.6 1.5 0 2.1-.3.3-.7.4-1.1.4z" class="st3"/></g><path d="m18 18.2 28.4 28.5" class="st6"/></svg>