<svg xmlns="http://www.w3.org/2000/svg" xml:space="preserve" id="Layer_1" x="0" y="0" version="1.1" viewBox="0 0 64 64"><style>.st1{opacity:.2}.st2,.st4{fill:#231f20}.st4{opacity:.2}.st6{fill:#4f5d73}</style><circle cx="32" cy="32" r="32" fill="#c75c5c"/><g class="st1"><path d="M50 27h-.3l-34-9c-.5-.1-.9-.7-.7-1.2.1-.5.7-.9 1.2-.7l34 9c.5.1.9.7.7 1.2-.1.4-.5.7-.9.7z" class="st2"/></g><path fill="none" stroke="#e0e0d1" stroke-linecap="round" stroke-miterlimit="10" stroke-width="2" d="m50 24-34-9"/><path d="M52 47c0 1.1-.9 2-2 2H14c-1.1 0-2-.9-2-2V27c0-1.1.9-2 2-2h36c1.1 0 2 .9 2 2v20z" class="st4"/><path fill="#f5cf87" d="M52 45c0 1.1-.9 2-2 2H14c-1.1 0-2-.9-2-2V25c0-1.1.9-2 2-2h36c1.1 0 2 .9 2 2v20z"/><circle cx="24" cy="35" r="8" class="st6"/><g class="st1"><path d="M24 29c4.1 0 7.4 3.1 7.9 7 0-.3.1-.7.1-1 0-4.4-3.6-8-8-8s-8 3.6-8 8c0 .3 0 .7.1 1 .5-3.9 3.8-7 7.9-7z" class="st2"/></g><circle cx="36.5" cy="42.5" r="1.5" class="st4"/><circle cx="41.5" cy="42.5" r="1.5" class="st4"/><circle cx="46.5" cy="42.5" r="1.5" class="st4"/><circle cx="36.5" cy="41.5" r="1.5" class="st6"/><circle cx="41.5" cy="41.5" r="1.5" class="st6"/><circle cx="46.5" cy="41.5" r="1.5" class="st6"/><path fill="#fff" d="M48 35c0 1.1-.9 2-2 2h-9c-1.1 0-2-.9-2-2v-5c0-1.1.9-2 2-2h9c1.1 0 2 .9 2 2v5z"/><g class="st1"><path d="M46 28h-9c-1.1 0-2 .9-2 2v2c0-1.1.9-2 2-2h9c1.1 0 2 .9 2 2v-2c0-1.1-.9-2-2-2z" class="st2"/></g></svg>