<svg xmlns="http://www.w3.org/2000/svg" xml:space="preserve" id="Layer_1" x="0" y="0" version="1.1" viewBox="0 0 64 64"><style>.st2{fill:#231f20}.st4{fill:none;stroke:#4f5d73;stroke-width:3;stroke-linecap:round;stroke-miterlimit:10}</style><circle cx="32" cy="32" r="32" fill="#77b3d4"/><g opacity=".2"><circle cx="32" cy="24" r="2.3" class="st2"/><path d="M35.9 30c.3.3.7.4 1.1.4s.8-.1 1.1-.4c1.6-1.6 2.5-3.7 2.5-6s-.9-4.4-2.5-6c-.6-.6-1.5-.6-2.1 0-.6.6-.6 1.5 0 2.1 1 1 1.6 2.4 1.6 3.9s-.6 2.9-1.6 3.9c-.7.6-.7 1.5-.1 2.1z" class="st2"/><path d="M43.7 24c0 2.5-1 4.9-2.8 6.7-.6.6-.6 1.5 0 2.1.3.3.7.4 1.1.4.4 0 .8-.1 1.1-.4 2.4-2.4 3.7-5.5 3.7-8.8s-1.3-6.5-3.7-8.8c-.6-.6-1.5-.6-2.1 0-.6.6-.6 1.5 0 2.1 1.7 1.8 2.7 4.2 2.7 6.7zM26 30c.3.3.7.4 1.1.4s.8-.1 1.1-.4c.6-.6.6-1.5 0-2.1-1-1-1.6-2.4-1.6-3.9s.6-2.9 1.6-3.9c.6-.6.6-1.5 0-2.1-.6-.6-1.5-.6-2.1 0-1.6 1.6-2.5 3.7-2.5 6-.1 2.3.8 4.4 2.4 6z" class="st2"/><path d="M22 33.3c.4 0 .8-.1 1.1-.4.6-.6.6-1.5 0-2.1-1.8-1.8-2.8-4.2-2.8-6.7s1-4.9 2.8-6.7c.6-.6.6-1.5 0-2.1-.6-.6-1.5-.6-2.1 0-2.4 2.4-3.7 5.5-3.7 8.8s1.3 6.5 3.7 8.8c.2.2.6.4 1 .4zM33.4 30c-.2-.6-.8-.9-1.4-.9-.6 0-1.2.4-1.4.9l-10 24.4c-.3.8.1 1.6.8 2 .8.3 1.6-.1 2-.8l3.5-8.6h10.2l3.5 8.6c.2.6.8.9 1.4.9.2 0 .4 0 .6-.1.8-.3 1.1-1.2.8-2L33.4 30zM32 34.5l1.4 3.5h-2.8l1.4-3.5zM28.1 44l1.2-3h5.3l1.2 3h-7.7z" class="st2"/></g><circle cx="32" cy="22" r="2.3" fill="#4f5d73"/><path d="M36.9 17.1c2.7 2.7 2.7 7.2 0 9.9M42 14.2c4.3 4.3 4.3 11.3 0 15.6M27.1 17.1c-2.7 2.7-2.7 7.2 0 9.9M22 14.2c-4.3 4.3-4.3 11.3 0 15.6" class="st4"/><path fill="none" stroke="#4f5d73" stroke-linecap="round" stroke-linejoin="round" stroke-miterlimit="10" stroke-width="3" d="m22 53 10-24.4L42 53"/><path d="M29 37.5h6M27 43.5h10" class="st4"/></svg>