<svg xmlns="http://www.w3.org/2000/svg" xml:space="preserve" viewBox="0 0 64 64"><style>.st1{opacity:.2}.st2{fill:#231f20}.st3{fill:#4f5d73}.st4{fill:#76c2af}</style><g id="Layer_1"><circle cx="32" cy="31.6" r="32" fill="#e0e0d1"/><g class="st1"><path d="M24.3 41H22l2.2-3.9c.8-1.4.3-3.3-1.1-4.1l-6-3.5c-1.4-.8-3.3-.3-4.1 1.1l-3.4 5.9c-.8 1.4-.8 3.8 0 5.2l5.6 9.6c.4.7 1.1 1.4 2 1.9h.1c.8.4 1.6.7 2.4.7h6.8l4-6.8-4-6.2h-2.2z" class="st2"/></g><g class="st1"><path d="m54.4 36.6-3.4-6h-7.9l-3.3 6.5 1.1 1.9 1.2 2h-4.5c-1.7 0-3 1.3-3 3v7c0 1.6 1.3 3 3 3h6.9c1.7 0 3.7-1.2 4.5-2.6l5.6-9.6c.4-.7.6-1.7.6-2.6-.2-1-.4-1.9-.8-2.6z" class="st2"/></g><g class="st1"><path d="m38.3 28.7 6-3.5c1.4-.8 1.9-2.7 1.1-4.1L42 15.2c-.8-1.4-2.8-2.6-4.5-2.6H26.4c-.8 0-1.8.3-2.6.8 0 0-.1 0-.1.1-.8.5-1.4 1.1-1.8 1.8l-3.5 6 4 6.9h7.3l2.2-4.2 2.2 3.9c1 1.2 2.8 1.6 4.2.8z" class="st2"/></g><path d="m22 39-5 8.7s-.8 1.3-.7 2.4c0 .5.2.9.8 1.2.8.5 1.7.7 2.5.7h6.8l4-6.8-4-6.2H22z" class="st3"/><path d="M16.4 50c-.1-1.1.7-2.4.7-2.4l5-8.7 2.2-3.9c.8-1.4.3-3.3-1.1-4.1l-6-3.5c-1.4-.8-3.3-.3-4.1 1.1l-3.4 5.9c-.8 1.4-.8 3.8 0 5.2l5.6 9.6c.4.7 1.1 1.4 2 1.9-.7-.1-.9-.6-.9-1.1z" class="st4"/><g class="st1"><path d="m22 39-5 8.7s-.8 1.3-.7 2.4c0 .5.2.9.8 1.2h.1L24.3 39H22z" class="st2"/></g><path d="M42 39h10s1.5 0 2.4-.6c.4-.3.7-.7.7-1.3 0-.9-.2-1.9-.6-2.6l-3.4-6h-7.9L39.9 35l2.1 4z" class="st3"/><path d="M54.4 38.4c-.9.6-2.4.6-2.4.6H37.5c-1.7 0-3 1.3-3 3v7c0 1.6 1.3 3 3 3h6.9c1.7 0 3.7-1.2 4.5-2.6l5.6-9.6c.4-.7.6-1.7.6-2.6 0 .5-.3.9-.7 1.2z" class="st4"/><g class="st1"><path d="M42 39h10s1.5 0 2.4-.6c.4-.3.7-.7.7-1.3V37H40.9l1.1 2z" class="st2"/></g><path d="m32 21.8-5-8.7s-.7-1.3-1.7-1.8c-.4-.2-.9-.3-1.4.1-.8.5-1.5 1.1-1.9 1.8l-3.5 6 4 6.9h7.3l2.2-4.3z" class="st3"/><path d="M25.3 11.3c1 .5 1.7 1.8 1.7 1.8l5 8.7 2.2 3.9c.8 1.4 2.7 1.9 4.1 1.1l6-3.5c1.4-.8 1.9-2.7 1.1-4.1L42 13.3c-.8-1.4-2.8-2.6-4.5-2.6H26.4c-.8 0-1.8.3-2.6.8.5-.5 1-.4 1.5-.2z" class="st4"/><g class="st1"><path d="m32 21.8-5-8.7s-.7-1.3-1.7-1.8c-.4-.2-.9-.3-1.4.1 0 0-.1 0-.1.1l7.1 12.3 1.1-2z" class="st2"/></g></g></svg>