<svg xmlns="http://www.w3.org/2000/svg" xml:space="preserve" id="Layer_1" x="0" y="0" version="1.1" viewBox="0 0 64 64"><style>.st1{opacity:.2}.st2,.st5{fill:#231f20}.st5{opacity:.2}</style><circle cx="32" cy="32" r="32" fill="#4f5d73"/><g class="st1"><path d="m34 31.2-2.6 1.6c1.5 1.8 2.4 4.1 2.4 6.6 0 5.6-4.6 10.2-10.2 10.2S13.4 45 13.4 39.4c0-3.1 1.4-6 3.8-7.9.6-.5.7-1.5.2-2.1-.5-.6-1.5-.7-2.1-.2-3.1 2.5-4.9 6.2-4.9 10.2 0 7.3 5.9 13.2 13.2 13.2s13.2-5.9 13.2-13.2c0-3.1-1-5.9-2.8-8.2z" class="st2"/></g><path fill="none" stroke="#76c2af" stroke-linecap="round" stroke-miterlimit="10" stroke-width="3" d="M26.3 25.2c5.1 1.2 9 5.8 9 11.4 0 6.4-5.2 11.7-11.7 11.7S11.9 43 11.9 36.6c0-3.7 1.7-6.9 4.3-9.1"/><g class="st1"><path d="M32 38.3c-7.3 0-13.2-5.9-13.2-13.2C18.8 17.9 24.7 12 32 12c6.1 0 11.6 4.3 12.9 10.3.2.8-.3 1.6-1.1 1.8-.8.2-1.6-.3-1.8-1.1-1-4.6-5.2-8-9.9-8-5.6 0-10.2 4.6-10.2 10.2s4.6 10.2 10.2 10.2c3 0 5.8-1.3 7.7-3.5.5-.6 1.5-.7 2.1-.2.6.5.7 1.5.2 2.1-2.7 2.9-6.3 4.5-10.1 4.5z" class="st2"/></g><path fill="none" stroke="#c75c5c" stroke-linecap="round" stroke-miterlimit="10" stroke-width="3" d="M40.8 30.1c-2.1 2.5-5.3 4-8.8 4-6.4 0-11.7-5.2-11.7-11.7S25.5 10.7 32 10.7c5.6 0 10.3 3.9 11.4 9.2"/><path d="M27.2 39.3c0 1.2.2 2.4.5 3.6.2.8 1.1 1.3 1.9 1 .8-.2 1.3-1.1 1-1.9-.3-.9-.4-1.8-.4-2.8 0-2.5.9-4.8 2.5-6.6l-2.4-1.8c-2 2.4-3.1 5.3-3.1 8.5z" class="st5"/><g class="st1"><path d="M40.3 26.2c-4.1 0-7.7 1.9-10.1 4.8l2.4 1.8c1.9-2.2 4.6-3.6 7.7-3.6 5.6 0 10.2 4.6 10.2 10.2s-4.6 10.2-10.2 10.2c-1.4 0-2.7-.3-4-.8-.8-.3-1.6 0-2 .8-.3.8 0 1.6.8 2 1.6.7 3.4 1.1 5.2 1.1 7.3 0 13.2-5.9 13.2-13.2s-5.9-13.3-13.2-13.3z" class="st2"/></g><path fill="#77b3d4" d="M30.2 36.6c0-1.4-.7-3.3-.2-4.6-.9-.4-.8-.3-1.7-.7-.7 1.7-1.1 3.5-1.1 5.3 0 1.2.2 2.4.5 3.6.2.7.8 1.1 1.4 1.1.1 0 .3 0 .4-.1.8-.2 1.3-1.1 1-1.9-.2-.8-.3-1.8-.3-2.7z"/><path fill="none" stroke="#77b3d4" stroke-linecap="round" stroke-miterlimit="10" stroke-width="3" d="M29.1 39.8c-.3-1-.4-2.1-.4-3.2 0-6.4 5.2-11.7 11.7-11.7S52 30.1 52 36.6s-5.2 11.7-11.7 11.7c-1.6 0-3.2-.3-4.6-.9"/><path d="M31.2 32.6h.5l2.2-1.3c-1.8-2.3-4.3-4-7.3-4.7-.8-.2-1.6.3-1.8 1.1-.2.8.3 1.6 1.1 1.8 2.2.4 3.9 1.5 5.3 3.1z" class="st5"/><path fill="#76c2af" d="M26 26.7c3.2.8 5.7 2.9 6.9 5.8.4-.4.8-.7 1.3-.9.5-.2 1-.3 1.5-.4-1.6-3.7-4.9-6.5-9-7.4-.8-.2-1.6.3-1.8 1.1-.2.8.3 1.6 1.1 1.8z"/></svg>