<svg xmlns="http://www.w3.org/2000/svg" xml:space="preserve" viewBox="0 0 64 64"><style>.st1{opacity:.2}.st2{fill:#231f20}</style><g id="Layer_1"><circle cx="32" cy="32" r="32" fill="#4f5d73"/><g class="st1"><path d="M16 21v31.4c0 1.1.7 2 1.6 2.4.3.1.7.2 1 .2.7 0 1.4-.3 1.9-.8L32 43l11.4 11.2c.5.5 1.2.8 1.9.8.3 0 .7-.1 1-.2 1-.4 1.6-1.4 1.6-2.4V21H16z" class="st2"/></g><path fill="#f5cf87" d="M16 19v31.4c0 1.1.7 2 1.6 2.4.3.1.7.2 1 .2.7 0 1.4-.3 1.9-.8L32 41l11.4 11.2c.5.5 1.2.8 1.9.8.3 0 .7-.1 1-.2 1-.4 1.6-1.4 1.6-2.4V19H16z"/><g class="st1"><path d="M48 21v-2c0-1.1-1.2-2-2.7-2H18.7c-1.5 0-2.7.9-2.7 2v2h32z" class="st2"/></g><path fill="#e0995e" d="M48 19v-5c0-1.1-1.2-2-2.7-2H18.7c-1.5 0-2.7.9-2.7 2v5h32z"/></g></svg>