<svg xmlns="http://www.w3.org/2000/svg" xml:space="preserve" id="Layer_1" x="0" y="0" version="1.1" viewBox="0 0 64 64"><style>.st2{opacity:.2;fill:#231f20}.st3{fill:#e0995e}.st4{fill:#4f5d73}.st5{fill:#f5cf87}</style><circle cx="32" cy="32" r="32" fill="#e0e0d1"/><path d="M20 48c0 1.1-.9 2-2 2s-2-.9-2-2v-8c0-1.1.9-2 2-2s2 .9 2 2v8zM48 48c0 1.1-.9 2-2 2s-2-.9-2-2v-8c0-1.1.9-2 2-2s2 .9 2 2v8z" class="st2"/><path d="M20 46c0 1.1-.9 2-2 2s-2-.9-2-2v-8c0-1.1.9-2 2-2s2 .9 2 2v8zM48 46c0 1.1-.9 2-2 2s-2-.9-2-2v-8c0-1.1.9-2 2-2s2 .9 2 2v8z" class="st3"/><path d="M55.2 23.6c-.7-1-1.9-1.6-3.2-1.6H12c-2.2 0-4 1.8-4 4v12c0 .9.3 1.7.8 2.4.7 1 1.9 1.6 3.2 1.6h40c2.2 0 4-1.8 4-4V26c0-.9-.3-1.7-.8-2.4z" class="st2"/><path d="M12 20c-2.2 0-4 1.8-4 4v12c0 .9.3 1.7.8 2.4L18 20h-6zM30 20 20 40h14l10-20z" class="st4"/><path d="M18 20 8.8 38.4c.7 1 1.9 1.6 3.2 1.6h8l10-20H18z" class="st5"/><path d="M46 40h6c2.2 0 4-1.8 4-4V24c0-.9-.3-1.7-.8-2.4L46 40z" class="st4"/><path d="M52 20h-8L34 40h12l9.2-18.4c-.7-1-1.9-1.6-3.2-1.6z" class="st5"/></svg>