<svg xmlns="http://www.w3.org/2000/svg" xml:space="preserve" viewBox="0 0 64 64"><style>.st0{fill:#4f5d73}.st1{opacity:.2}.st2{fill:#231f20}.st3{fill:#c75c5c}</style><g id="Layer_1"><circle cx="32" cy="32" r="32" class="st0"/><g class="st1"><path d="M32.1 39.7C30.5 41.2 26 52.2 26 52.2c-.7 1.2.3 2.1 2.6.9l8.1-4.4c4.4-2.4 5.2-3.1 5.2-8l-.8-5.9c-.3-2-1.8-2.4-3.3-.8l-5.7 5.7z" class="st2"/></g><g class="st1"><path d="M27.1 34.7c-1.6 1.6-12.5 6.1-12.5 6.1-1.2.7-2.1-.3-.9-2.6L18 30c2.4-4.4 3.1-5.2 8-5.2l5.9.8c2 .3 2.4 1.8.8 3.3l-5.6 5.8z" class="st2"/></g><path d="M32.1 37.7C30.5 39.2 26 50.2 26 50.2c-.7 1.2.3 2.1 2.6.9l8.1-4.4c4.4-2.4 5.2-3.1 5.2-8l-.8-5.9c-.3-2-1.8-2.4-3.3-.8l-5.7 5.7zM27.1 32.7c-1.6 1.6-12.5 6.1-12.5 6.1-1.2.7-2.1-.3-.9-2.6L18 28c2.4-4.4 3.1-5.2 8-5.2l5.9.8c2 .3 2.4 1.8.8 3.3l-5.6 5.8z" class="st3"/><g class="st1"><path d="M21.2 39.5c5.1-5.1 9.3-3.5 9.3-3.5s1.5 4.3-3.5 9.3-13.3 8.8-13.9 8.1c-.6-.5 3.1-8.8 8.1-13.9z" class="st2"/></g><path fill="#e0995e" d="M21.2 37.5c5.1-5.1 9.3-3.5 9.3-3.5s1.5 4.3-3.5 9.3-13.3 8.8-13.9 8.1c-.6-.5 3.1-8.8 8.1-13.9z"/><path fill="#f5cf87" d="M25.5 33.3c5.1-5.1 9.3-3.5 9.3-3.5s1.5 4.3-3.5 9.3-13.3 8.8-13.9 8.1c-.7-.6 3-8.8 8.1-13.9z"/><g class="st1"><path d="M43.6 37.1c-7.8 7.8-19.8 5.7-19.8 5.7s-2.1-12 5.7-19.8 19.6-8.6 21.2-7.1c1.5 1.5.7 13.4-7.1 21.2z" class="st2"/></g><path fill="#e0e0d1" d="M43.6 35.1c-7.8 7.8-19.8 5.7-19.8 5.7s-2.1-12 5.7-19.8 19.6-8.6 21.2-7.1c1.5 1.5.7 13.4-7.1 21.2z"/><g class="st1"><path d="M21 47c-.8.8-1.3 1.5-2.1.7s-.1-1.3.7-2.1l9.9-12.7c.8-.8 4.2-1.5 4.9-.7.8.8.1 4.2-.7 4.9L21 47z" class="st2"/></g><path d="M21 45c-.8.8-1.3 1.5-2.1.7s-.1-1.3.7-2.1l9.9-12.7c.8-.8 4.2-1.5 4.9-.7.8.8.1 4.2-.7 4.9L21 45z" class="st3"/><g class="st1"><circle cx="39.6" cy="27.1" r="4" class="st2"/></g><g class="st1"><circle cx="45.3" cy="21.5" r="2" class="st2"/></g><circle cx="39.6" cy="25.1" r="4" class="st0"/><circle cx="45.3" cy="19.5" r="2" class="st0"/></g></svg>