<svg xmlns="http://www.w3.org/2000/svg" xml:space="preserve" id="Layer_1" x="0" y="0" version="1.1" viewBox="0 0 64 64"><style>.st4{fill:#e0995e}</style><circle cx="32" cy="32" r="32" fill="#c75c5c"/><path fill="#231f20" d="M50 48H18c-2.2 0-4-1.8-4-4V20c0-1.5.9-2.9 2.2-3.6 1.4-.7 3-.5 4.2.4l32 24c1.4 1 1.9 2.8 1.4 4.5-.5 1.6-2.1 2.7-3.8 2.7zm-28-8h16L22 28v12z" opacity=".2"/><path fill="#f5cf87" d="M50 46H18c-2.2 0-4-1.8-4-4V18c0-1.5.9-2.9 2.2-3.6 1.4-.7 3-.5 4.2.4l32 24c1.4 1 1.9 2.8 1.4 4.5-.5 1.6-2.1 2.7-3.8 2.7zm-28-8h16L22 26v12z"/><path d="M21 41c-.6 0-1 .4-1 1v4h2v-4c0-.6-.4-1-1-1zM26 43c-.6 0-1 .4-1 1v2h2v-2c0-.6-.4-1-1-1zM31 41c-.6 0-1 .4-1 1v4h2v-4c0-.6-.4-1-1-1zM36 43c-.6 0-1 .4-1 1v2h2v-2c0-.6-.4-1-1-1zM41 41c-.6 0-1 .4-1 1v4h2v-4c0-.6-.4-1-1-1zM47 44c0-.6-.4-1-1-1s-1 .4-1 1v2h2v-2z" class="st4"/></svg>