<svg xmlns="http://www.w3.org/2000/svg" xml:space="preserve" id="Layer_1" x="0" y="0" version="1.1" viewBox="0 0 64 64"><style>.st3{fill:#231f20}</style><circle cx="32" cy="32" r="32" fill="#77b3d4"/><g opacity=".2"><path d="M43 51s-10.2 2-18.9 2-13.2-7.1-13.2-7.1h41.9S51.2 50 43 51z" class="st3"/><path d="M24.1 53.5c-8.9 0-13.4-7-13.6-7.3-.1-.2-.1-.3 0-.5s.3-.3.4-.3h41.9c.2 0 .3.1.4.2s.1.3 0 .5-1.9 4.4-10.2 5.4c0 0-10.2 2-18.9 2zm-12.2-7.1c1.4 1.8 5.5 6.1 12.2 6.1 8.6 0 18.7-2 18.8-2 5.7-.7 8.1-2.9 9-4.1h-40z" class="st3"/></g><path fill="#231f20" d="M28.1 11.5c-.2 0-.4.1-.5.2-.1.2-.1.4 0 .6 6.7 9 3.7 21.6 1.9 26.9V18c0-.2-.2-.5-.4-.5s-.5.1-.5.4c-.1.2-5.8 20.4-14.7 23.7-.2.1-.4.3-.3.6 0 .2.2.4.5.4h35c.3 0 .5-.2.5-.5-.1-26.6-21.3-30.6-21.5-30.6z" opacity=".2"/><path fill="#fff" stroke="#fff" stroke-linejoin="round" stroke-miterlimit="10" d="M43 49s-10.2 2-18.9 2-13.2-7.1-13.2-7.1h41.9S51.2 48 43 49z"/><path fill="#f5cf87" stroke="#f5cf87" stroke-linejoin="round" stroke-miterlimit="10" d="M29 16s-5.8 20.6-15 24h15V16z"/><path fill="#c75c5c" stroke="#c75c5c" stroke-linejoin="round" stroke-miterlimit="10" d="M29 40s8-18-1-30c0 0 21 3.6 21 30H29z"/></svg>