<svg xmlns="http://www.w3.org/2000/svg" xml:space="preserve" id="Layer_1" x="0" y="0" version="1.1" viewBox="0 0 64 64"><style>.st2{fill:#c75c5c}.st3{fill:#f5cf87}.st4{fill:#e0995e}.st5{fill:#e0e0d1;stroke:#4f5d73;stroke-width:2;stroke-miterlimit:10}</style><circle cx="32" cy="32" r="32" fill="#4f5d73"/><circle cx="46" cy="23" r="2" class="st2"/><circle cx="56" cy="33" r="2" class="st2"/><path d="M46 39v4H14c-2.2 0-4-1.8-4-4V24c0-2.2 1.8-4 4-4h30c2.2 0 2 1.8 2 4v15z" class="st3"/><path d="M56 39s.2 4-4 4h-8V30h9c2 0 3 .8 3 3v6z" class="st3"/><path d="M15 24h18v6H15zM37 24h5v6h-5z" class="st4"/><path d="M14 24h5v6h-5z" class="st4"/><circle cx="19" cy="43" r="4" class="st5"/><circle cx="47" cy="43" r="4" class="st5"/></svg>