<svg xmlns="http://www.w3.org/2000/svg" xml:space="preserve" viewBox="0 0 64 64"><style>.st1{opacity:.2}.st2{fill:#231f20}.st3{fill:#e0e0d1}</style><g id="Layer_1"><circle cx="32" cy="32" r="32" fill="#c75c5c"/><g class="st1"><path d="M44 38c-6.2 0-8.2-2.9-8.2-2.9L16 14c0 19.1 19.5 24.1 19.5 30.3 0 1.9.5 3.5 1 4.7 1.2 3 4.1 5.1 7.4 5.1 4.4 0 8-3.6 8-8S48.4 38 44 38zm0 12c-2.2 0-4-1.8-4-4s1.8-4 4-4 4 1.8 4 4-1.8 4-4 4z" class="st2"/></g><path d="M44 36c-6.2 0-8.2-2.9-8.2-2.9L16 12c0 19.1 19.5 24.1 19.5 30.3 0 1.9.5 3.5 1 4.7 1.2 3 4.1 5.1 7.4 5.1 4.4 0 8-3.6 8-8S48.4 36 44 36zm0 12c-2.2 0-4-1.8-4-4s1.8-4 4-4 4 1.8 4 4-1.8 4-4 4z" class="st3"/><g class="st1"><path d="M28.2 35.1S26.2 38 20 38c-4.4 0-8 3.6-8 8s3.6 8 8 8c3.4 0 6.3-2.1 7.4-5.1.6-1.2 1-2.8 1-4.7C28.5 38.1 48 33.1 48 14L28.2 35.1zM20 50c-2.2 0-4-1.8-4-4s1.8-4 4-4 4 1.8 4 4-1.8 4-4 4z" class="st2"/></g><path d="M28.2 33.1S26.2 36 20 36c-4.4 0-8 3.6-8 8s3.6 8 8 8c3.4 0 6.3-2.1 7.4-5.1.6-1.2 1-2.8 1-4.7C28.5 36.1 48 31.1 48 12L28.2 33.1zM20 48c-2.2 0-4-1.8-4-4s1.8-4 4-4 4 1.8 4 4-1.8 4-4 4z" class="st3"/><circle cx="32" cy="33" r="1.5" fill="#4f5d73"/></g></svg>