<svg xmlns="http://www.w3.org/2000/svg" xml:space="preserve" id="Layer_1" x="0" y="0" version="1.1" viewBox="0 0 64 64"><style>.st2{opacity:.2;fill:#231f20}.st3{fill:#4f5d73}.st4{opacity:.2}.st5{fill:#231f20}.st6{fill:#e0995e;stroke:#f5cf87;stroke-width:4;stroke-linecap:round;stroke-linejoin:round;stroke-miterlimit:10}</style><circle cx="32" cy="32" r="32" fill="#c75c5c"/><path d="M19.5 40.6c2 0 3.7 1.7 3.7 3.7S21.5 48 19.5 48s-3.7-1.7-3.7-3.7 1.7-3.7 3.7-3.7m0-4c-4.3 0-7.7 3.5-7.7 7.7s3.5 7.7 7.7 7.7 7.7-3.5 7.7-7.7-3.4-7.7-7.7-7.7zM47.4 40.6c2 0 3.7 1.7 3.7 3.7S49.4 48 47.4 48s-3.7-1.7-3.7-3.7 1.6-3.7 3.7-3.7m0-4c-4.3 0-7.7 3.5-7.7 7.7s3.5 7.7 7.7 7.7 7.7-3.5 7.7-7.7-3.5-7.7-7.7-7.7z" class="st2"/><path d="M19.5 38.6c2 0 3.7 1.7 3.7 3.7S21.5 46 19.5 46s-3.7-1.7-3.7-3.7 1.7-3.7 3.7-3.7m0-4c-4.3 0-7.7 3.5-7.7 7.7s3.5 7.7 7.7 7.7 7.7-3.5 7.7-7.7-3.4-7.7-7.7-7.7zM47.4 38.6c2 0 3.7 1.7 3.7 3.7S49.4 46 47.4 46s-3.7-1.7-3.7-3.7 1.6-3.7 3.7-3.7m0-4c-4.3 0-7.7 3.5-7.7 7.7s3.5 7.7 7.7 7.7 7.7-3.5 7.7-7.7-3.5-7.7-7.7-7.7z" class="st3"/><g class="st4"><path d="M46.9 35.3s6.6.7 8.1 6.7" class="st5"/><path d="M55 44c-.9 0-1.7-.6-1.9-1.5-1.2-4.6-6.4-5.2-6.4-5.2-1.1-.1-1.9-1.1-1.8-2.2.1-1.1 1.1-1.9 2.2-1.8.3 0 7.9.9 9.9 8.2.3 1.1-.4 2.2-1.4 2.4-.3.1-.4.1-.6.1z" class="st5"/></g><g class="st4"><path d="M39.2 42.8c-7.1 0-9.5-7.3-9.8-11.2-.1-1.1.8-2.1 1.9-2.1 1.1-.1 2.1.8 2.1 1.9 0 .3.6 7.5 5.8 7.5 2.6 0 4.7-1.6 5.4-4.1C45.7 30.5 43 23.7 31.9 17h-2.5c-1.1 0-2-.9-2-2s.9-2 2-2h3.1c.4 0 .7.1 1 .3 16.8 10 15.7 19.7 14.9 22.5-1.1 4.1-4.9 7-9.2 7z" class="st5"/></g><g class="st4"><path d="M33.9 44s-1.3-10-11.6-10S9.5 44 9.5 44h28.3l11.4-7.6" class="st5"/><path d="M33.9 46H9.5c-.6 0-1.2-.3-1.6-.8-.4-.5-.5-1.1-.4-1.7 1-4 5.4-11.5 14.8-11.5 8.3 0 12 5.8 13.2 10h1.7l10.9-7.2c.9-.6 2.2-.4 2.8.6.6.9.4 2.2-.6 2.8l-11.4 7.6c-.3.2-.7.3-1.1.3h-3.9V46zm-21.4-4h18.8c-1-2.4-3.4-6-9-6-5.5 0-8.4 3.5-9.8 6z" class="st5"/></g><g class="st4"><path d="M9.5 44s4.6-11 14.9-11S34 44 34 44H9.5z" class="st5"/><path d="M33.9 46H9.5c-.7 0-1.3-.3-1.7-.9-.4-.6-.4-1.3-.2-1.9.3-.5 5.3-12.2 16.8-12.2 3.5 0 6.3 1.1 8.3 3.3 3.6 3.8 3.3 9.6 3.3 9.9-.1 1-1 1.8-2.1 1.8zm-21-4h18.9c-.2-1.5-.7-3.5-2.1-5-1.3-1.3-3-2-5.4-2-5.7 0-9.5 4.1-11.4 7z" class="st5"/></g><g class="st4"><path d="M31.4 33.4h-18c-1.1 0-2-.9-2-2s.9-2 2-2h18c1.1 0 2 .9 2 2s-.9 2-2 2z" class="st5"/></g><path d="M46.9 33.3s6.6.7 8.1 6.7" class="st6"/><path d="M33.9 42s-1.3-10-11.6-10S9.5 42 9.5 42h28.3l11.4-7.6" class="st6"/><path d="M9.5 42s4.6-11 14.9-11S34 42 34 42H9.5z" class="st6"/><path fill="none" stroke="#f5cf87" stroke-linecap="round" stroke-linejoin="round" stroke-miterlimit="10" stroke-width="4" d="M13.4 29.4h18s.6 9.3 7.8 9.3c8.7 0 13.9-13.4-6.7-25.8h-3.1"/></svg>