<svg xmlns="http://www.w3.org/2000/svg" xml:space="preserve" id="Layer_1" x="0" y="0" version="1.1" viewBox="0 0 64 64"><style>.st3{opacity:.2;fill:#231f20}.st4{fill:#4f5d73}</style><circle cx="32" cy="32" r="32" fill="#77b3d4"/><path fill="#231f20" d="M32 56c-12.1 0-22-9.9-22-22 0-2.6.4-5.1 1.3-7.5.4-1 1.5-1.6 2.6-1.2 1 .4 1.6 1.5 1.2 2.6-.7 2-1.1 4-1.1 6.1 0 9.9 8.1 18 18 18s18-8.1 18-18c0-8-5.4-15.2-13.1-17.3-1.1-.3-1.7-1.4-1.4-2.5.3-1.1 1.4-1.7 2.5-1.4 9.4 2.7 16 11.4 16 21.2 0 12.1-9.9 22-22 22z" opacity=".2"/><circle cx="28" cy="15" r="4" class="st3"/><path d="M34.8 31.2c-2.8-2.8-18.6-15-18.6-15-.5-.3-1.2-.3-1.7.2s-.5 1.2-.2 1.7c0 0 13 16.8 14.9 18.7 1.6 1.6 4.1 1.6 5.7 0 1.5-1.5 1.5-4.1-.1-5.6z" class="st3"/><path d="M32 54c-12.1 0-22-9.9-22-22 0-2.6.4-5.1 1.3-7.5.4-1 1.5-1.6 2.6-1.2 1 .4 1.6 1.5 1.2 2.6-.7 2-1.1 4-1.1 6.1 0 9.9 8.1 18 18 18s18-8.1 18-18c0-8-5.4-15.2-13.1-17.3-1.1-.3-1.7-1.4-1.4-2.5.3-1.1 1.4-1.7 2.5-1.4 9.4 2.7 16 11.4 16 21.2 0 12.1-9.9 22-22 22z" class="st4"/><circle cx="28" cy="13" r="4" class="st4"/><path d="M34.8 29.2c-2.8-2.8-18.6-15-18.6-15-.5-.3-1.2-.3-1.7.2s-.5 1.2-.2 1.7c0 0 13 16.8 14.9 18.7 1.6 1.6 4.1 1.6 5.7 0 1.5-1.5 1.5-4.1-.1-5.6z" class="st4"/></svg>