<svg xmlns="http://www.w3.org/2000/svg" xml:space="preserve" viewBox="0 0 64 64"><style>.st1{fill:#4f5d73}.st2{opacity:.2}.st3{fill:#231f20}.st4{fill:#fff}</style><g id="Layer_1"><circle cx="32" cy="32" r="32" fill="#76c2af"/><path d="M32 52c-1.1 0-2-.9-2-2V18c0-1.1.9-2 2-2s2 .9 2 2v32c0 1.1-.9 2-2 2zM46 52c-1.1 0-2-.9-2-2V18c0-1.1.9-2 2-2s2 .9 2 2v32c0 1.1-.9 2-2 2zM18 52c-1.1 0-2-.9-2-2V18c0-1.1.9-2 2-2s2 .9 2 2v32c0 1.1-.9 2-2 2z" class="st1"/><g class="st2"><circle cx="45.9" cy="38" r="4" class="st3"/></g><g class="st2"><circle cx="32" cy="27" r="4" class="st3"/></g><g class="st2"><circle cx="18" cy="44" r="4" class="st3"/></g><circle cx="45.9" cy="36" r="4" class="st4"/><circle cx="32" cy="25" r="4" class="st4"/><circle cx="18" cy="42" r="4" class="st4"/></g></svg>