<svg xmlns="http://www.w3.org/2000/svg" xml:space="preserve" id="Layer_1" x="0" y="0" version="1.1" viewBox="0 0 64 64"><style>.st1{fill:#4f5d73}.st2{opacity:.2}.st3{fill:#231f20}.st4{fill:none;stroke:#e0995e;stroke-width:4;stroke-linecap:round;stroke-miterlimit:10}</style><circle cx="32" cy="32" r="32" class="st1"/><g class="st2"><path d="M32 60c-1.1 0-2-.9-2-2V10c0-1.1.9-2 2-2s2 .9 2 2v48c0 1.1-.9 2-2 2z" class="st3"/><path d="M56 36H8c-1.1 0-2-.9-2-2s.9-2 2-2h48c1.1 0 2 .9 2 2s-.9 2-2 2z" class="st3"/><path d="M49 53c-.5 0-1-.2-1.4-.6l-34-34c-.8-.8-.8-2 0-2.8.8-.8 2-.8 2.8 0l33.9 33.9c.8.8.8 2 0 2.8-.3.5-.8.7-1.3.7z" class="st3"/><path d="M15 53c-.5 0-1-.2-1.4-.6-.8-.8-.8-2 0-2.8l33.9-33.9c.8-.8 2-.8 2.8 0 .8.8.8 2 0 2.8L16.4 52.4c-.3.4-.9.6-1.4.6z" class="st3"/></g><path d="M32 8v48M56 32H8M49 49 15 15M15 49l34-34" class="st4"/><path fill="#231f20" d="M32 18c8.8 0 16 7.2 16 16s-7.2 16-16 16-16-7.2-16-16 7.2-16 16-16m0-4c-11 0-20 9-20 20s9 20 20 20 20-9 20-20-9-20-20-20z" opacity=".2"/><path fill="#f5cf87" d="M32 16c8.8 0 16 7.2 16 16s-7.2 16-16 16-16-7.2-16-16 7.2-16 16-16m0-4c-11 0-20 9-20 20s9 20 20 20 20-9 20-20-9-20-20-20z"/><circle cx="32" cy="32" r="6" class="st1"/><g class="st2"><path d="M32 44c-5.5 0-10-4.5-10-10s4.5-10 10-10 10 4.5 10 10-4.5 10-10 10zm0-16c-3.3 0-6 2.7-6 6s2.7 6 6 6 6-2.7 6-6-2.7-6-6-6z" class="st3"/></g><circle cx="32" cy="32" r="8" fill="none" stroke="#f5cf87" stroke-miterlimit="10" stroke-width="4"/></svg>