<svg xmlns="http://www.w3.org/2000/svg" xml:space="preserve" id="Layer_1" x="0" y="0" version="1.1" viewBox="0 0 64 64"><style>.st2{opacity:.2;fill:#231f20}.st3{fill:#76c2af}</style><circle cx="32" cy="32" r="32" fill="#c75c5c"/><circle cx="20" cy="43.9" r="3" class="st2"/><circle cx="47.3" cy="37.9" r="3" class="st2"/><circle cx="20" cy="41.9" r="3" class="st3"/><circle cx="47.3" cy="35.9" r="3" class="st3"/><path fill="#231f20" d="M16.2 40c-4 0-7.8-2.3-8.3-2.7-.9-.6-1.2-1.8-.6-2.8.6-.9 1.8-1.2 2.8-.6 1.1.7 4.6 2.5 7.2 1.9L48.5 29c2.5-.6 5-3.7 5.7-4.7.6-.9 1.8-1.2 2.8-.6.9.6 1.2 1.8.6 2.8-.4.6-3.6 5.5-8.2 6.5l-31.3 6.9c-.6 0-1.3.1-1.9.1z" opacity=".2"/><path fill="none" stroke="#f5cf87" stroke-linecap="round" stroke-miterlimit="10" stroke-width="3" d="M55 24s-3 4.8-7 5.6c0 0-27.3 6-31.3 6.9-3.9.9-8.7-2.2-8.7-2.2"/></svg>