<svg xmlns="http://www.w3.org/2000/svg" xml:space="preserve" id="Layer_1" x="0" y="0" version="1.1" viewBox="0 0 64 64"><style>.st1{opacity:.2;fill:#231f20}.st2{fill:#4f5d73}</style><circle cx="32" cy="32" r="32" fill="#76c2af"/><path d="M46 29c-3 0-5.4 2.2-5.9 5H14c-1.1 0-2 .9-2 2v14c0 1.1.9 2 2 2h24c1.1 0 2-.9 2-2h10c1.1 0 2-.9 2-2V35c0-3.3-2.7-6-6-6z" class="st1"/><path d="M52 34c0-1.1-.9-2-2-2H14c-1.1 0-2 .9-2 2v12c0 1.1.9 2 2 2h36c1.1 0 2-.9 2-2V34z" class="st2"/><path d="M40 42c0 3.3 2.7 6 6 6s6-2.7 6-6v-9c0-3.3-2.7-6-6-6s-6 2.7-6 6v9zM38 33c0 1.1-.9 2-2 2H21c-1.1 0-2-.9-2-2V14c0-1.1.9-2 2-2h15c1.1 0 2 .9 2 2v19z" class="st2"/><path d="M40 48c0 1.1-.9 2-2 2H14c-1.1 0-2-.9-2-2V34c0-1.1.9-2 2-2h24c1.1 0 2 .9 2 2v14z" class="st2"/><circle cx="46" cy="33" r="3" fill="#77b3d4"/><path d="M35 51c0 1.1-1.1 2-2.4 2h-8.3c-1.3 0-2.4-.9-2.4-2V35c0-1.1 1.1-2 2.4-2h8.3c1.3 0 2.4.9 2.4 2v16z" class="st1"/><path fill="#f5cf87" d="M34 48c0 1.1-.9 2-2 2h-7c-1.1 0-2-.9-2-2V32c0-1.1.9-2 2-2h7c1.1 0 2 .9 2 2v16z"/><path d="M34 50c0 1.1-.9 2-2 2h-7c-1.1 0-2-.9-2-2V34c0-1.1.9-2 2-2h7c1.1 0 2 .9 2 2v16z" class="st2"/><path fill="#e0e0d1" d="M49 43c0 1.1-.9 2-2 2h-7c-1.1 0-2-.9-2-2v-2c0-1.1.9-2 2-2h7c1.1 0 2 .9 2 2v2z"/><path fill="#231f20" d="M47 39h-7c-1.1 0-2 .9-2 2v1c0-1.1.9-2 2-2h7c1.1 0 2 .9 2 2v-1c0-1.1-.9-2-2-2z" opacity=".2"/></svg>