<svg xmlns="http://www.w3.org/2000/svg" xml:space="preserve" id="Layer_1" x="0" y="0" version="1.1" viewBox="0 0 64 64"><style>.st2{opacity:.2;fill:#231f20}.st3{fill:#e0e0d1}.st6{fill:#231f20}</style><circle cx="32" cy="32" r="32" fill="#4f5d73"/><path d="M26 52.7c0 1.4-1.1 2.5-2.5 2.5S21 54.1 21 52.7V19.3c0-1.4 1.1-2.5 2.5-2.5s2.5 1.1 2.5 2.5v33.4zM43 52.7c0 1.4-1.1 2.5-2.5 2.5S38 54.1 38 52.7V19.3c0-1.4 1.1-2.5 2.5-2.5s2.5 1.1 2.5 2.5v33.4z" class="st2"/><path d="M26 51c0 1.4-1.1 2.5-2.5 2.5S21 52.4 21 51V17.5c0-1.4 1.1-3.5 2.5-3.5s2.5 2.1 2.5 3.5V51zM43 51c0 1.4-1.1 2.5-2.5 2.5S38 52.4 38 51V17.5c0-1.4 1.1-3.5 2.5-3.5s2.5 2.1 2.5 3.5V51z" class="st3"/><path fill="#e0995e" d="M38 43c0 3.3-2.7 6-6 6s-6-2.7-6-6V16c0-3.3 2.7-9 6-9s6 5.7 6 9v27z"/><path d="M34.6 51c0 1.1-.9 2-2 2H21c-1.1 0-3-.9-3-2v-3c0-1.1 1.8-2.2 3-3 6-4 6-12 6-12 1.1 0 7.6 4.9 7.6 6v12z" class="st2"/><path d="M29.4 51c0 1.1.9 2 2 2H43c1.1 0 3-.9 3-2v-3c0-1.1-1.8-2.2-3-3-6-4-6-12-6-12-1.1 0-7.6 4.9-7.6 6v12z" class="st2"/><path d="M37 54.5c0 1.4-2.2 2.5-5 2.5s-5-1.1-5-2.5V24c0-1.4 2.2-7 5-7s5 5.6 5 7v30.5z" class="st2"/><path d="M34.6 47c0 1.1-.9 2-2 2H21c-1.1 0-3-.9-3-2v-3c0-1.1 1.8-2.2 3-3 6-4 6-12 6-12 1.1 0 7.6 4.9 7.6 6v12z" class="st2"/><path d="M29.4 47c0 1.1.9 2 2 2H43c1.1 0 3-.9 3-2v-3c0-1.1-1.8-2.2-3-3-6-4-6-12-6-12-1.1 0-7.6 4.9-7.6 6v12z" class="st2"/><g opacity=".2"><path d="M26 51V17.5c0-.8-.4-2.1-1-2.5v38c.6-.4 1-1.2 1-2zM38 17.5V51c0 .8.4 1.6 1 2V15c-.6.5-1 1.7-1 2.5z" class="st6"/></g><path d="M34.6 49c0 1.1-.9 2-2 2H21c-1.1 0-3-.9-3-2v-3c0-1.1 1.8-2.2 3-3 6-4 6-12 6-12 1.1 0 7.6 4.9 7.6 6v12z" class="st3"/><path d="M29.4 49c0 1.1.9 2 2 2H43c1.1 0 3-.9 3-2v-3c0-1.1-1.8-2.2-3-3-6-4-6-12-6-12-1.1 0-7.6 4.9-7.6 6v12z" class="st3"/><path fill="#fff" d="M37 52.5c0 1.4-2.2 2.5-5 2.5s-5-1.1-5-2.5V22c0-1.4 2.2-7 5-7s5 5.6 5 7v30.5z"/></svg>