<svg xmlns="http://www.w3.org/2000/svg" xml:space="preserve" id="Layer_1" x="0" y="0" version="1.1" viewBox="0 0 64 64"><style>.st2{fill:#231f20}.st3{fill:#4f5d73}</style><circle cx="32" cy="32" r="32" fill="#e0995e"/><g opacity=".2"><path d="M33.9 12.2c-.3-.1-.6-.2-.9-.2-.4 0-.9.1-1.2.4L17.3 24H12c-1.1 0-2 .9-2 2v16c0 1.1.9 2 2 2h5.3l14.5 11.6c.4.3.8.4 1.2.4.3 0 .6-.1.9-.2.7-.3 1.1-1 1.1-1.8V14c0-.8-.4-1.5-1.1-1.8zM38 36.8c-.7.5-.8 1.4-.3 2.1.3.4.8.6 1.2.6.3 0 .6-.1.9-.3 1.7-1.2 2.7-3.2 2.7-5.3s-1-4-2.7-5.3c-.7-.5-1.6-.3-2.1.3-.5.7-.3 1.6.3 2.1.9.7 1.5 1.7 1.5 2.8s-.5 2.4-1.5 3z" class="st2"/><path d="M38.5 43.2c-.8.2-1.3 1-1 1.8.2.7.8 1.1 1.4 1.1.1 0 .3 0 .4-.1 5.4-1.5 9.2-6.4 9.2-12s-3.8-10.6-9.2-12c-.8-.2-1.6.3-1.8 1-.2.8.3 1.6 1 1.8 4.1 1.1 7 4.9 7 9.2s-2.9 8-7 9.2z" class="st2"/><path d="M39.2 15.8c-.8-.1-1.6.4-1.7 1.2-.1.8.4 1.6 1.2 1.7C46.1 20 51.5 26.4 51.5 34s-5.4 14-12.8 15.3c-.8.1-1.4.9-1.2 1.7.1.7.8 1.2 1.5 1.2h.3C48.1 50.7 54.5 43 54.5 34s-6.4-16.7-15.3-18.2z" class="st2"/></g><path d="M31 40c0 1.1-.9 2-2 2H12c-1.1 0-2-.9-2-2V24c0-1.1.9-2 2-2h17c1.1 0 2 .9 2 2v16z" class="st3"/><path d="M33 53c-.2 0-.4-.1-.6-.2l-15-12c-.3-.2-.4-.5-.4-.8V24c0-.3.1-.6.4-.8l15-12c.2-.1.4-.2.6-.2.1 0 .3 0 .4.1.3.2.6.5.6.9v40c0 .4-.2.7-.6.9-.1.1-.3.1-.4.1z" class="st3"/><path d="M33 12v40L18 40V24l15-12m0-2c-.4 0-.9.1-1.2.4l-15 12c-.5.4-.8 1-.8 1.6v16c0 .6.3 1.2.8 1.6l15 12c.4.3.8.4 1.2.4.3 0 .6-.1.9-.2.7-.3 1.1-1 1.1-1.8V12c0-.8-.4-1.5-1.1-1.8-.3-.1-.6-.2-.9-.2z" class="st3"/><path fill="none" stroke="#fff" stroke-linecap="round" stroke-miterlimit="10" stroke-width="3" d="M38.9 36c1.3-.9 2.1-2.4 2.1-4s-.8-3.1-2.1-4"/><path fill="none" stroke="#e0e0d1" stroke-linecap="round" stroke-miterlimit="10" stroke-width="3" d="M38.9 42.6C43.6 41.3 47 37.1 47 32s-3.4-9.3-8.1-10.6"/><path fill="none" stroke="#f5cf87" stroke-linecap="round" stroke-miterlimit="10" stroke-width="3" d="M38.9 48.7C46.9 47.3 53 40.4 53 32s-6.1-15.3-14.1-16.7"/></svg>