<svg xmlns="http://www.w3.org/2000/svg" xml:space="preserve" id="Layer_1" x="0" y="0" version="1.1" viewBox="0 0 64 64"><style>.st1{opacity:.2;fill:#231f20}.st3{fill:#fff}</style><circle cx="32" cy="32" r="32" fill="#e0995e"/><circle cx="32" cy="25" r="8" class="st1"/><path d="M41 53.7c0 1.3-1 2.3-2.2 2.3H25.2C24 56 23 55 23 53.7V26.3c0-1.3 1-2.3 2.2-2.3h13.5c1.2 0 2.2 1 2.2 2.3v27.4zM30.5 11h3v3h-3z" class="st1"/><circle cx="32" cy="23" r="8" fill="#e0e0d1"/><path d="M41 51.7c0 1.3-1 2.3-2.2 2.3H25.2C24 54 23 53 23 51.7V24.3c0-1.3 1-2.3 2.2-2.3h13.5c1.2 0 2.2 1 2.2 2.3v27.4zM30.5 10h3v3h-3z" class="st3"/><circle cx="32" cy="37" r="6" fill="#c75c5c"/></svg>