<svg xmlns="http://www.w3.org/2000/svg" xml:space="preserve" id="Layer_1" x="0" y="0" version="1.1" viewBox="0 0 64 64"><style>.st4{fill:#4f5d73}.st5{opacity:.2;fill:#231f20}</style><circle cx="32" cy="32" r="32" fill="#77b3d4"/><path fill="#231f20" d="M50.9 37.9c.2-1.8.9-3.4 1.2-5.2.1-.6.2-1.2.2-1.8 0 0-.1.1-.3.1 0 0-12-2-20-2s-20 2-20 2c-1.2 0 0-2-1.1-2.1.1 1.1.3 2.3.6 3.4.6 1.8 1.3 3.7 1.6 5.6l9.2-.9c3.2 0 5.8 2.6 5.8 5.8v7.5c0 .4-.1.8-.1 1.2 2.7.1 5.6.4 8.3.2-.1-.4-.2-.9-.2-1.3v-7.5c0-3.2 2.6-5.8 5.8-5.8l9 .8z" opacity=".2"/><path d="M12 28c-1.2 0 0-2-1.1-2.1-.6 1.9-.9 4-.9 6.1 0 .8 0 1.5.1 2.2.5-.2 1.1.8 1.6.8l10.5-1c3.2 0 5.8 2.6 5.8 5.8v7.5c0 2.5-1.5 4.5-3.7 5.4 2.4.9 5 1.4 7.7 1.4s5.3-.5 7.7-1.4c-2.2-.8-3.7-2.9-3.7-5.4v-7.5c0-3.2 2.6-5.8 5.8-5.8l10.5 1c.6 0 1.1-.9 1.6-.8.1-.7.1-1.4.1-2.2 0-2.1-.3-4.2-.9-6.1-1.1.1.1 2.1-1.1 2.1 0 0-12-2-20-2s-20 2-20 2z" class="st4"/><circle cx="32" cy="33" r="3" class="st5"/><circle cx="32" cy="32" r="3" fill="#76c2af"/><path d="M32 16c9.6 0 17.5 7.9 17.5 17.5S41.6 51 32 51s-17.5-7.9-17.5-17.5S22.4 16 32 16m0-4c-12.2 0-22 9.8-22 22s9.8 22 22 22 22-9.8 22-22-9.8-22-22-22z" class="st5"/><path d="M32 14c9.9 0 18 8.1 18 18s-8.1 18-18 18-18-8.1-18-18 8.1-18 18-18m0-4c-12.2 0-22 9.8-22 22s9.8 22 22 22 22-9.8 22-22-9.8-22-22-22z" class="st4"/></svg>