<svg xmlns="http://www.w3.org/2000/svg" xml:space="preserve" id="Layer_1" x="0" y="0" version="1.1" viewBox="0 0 64 64"><style>.st1{opacity:.2;fill:#231f20}.st3{fill:#4f5d73}</style><circle cx="32" cy="32" r="32" fill="#e0995e"/><path d="M46 53c0 1.1-.9 2-2 2H20c-1.1 0-2-.9-2-2V15c0-1.1.9-2 2-2h24c1.1 0 2 .9 2 2v38z" class="st1"/><path fill="#f5cf87" d="M46 51c0 1.1-.9 2-2 2H20c-1.1 0-2-.9-2-2V13c0-1.1.9-2 2-2h24c1.1 0 2 .9 2 2v38z"/><circle cx="32" cy="39.5" r="10.5" class="st3"/><path fill="#231f20" d="M32 31c5.5 0 9.9 4.2 10.4 9.5 0-.3.1-.7.1-1C42.5 33.7 37.8 29 32 29s-10.5 4.7-10.5 10.5c0 .3 0 .7.1 1 .5-5.3 4.9-9.5 10.4-9.5z" opacity=".2"/><circle cx="32" cy="20.5" r="6.5" class="st3"/><circle cx="32" cy="41.8" r="2.4" class="st1"/><circle cx="32" cy="22.4" r="2.4" class="st1"/><circle cx="32" cy="40" r="2.4" class="st3"/><circle cx="32" cy="20.5" r="2.4" class="st3"/><path d="M32 16c4 0 5.8 2.7 6.4 5.7.1-.4.1-.8.1-1.2 0-3.6-2.9-6.5-6.5-6.5s-6.5 2.9-6.5 6.5c0 .4 0 .8.1 1.2.6-3 2.4-5.7 6.4-5.7z" class="st1"/></svg>