<svg xmlns="http://www.w3.org/2000/svg" xml:space="preserve" id="Layer_1" x="0" y="0" version="1.1" viewBox="0 0 64 64"><style>.st2{fill:#f5cf87}.st3{fill:#e0995e}</style><circle cx="32" cy="32" r="32" fill="#4f5d73"/><path d="M44.2 26.6S40.3 20 38.6 20h-9.2c-1.7 0-5.6 6.6-5.6 6.6 0 3.1.8 4.6 2.5 4.6h15.3c1.7 0 2.6-1.5 2.6-4.6zM20.8 38.3s4 6.6 5.8 6.6h15.7c1.7 0 5.8-6.6 5.8-6.6 0-3.1-.9-4.6-2.6-4.6h-22c-1.8 0-2.7 1.5-2.7 4.6z" class="st2"/><path d="M16 36c0 1.1-2.9 6-4 6s-2-.9-2-2V26c0-1.1.9-2 2-2s4 4.9 4 6v6z" class="st3"/><path fill="#231f20" d="M56 35c0-5.5-8.8-9-21-9S8 33.3 8 35c0 1.6 14.8 9 27 9s21-3.5 21-9z" opacity=".2"/><path d="M56 33c0-5.5-8.8-9-21-9S8 31.3 8 33c0 1.6 14.8 9 27 9s21-3.5 21-9z" class="st2"/><circle cx="36" cy="32" r="3" class="st3"/><circle cx="46" cy="32" r="3" class="st3"/><circle cx="26" cy="32" r="3" class="st3"/></svg>