<svg xmlns="http://www.w3.org/2000/svg" xml:space="preserve" viewBox="0 0 64 64"><style>.st1{opacity:.2}.st2{fill:#231f20}.st4{fill:#e0995e}</style><g id="Layer_1"><circle cx="32" cy="32" r="32" fill="#4f5d73"/><g class="st1"><path d="M10 34c0 12.2 9.8 22 22 22s22-9.8 22-22-9.8-22-22-22-22 9.8-22 22zm34 0c0 6.6-5.4 12-12 12s-12-5.4-12-12 5.4-12 12-12 12 5.4 12 12z" class="st2"/></g><path fill="#fff" d="M10 32c0 12.2 9.8 22 22 22s22-9.8 22-22-9.8-22-22-22-22 9.8-22 22zm34 0c0 6.6-5.4 12-12 12s-12-5.4-12-12 5.4-12 12-12 12 5.4 12 12z"/><g class="st1"><path d="M27.9 22.9c.9.9.9 2.3.1 3.1l-4 4c-.8.8-2.2.8-3.1-.1l-7.4-7.4c-.9-.9-.9-2.3-.1-3.1l4-4c.8-.8 2.2-.8 3.1.1l7.4 7.4z" class="st2"/></g><g class="st1"><path d="M50.6 45.5c.9.9.9 2.3.1 3.1l-4 4c-.8.8-2.2.8-3.1-.1l-7.4-7.4c-.9-.9-.9-2.3-.1-3.1l4-4c.8-.8 2.2-.8 3.1.1l7.4 7.4z" class="st2"/></g><g class="st1"><path d="M43.1 29.9c-.9.9-2.3.9-3.1.1l-4-4c-.8-.8-.8-2.2.1-3.1l7.4-7.4c.9-.9 2.3-.9 3.1-.1l4 4c.8.8.8 2.2-.1 3.1l-7.4 7.4z" class="st2"/></g><g class="st1"><path d="M20.5 52.6c-.9.9-2.3.9-3.1.1l-4-4c-.8-.8-.8-2.2.1-3.1l7.4-7.4c.9-.9 2.3-.9 3.1-.1l4 4c.8.8.8 2.2-.1 3.1l-7.4 7.4z" class="st2"/></g><path d="M27.9 20.9c.9.9.9 2.3.1 3.1l-4 4c-.8.8-2.2.8-3.1-.1l-7.4-7.4c-.9-.9-.9-2.3-.1-3.1l4-4c.8-.8 2.2-.8 3.1.1l7.4 7.4zM50.6 43.5c.9.9.9 2.3.1 3.1l-4 4c-.8.8-2.2.8-3.1-.1l-7.4-7.4c-.9-.9-.9-2.3-.1-3.1l4-4c.8-.8 2.2-.8 3.1.1l7.4 7.4zM43.1 27.9c-.9.9-2.3.9-3.1.1l-4-4c-.8-.8-.8-2.2.1-3.1l7.4-7.4c.9-.9 2.3-.9 3.1-.1l4 4c.8.8.8 2.2-.1 3.1l-7.4 7.4zM20.5 50.6c-.9.9-2.3.9-3.1.1l-4-4c-.8-.8-.8-2.2.1-3.1l7.4-7.4c.9-.9 2.3-.9 3.1-.1l4 4c.8.8.8 2.2-.1 3.1l-7.4 7.4z" class="st4"/></g></svg>