<svg xmlns="http://www.w3.org/2000/svg" xml:space="preserve" id="Layer_1" x="0" y="0" version="1.1" viewBox="0 0 64 64"><style>.st4{fill:#fff}</style><circle cx="32" cy="32" r="32" fill="#e0995e"/><path fill="#231f20" d="M47 49c0 2.2-1.8 4-4 4H21c-2.2 0-4-1.8-4-4V17c0-2.2 1.8-4 4-4h22c2.2 0 4 1.8 4 4v32z" opacity=".2"/><path fill="#4f5d73" d="M21 49.5c-1.4 0-2.5-1.1-2.5-2.5V15c0-1.4 1.1-2.5 2.5-2.5h22c1.4 0 2.5 1.1 2.5 2.5v32c0 1.4-1.1 2.5-2.5 2.5H21z"/><path d="M43 14c.6 0 1 .4 1 1v32c0 .6-.4 1-1 1H21c-.6 0-1-.4-1-1V15c0-.6.4-1 1-1h22m0-3H21c-2.2 0-4 1.8-4 4v32c0 2.2 1.8 4 4 4h22c2.2 0 4-1.8 4-4V15c0-2.2-1.8-4-4-4z" class="st4"/><path fill="#fff" d="M45 48.5v-36H24.7l15.3 37c1.6-.4 3.3-.7 5-1z" opacity=".2"/><path d="M45 50H20l-1-7h26z" class="st4"/><circle cx="32" cy="47" r="2" fill="#e0e0d1"/></svg>