<svg xmlns="http://www.w3.org/2000/svg" xml:space="preserve" id="Layer_1" x="0" y="0" version="1.1" viewBox="0 0 64 64"><style>.st2{opacity:.2;fill:#231f20}.st3{fill:#fff}</style><circle cx="32" cy="32" r="32" fill="#76c2af"/><path d="M50.5 25.4 31 43.1s-4.3 3.8-10.4 3c-2.7-.4-6.1-1.3-10.5-3.1l1.9-2.5h10.2S39.8 25.9 42 23.6c1.9-1.9 6.8-3.3 9.9-2.5 1.2.4 1.6 1.3-1.4 4.3z" class="st2"/><path d="m33.2 35.3-17.4-2.7 2.5-3.5h22.2z" class="st2"/><path d="M50.5 23.4 31 41.1s-4.3 3.8-10.4 3c-2.7-.4-6.1-1.3-10.5-3.1l1.9-2.5h10.2S39.8 23.9 42 21.6c1.9-1.9 6.8-3.3 9.9-2.5 1.2.4 1.6 1.3-1.4 4.3z" class="st3"/><path d="m33.2 33.3-17.4-2.7 2.2-4h23z" class="st3"/></svg>