<svg xmlns="http://www.w3.org/2000/svg" xml:space="preserve" viewBox="0 0 64 64"><style>.st4{fill:#fff}</style><g id="Layer_1"><circle cx="32" cy="32" r="32" fill="#4f5d73"/><circle cx="32" cy="34" r="22" fill="#231f20" opacity=".2"/><path fill="#c75c5c" d="M32 52c-11 0-20-9-20-20s9-20 20-20 20 9 20 20-9 20-20 20z"/><path d="M32 14c9.9 0 18 8.1 18 18s-8.1 18-18 18-18-8.1-18-18 8.1-18 18-18m0-4c-12.2 0-22 9.8-22 22s9.8 22 22 22 22-9.8 22-22-9.8-22-22-22z" class="st4"/><path d="M32 22c5.5 0 10 4.5 10 10s-4.5 10-10 10-10-4.5-10-10 4.5-10 10-10m0-4c-7.7 0-14 6.3-14 14s6.3 14 14 14 14-6.3 14-14-6.3-14-14-14z" class="st4"/><circle cx="32" cy="32" r="5" class="st4"/></g></svg>