<svg xmlns="http://www.w3.org/2000/svg" xml:space="preserve" id="Layer_1" x="0" y="0" version="1.1" viewBox="0 0 64 64"><style>.st2{opacity:.2;fill:#231f20}.st3{fill:#e0995e}.st4{opacity:.2}.st5{fill:#231f20}.st8{fill:#e0995e;stroke:#f5cf87;stroke-width:2;stroke-miterlimit:10}</style><circle cx="32" cy="32" r="32" fill="#4f5d73"/><path d="M20 50c0 1.1-.9 2-2 2h-2c-1.1 0-2-.9-2-2V39c0-1.1.9-2 2-2h2c1.1 0 2 .9 2 2v11zM50 50c0 1.1-.9 2-2 2h-2c-1.1 0-2-.9-2-2V39c0-1.1.9-2 2-2h2c1.1 0 2 .9 2 2v11z" class="st2"/><path d="M20 48c0 1.1-.9 2-2 2h-2c-1.1 0-2-.9-2-2V37c0-1.1.9-2 2-2h2c1.1 0 2 .9 2 2v11zM50 48c0 1.1-.9 2-2 2h-2c-1.1 0-2-.9-2-2V37c0-1.1.9-2 2-2h2c1.1 0 2 .9 2 2v11z" class="st3"/><g class="st4"><path d="M44 38H20c-3.3 0-6-2.7-6-6v-.4l2-7.1c1-3.5 3.2-5.5 6-5.5h20c2.8 0 5 2 5.9 5.5v.1l2 7.4c.1 3.3-2.6 6-5.9 6zm-26-5.8c.1 1 .9 1.8 2 1.8h24c1 0 1.9-.8 2-1.8l-1.9-6.7c-.3-.8-.9-2.5-2.1-2.5H22c-1.2 0-1.8 1.7-2.1 2.5L18 32.2z" class="st5"/></g><path fill="none" stroke="#f5cf87" stroke-miterlimit="10" stroke-width="4" d="M48.4 32c0 2.2-2.2 2-4.4 2H20c-2.2 0-4.6.2-4.6-2l2.6-9c.5-2 1.8-4 4-4h20c2.2 0 3.5 2 4 4l2.4 9z"/><g class="st4"><path d="M52 42c0 2.2-1.8 4-4 4H16c-2.2 0-4-1.8-4-4v-4c0-2.2 1.8-4 4-4h32c2.2 0 4 1.8 4 4v4z" class="st5"/><path d="M48 48H16c-3.3 0-6-2.7-6-6v-4c0-3.3 2.7-6 6-6h32c3.3 0 6 2.7 6 6v4c0 3.3-2.7 6-6 6zM16 36c-1.1 0-2 .9-2 2v4c0 1.1.9 2 2 2h32c1.1 0 2-.9 2-2v-4c0-1.1-.9-2-2-2H16z" class="st5"/></g><path fill="#f5cf87" stroke="#f5cf87" stroke-miterlimit="10" stroke-width="4" d="M52 40c0 2.2-1.8 4-4 4H16c-2.2 0-4-1.8-4-4v-4c0-2.2 1.8-4 4-4h32c2.2 0 4 1.8 4 4v4z"/><path d="M21 39c0 2.2-1.8 4-4 4s-4-1.8-4-4 1.8-4 4-4 4 1.8 4 4zM51 39c0 2.2-1.8 4-4 4s-4-1.8-4-4 1.8-4 4-4 4 1.8 4 4z" class="st8"/><path fill="#4f5d73" stroke="#f5cf87" stroke-miterlimit="10" stroke-width="4" d="M37.6 17.7c0 .9.1.8-.8.8h-9.7c-.9 0-.8.1-.8-.8v-.6c.2-.8.7-1.6 1.6-1.6H36c.9 0 1.4.8 1.6 1.6v.6z"/></svg>