<svg xmlns="http://www.w3.org/2000/svg" xml:space="preserve" viewBox="0 0 64 64"><style>.st1{opacity:.2}.st2{fill:#231f20}.st4{fill:#c75c5c}</style><g id="Layer_1"><circle cx="32" cy="32" r="32" fill="#e0e0d1"/><g class="st1"><path d="M52 44c0 2.2-1.8 4-4 4H16c-2.2 0-4-1.8-4-4V26c0-2.2 1.8-4 4-4h32c2.2 0 4 1.8 4 4v18z" class="st2"/></g><path fill="#4f5d73" d="M38 17v20H26V17h12m0-4H26c-2.2 0-4 1.8-4 4v20c0 2.2 1.8 4 4 4h12c2.2 0 4-1.8 4-4V17c0-2.2-1.8-4-4-4z"/><path d="M12 29v13c0 2.2 1.8 4 4 4h32c2.2 0 4-1.8 4-4V29H12z" class="st4"/><path fill="#f5cf87" d="M36 28v3h-8v-3h8m0-4h-8c-2.2 0-4 1.8-4 4v3c0 2.2 1.8 4 4 4h8c2.2 0 4-1.8 4-4v-3c0-2.2-1.8-4-4-4z"/><g class="st1"><path d="M52 26c0-2.2-1.8-4-4-4H16c-2.2 0-4 1.8-4 4v5h40v-5z" class="st2"/></g><path d="M52 24c0-2.2-1.8-4-4-4H16c-2.2 0-4 1.8-4 4v5h40v-5z" class="st4"/></g></svg>