<svg xmlns="http://www.w3.org/2000/svg" xml:space="preserve" id="Layer_1" x="0" y="0" version="1.1" viewBox="0 0 64 64"><style>.st3{fill:#231f20}.st4{fill:#76c2af}.st5{fill:#f5cf87}.st6{opacity:.2;fill:#231f20}.st7{fill:#4f5d73}</style><circle cx="32" cy="32" r="32" fill="#c75c5c"/><g opacity=".2"><path d="M47.5 38c1.7 0 3.3.7 4.5 1.8V34c0-2.2-1.8-4-4-4H37.6c-1.5-5.3-3.5-12.4-3.6-13 0-1.1-.9-2-2-2H20c-1.1 0-2 .9-2 2v10.7c1.3-.4 2.6-.7 4-.7v-8h8.4l3 11h-3.5c2.5 2.2 4.1 5.4 4.1 9 0 2.2-.6 4.2-1.6 6H41v-.5c0-3.6 2.9-6.5 6.5-6.5z" class="st3"/><path d="M30 39c0-4.4-3.6-8-8-8s-8 3.6-8 8 3.6 8 8 8 8-3.6 8-8z" class="st3"/><circle cx="47.5" cy="44.5" r="2.5" class="st3"/></g><path d="M30.4 17c.7 2.5 2.2 8.1 3.6 13.1l-12 1V17h8.4m1.6-4H20c-1.1 0-2 .9-2 2v20.4l21.2-1.8s-5-17.7-5.2-18.7c0-1-.9-1.9-2-1.9z" class="st4"/><path d="M52 39c0 2.2-1.8 4-4 4H30c-2.2 0-4-1.8-4-4v-7c0-2.2 1.8-4 4-4h18c2.2 0 4 1.8 4 4v7z" class="st4"/><path d="M22 29c-4.4 0-8 3.6-8 8s3.6 8 8 8 8-3.6 8-8-3.6-8-8-8z" class="st5"/><circle cx="47.5" cy="42.5" r="2.5" class="st5"/><path d="M29.9 30c-2.1-1.9-4.9-3-7.9-3-1.4 0-2.7.3-4 .7-4.7 1.6-8 6.1-8 11.3 0 6.6 5.4 12 12 12 4.4 0 8.3-2.4 10.4-6 1-1.8 1.6-3.8 1.6-6 0-3.6-1.6-6.8-4.1-9zM22 47c-4.4 0-8-3.6-8-8s3.6-8 8-8 8 3.6 8 8-3.6 8-8 8zM52 39.8c-1.2-1.1-2.8-1.8-4.5-1.8-3.6 0-6.5 2.9-6.5 6.5v.5c.3 3.4 3.1 6 6.5 6 3.6 0 6.5-2.9 6.5-6.5 0-1.8-.8-3.5-2-4.7zm-2 4.7c0 1.4-1.1 2.5-2.5 2.5S45 45.9 45 44.5s1.1-2.5 2.5-2.5 2.5 1.1 2.5 2.5z" class="st6"/><path d="M22 25c-6.6 0-12 5.4-12 12s5.4 12 12 12 12-5.4 12-12-5.4-12-12-12zm0 20c-4.4 0-8-3.6-8-8s3.6-8 8-8 8 3.6 8 8-3.6 8-8 8zM47.5 36c-3.6 0-6.5 2.9-6.5 6.5s2.9 6.5 6.5 6.5 6.5-2.9 6.5-6.5-2.9-6.5-6.5-6.5zm0 9c-1.4 0-2.5-1.1-2.5-2.5s1.1-2.5 2.5-2.5 2.5 1.1 2.5 2.5-1.1 2.5-2.5 2.5z" class="st7"/><path d="m34 15-3.6 2s.5 2.1.5 2H34c1.1 0 2-.9 2-2s-.9-2-2-2z" class="st6"/><path d="M36 15c0 1.1-.9 2-2 2H20c-1.1 0-2-.9-2-2s.9-2 2-2h14c1.1 0 2 .9 2 2z" class="st4"/></svg>