<svg xmlns="http://www.w3.org/2000/svg" xml:space="preserve" viewBox="0 0 64 64"><style>.st1{opacity:.2}.st2{fill:#231f20}</style><g id="Layer_1"><circle cx="32" cy="32" r="32" fill="#77b3d4"/><g class="st1"><path d="M44 54c0 1.7-1.3 3-3 3H23c-1.7 0-3-1.3-3-3V14c0-1.7 1.3-3 3-3h18c1.7 0 3 1.3 3 3v40z" class="st2"/></g><path fill="#4f5d73" d="M44 52c0 1.7-1.3 3-3 3H23c-1.7 0-3-1.3-3-3V12c0-1.7 1.3-3 3-3h18c1.7 0 3 1.3 3 3v40z"/><g class="st1"><circle cx="32" cy="34" r="5" class="st2"/></g><g class="st1"><circle cx="32" cy="21" r="5" class="st2"/></g><g class="st1"><circle cx="32" cy="47" r="5" class="st2"/></g><circle cx="32" cy="32" r="5" fill="#f5cf87"/><circle cx="32" cy="19" r="5" fill="#c75c5c"/><circle cx="32" cy="45" r="5" fill="#76c2af"/></g></svg>