<svg xmlns="http://www.w3.org/2000/svg" xml:space="preserve" id="Layer_1" x="0" y="0" version="1.1" viewBox="0 0 64 64"><style>.st3{fill:#231f20}.st7{fill:#e0995e;stroke:#e0e0d1;stroke-width:4;stroke-miterlimit:10}</style><circle cx="32" cy="32" r="32" fill="#c75c5c"/><g opacity=".2"><path d="M20 34h24c1.1 0 2-.9 2-2V20c0-1.1-.9-2-2-2H20c-1.1 0-2 .9-2 2v12c0 1.1.9 2 2 2z" class="st3"/><path d="M44 14H20c-3.3 0-6 2.7-6 6v24c0 3.3 2.7 6 6 6h24c3.3 0 6-2.7 6-6V20c0-3.3-2.7-6-6-6zm-26 6c0-1.1.9-2 2-2h24c1.1 0 2 .9 2 2v12c0 1.1-.9 2-2 2H20c-1.1 0-2-.9-2-2V20z" class="st3"/><circle cx="44" cy="44" r="2" class="st3"/><path d="M42 52H22c-1.1 0-2 .9-2 2s.9 2 2 2h20c1.1 0 2-.9 2-2s-.9-2-2-2z" class="st3"/></g><path fill="#fff" stroke="#fff" stroke-miterlimit="10" stroke-width="4" d="M48 42c0 2.2-1.8 4-4 4H20c-2.2 0-4-1.8-4-4V18c0-2.2 1.8-4 4-4h24c2.2 0 4 1.8 4 4v24z"/><path fill="#4f5d73" stroke="#fff" stroke-miterlimit="10" stroke-width="4" d="M48 30c0 2.2-1.8 4-4 4H20c-2.2 0-4-1.8-4-4V18c0-2.2 1.8-4 4-4h24c2.2 0 4 1.8 4 4v12z"/><path fill="#e0e0d1" stroke="#e0e0d1" stroke-miterlimit="10" stroke-width="4" d="M20 46h24c2.2 0 4-1.8 4-4v-4H16v4c0 2.2 1.8 4 4 4z"/><path d="M24 42c0 2.2-1.8 4-4 4s-4-1.8-4-4 1.8-4 4-4 4 1.8 4 4zM48 42c0 2.2-1.8 4-4 4s-4-1.8-4-4 1.8-4 4-4 4 1.8 4 4z" class="st7"/><path fill="#f5cf87" d="M44 52c0 1.1-.9 2-2 2H22c-1.1 0-2-.9-2-2s.9-2 2-2h20c1.1 0 2 .9 2 2z"/></svg>