<svg xmlns="http://www.w3.org/2000/svg" xml:space="preserve" id="Layer_1" x="0" y="0" version="1.1" viewBox="0 0 64 64"><style>.st2{opacity:.2}.st3{fill:#231f20}.st5{fill:#c75c5c}.st6{opacity:.2;fill:#231f20}</style><circle cx="32" cy="32" r="32" fill="#e0e0d1"/><g class="st2"><path d="M51 36.9c0 4.7-3.8 8.5-8.5 8.5S34 41.6 34 36.9c0-6.2 8.5-13.9 8.5-13.9S51 30.7 51 36.9z" class="st3"/></g><g class="st2"><path d="M11 42.5c-.5 0-1-.3-1.3-.7-.4-.7-.2-1.6.5-2.1l39-23c.7-.4 1.6-.2 2.1.5.4.7.2 1.6-.5 2.1l-39 23c-.3.1-.5.2-.8.2z" class="st3"/></g><path fill="none" stroke="#e0995e" stroke-linecap="round" stroke-miterlimit="10" stroke-width="3" d="m11 39 39-23"/><path d="M51 34.9c0 4.7-3.8 8.5-8.5 8.5S34 39.6 34 34.9c0-6.2 8.5-13.9 8.5-13.9S51 28.7 51 34.9z" class="st5"/><path d="M39.8 21.6c.6-1.1 0-4-4-3-4.9 1.2-5-2-5-2s-1.9 4.7 3.5 6.3c2.5.7 4.5.7 5.5-1.3z" class="st6"/><path d="M39.8 20c.6-1.1 0-4-4-3-4.9 1.2-5-2-5-2s-1.9 4.7 3.5 6.3c2.5.7 4.5.7 5.5-1.3z" class="st5"/><path d="M45.5 21.9c-.8.9-1.1 3.9 3.1 4 5.1.1 4.3 3.3 4.3 3.3s3.1-4-1.7-7c-2.3-1.4-4.2-2-5.7-.3z" class="st6"/><path d="M45.5 20c-.8.9-1.1 3.9 3.1 4 5.1.1 4.3 3.3 4.3 3.3s3.1-4-1.7-7c-2.3-1.4-4.2-1.9-5.7-.3z" class="st5"/><circle cx="42.5" cy="21.5" r="4.5" class="st6"/><circle cx="42.5" cy="20" r="4" class="st5"/></svg>