<svg xmlns="http://www.w3.org/2000/svg" xml:space="preserve" viewBox="0 0 64 64"><style>.st1{fill:#fff}.st3{opacity:.2}.st4{fill:#231f20}</style><g id="Layer_1"><circle cx="32" cy="32" r="32" fill="#76c2af"/><path d="M29.1 44.5c-.5 0-.9-.2-1.2-.6L17.6 29.3l-7.8 5.2c-.7.5-1.6.3-2.1-.4s-.3-1.6.4-2.1l9-6c.7-.5 1.6-.3 2.1.4L29 40.2l10.7-19.8c.2-.4.7-.7 1.2-.8.5 0 1 .2 1.3.6l13 16.9c.5.7.4 1.6-.3 2.1s-1.6.4-2.1-.3l-11.6-15-10.8 19.8c-.2.5-.7.8-1.3.8.1 0 .1 0 0 0z" class="st1"/><circle cx="41" cy="23.1" r="4.4" fill="#c75c5c"/><g class="st3"><path d="M29.1 46.5c-.5 0-.9-.2-1.2-.6L17.6 31.3l-7.8 5.2c-.7.5-1.6.3-2.1-.4s-.3-1.6.4-2.1l9-6c.7-.5 1.6-.3 2.1.4L29 42.2l10.7-19.8c.2-.4.7-.7 1.2-.8.5 0 1 .2 1.3.6l13 16.9c.5.7.4 1.6-.3 2.1s-1.6.4-2.1-.3l-11.6-15-10.8 19.8c-.2.5-.7.8-1.3.8.1 0 .1 0 0 0z" class="st4"/></g><path d="M29.1 44.5c-.5 0-.9-.2-1.2-.6L17.6 29.3l-7.8 5.2c-.7.5-1.6.3-2.1-.4s-.3-1.6.4-2.1l9-6c.7-.5 1.6-.3 2.1.4L29 40.2l10.7-19.8c.2-.4.7-.7 1.2-.8.5 0 1 .2 1.3.6l13 16.9c.5.7.4 1.6-.3 2.1s-1.6.4-2.1-.3l-11.6-15-10.8 19.8c-.2.5-.7.8-1.3.8.1 0 .1 0 0 0z" class="st1"/><g class="st3"><circle cx="41" cy="25.1" r="4.4" class="st4"/></g><circle cx="41" cy="23.1" r="4.4" fill="#4f5d73"/></g></svg>