<svg xmlns="http://www.w3.org/2000/svg" xml:space="preserve" id="Layer_1" x="0" y="0" version="1.1" viewBox="0 0 64 64"><style>.st1{opacity:.2}.st2{fill:#231f20}.st3{fill:#4f5d73}</style><circle cx="32" cy="32" r="32" fill="#76c2af"/><g class="st1"><path d="M32 22c-1.1 0-2-.9-2-2v-4c0-1.1.9-2 2-2s2 .9 2 2v4c0 1.1-.9 2-2 2z" class="st2"/></g><path d="M32 20c-1.1 0-2-.9-2-2v-4c0-1.1.9-2 2-2s2 .9 2 2v4c0 1.1-.9 2-2 2z" class="st3"/><g class="st1"><path d="M36 18h-8c-1.1 0-2-.9-2-2s.9-2 2-2h8c1.1 0 2 .9 2 2s-.9 2-2 2z" class="st2"/></g><path d="M36 16h-8c-1.1 0-2-.9-2-2s.9-2 2-2h8c1.1 0 2 .9 2 2s-.9 2-2 2z" class="st3"/><g class="st1"><path d="M32 54c-1.1 0-2-.9-2-2V28c0-1.1.9-2 2-2s2 .9 2 2v24c0 1.1-.9 2-2 2z" class="st2"/></g><path fill="#e0e0d1" d="M32 52c-1.1 0-2-.9-2-2V26c0-1.1.9-2 2-2s2 .9 2 2v24c0 1.1-.9 2-2 2z"/><g class="st1"><path d="M48 54c-.6 0-1.3-.3-1.7-.9L32 31.6 17.7 53.1c-.6.9-1.9 1.2-2.8.6-.9-.6-1.2-1.9-.6-2.8l16-24c.4-.6 1-.9 1.7-.9s1.3.3 1.7.9l16 24c.6.9.4 2.2-.6 2.8-.3.2-.7.3-1.1.3z" class="st2"/></g><path fill="#fff" d="M48 52c-.6 0-1.3-.3-1.7-.9L32 29.6 17.7 51.1c-.6.9-1.9 1.2-2.8.6-.9-.6-1.2-1.9-.6-2.8l16-24c.4-.6 1-.9 1.7-.9s1.3.3 1.7.9l16 24c.6.9.4 2.2-.6 2.8-.3.2-.7.3-1.1.3z"/></svg>