<svg xmlns="http://www.w3.org/2000/svg" xml:space="preserve" id="Layer_1" x="0" y="0" version="1.1" viewBox="0 0 64 64"><style>.st3{fill:#231f20}.st6{fill:#4f5d73}</style><circle cx="32" cy="32" r="32" fill="#e0e0d1"/><g opacity=".2"><path d="M36 18H14c-2.2 0-4 1.8-4 4v16c0 2.2 1.8 4 4 4v2c0 2.2 1.8 4 4 4s4-1.8 4-4v-2h18V22c0-2.2-1.8-4-4-4zM50 26h-8v18c0 2.2 1.8 4 4 4s4-1.8 4-4v-2h4V30c0-2.2-1.8-4-4-4z" class="st3"/></g><path fill="#e0995e" d="M40 36v4H14c-2.2 0-4-1.8-4-4V20c0-2.2 1.8-4 4-4h22c2.2 0 4 1.8 4 4v16z"/><path fill="#c75c5c" d="M54 40H42V24h8c2.2 0 4 1.8 4 4v12z"/><path d="M18 46c2.2 0 4-1.8 4-4h-8c0 2.2 1.8 4 4 4zM46 46c2.2 0 4-1.8 4-4h-8c0 2.2 1.8 4 4 4z" class="st6"/></svg>