<svg xmlns="http://www.w3.org/2000/svg" xml:space="preserve" id="Layer_1" x="0" y="0" version="1.1" viewBox="0 0 64 64"><style>.st0{fill:#f5cf87}.st1{fill:#231f20}.st1,.st4{opacity:.2}.st5{fill:#231f20}.st6{fill:#76c2af}</style><circle cx="32" cy="32" r="32" class="st0"/><path d="M52 49c0 1.1-.9 2-2 2H14c-1.1 0-2-.9-2-2V19c0-1.1.9-2 2-2h36c1.1 0 2 .9 2 2v30z" class="st1"/><path fill="#4f5d73" d="M52 47c0 1.1-.9 2-2 2H14c-1.1 0-2-.9-2-2V17c0-1.1.9-2 2-2h36c1.1 0 2 .9 2 2v30z"/><path fill="#e0e0d1" d="M48 37c0 1.1-.9 2-2 2H18c-1.1 0-2-.9-2-2V20.9c0-1.1.9-2 2-2h28c1.1 0 2 .9 2 2V37z"/><g class="st4"><path d="M46 18.9H18c-1.1 0-2 .9-2 2V22c0-1.1.9-2 2-2h28c1.1 0 2 .9 2 2v-1.1c0-1.1-.9-2-2-2z" class="st5"/></g><path d="M20 45c0 1.1-.9 2-2 2s-2-.9-2-2 .9-2 2-2 2 .9 2 2zM48 45c0 1.1-.9 2-2 2s-2-.9-2-2 .9-2 2-2 2 .9 2 2z" class="st1"/><path d="M20 44c0 1.1-.9 2-2 2s-2-.9-2-2 .9-2 2-2 2 .9 2 2zM48 44c0 1.1-.9 2-2 2s-2-.9-2-2 .9-2 2-2 2 .9 2 2z" class="st6"/><path d="M25 45c0 .6-.4 1-1 1s-1-.4-1-1v-2c0-.6.4-1 1-1s1 .4 1 1v2zM29 45c0 .6-.4 1-1 1s-1-.4-1-1v-2c0-.6.4-1 1-1s1 .4 1 1v2zM37 45c0 .6-.4 1-1 1s-1-.4-1-1v-2c0-.6.4-1 1-1s1 .4 1 1v2zM41 45c0 .6-.4 1-1 1s-1-.4-1-1v-2c0-.6.4-1 1-1s1 .4 1 1v2zM33 45c0 .6-.4 1-1 1s-1-.4-1-1v-2c0-.6.4-1 1-1s1 .4 1 1v2z" class="st0"/><g class="st4"><path d="M24 42c-.6 0-1 .4-1 1v1c0-.6.4-1 1-1s1 .4 1 1v-1c0-.6-.4-1-1-1zM28 42c-.6 0-1 .4-1 1v1c0-.6.4-1 1-1s1 .4 1 1v-1c0-.6-.4-1-1-1zM36 42c-.6 0-1 .4-1 1v1c0-.6.4-1 1-1s1 .4 1 1v-1c0-.6-.4-1-1-1zM40 42c-.6 0-1 .4-1 1v1c0-.6.4-1 1-1s1 .4 1 1v-1c0-.6-.4-1-1-1zM32 42c-.6 0-1 .4-1 1v1c0-.6.4-1 1-1s1 .4 1 1v-1c0-.6-.4-1-1-1z" class="st5"/></g><path fill="#fff" d="M48 37V20.9c0-1.1-.9-2-2-2H25.5L37.1 39H46c1.1 0 2-.9 2-2z" opacity=".2"/></svg>