<svg xmlns="http://www.w3.org/2000/svg" xml:space="preserve" id="Layer_1" x="0" y="0" version="1.1" viewBox="0 0 64 64"><style>.st2{opacity:.2;fill:#231f20}</style><circle cx="32" cy="32" r="32" fill="#4f5d73"/><path d="M56 37c0 2-10.7 8-24 8S8 39 8 37c0-1.8 10.7-8 24-8s24 6.1 24 8z" class="st2"/><path fill="#e0e0d1" d="M56 35c0 2-10.7 8-24 8S8 37 8 35c0-1.8 10.7-8 24-8s24 6.1 24 8z"/><path d="M41.5 30.5c0 5.2-4.2 5.5-9.5 5.5s-9.5-.3-9.5-5.5S26.8 21 32 21s9.5 4.2 9.5 9.5z" class="st2"/><path fill="#77b3d4" d="M41.5 28.5c0 5.2-4.2 5.5-9.5 5.5s-9.5-.3-9.5-5.5S26.8 19 32 19s9.5 4.2 9.5 9.5z"/></svg>