<svg xmlns="http://www.w3.org/2000/svg" xml:space="preserve" id="Layer_1" x="0" y="0" version="1.1" viewBox="0 0 64 64"><style>.st2{opacity:.2}.st3{fill:#231f20}</style><circle cx="32" cy="31.8" r="32" fill="#76c2af"/><g class="st2"><path d="M32 33c5 0 9 4 9 9s-4 9-9 9-9-4-9-9 4-9 9-9m0-4c-7.2 0-13 5.8-13 13s5.8 13 13 13 13-5.8 13-13-5.8-13-13-13z" class="st3"/></g><g class="st2"><path d="M28 46.7c-.6 0-1.3-.3-1.7-.9-.6-.9-.4-2.2.6-2.8l8-5.3c.9-.6 2.2-.4 2.8.6.6.9.4 2.2-.6 2.8l-8 5.3c-.3.2-.7.3-1.1.3z" class="st3"/></g><path fill="#4f5d73" d="M32 31c5 0 9 4 9 9s-4 9-9 9-9-4-9-9 4-9 9-9m0-4c-7.2 0-13 5.8-13 13s5.8 13 13 13 13-5.8 13-13-5.8-13-13-13z"/><path fill="none" stroke="#e0e0d1" stroke-linecap="round" stroke-miterlimit="10" stroke-width="4" d="M32 40V14.4"/><path fill="none" stroke="#fff" stroke-linecap="round" stroke-miterlimit="10" stroke-width="4" d="m28 42.7 8-5.4"/><g class="st2"><path d="M31.4 17.5c-2.8 0-5.2-1-6.5-1.8-.9-.6-1.2-1.9-.6-2.8.6-.9 1.8-1.2 2.8-.6.2.1 4.9 3.1 9.6-.9.8-.7 2.1-.6 2.8.3.7.8.6 2.1-.3 2.8-2.6 2.3-5.4 3-7.8 3z" class="st3"/></g><path fill="none" stroke="#4f5d73" stroke-linecap="round" stroke-miterlimit="10" stroke-width="4" d="M26 12s6 4 12-1"/></svg>