<svg xmlns="http://www.w3.org/2000/svg" xml:space="preserve" viewBox="0 0 64 64"><style>.st1{opacity:.2}.st2{fill:#231f20}.st3{fill:#4f5d73}</style><g id="Layer_1"><circle cx="32" cy="32" r="32" fill="#77b3d4"/><g class="st1"><path d="M21 35.7c-1.4 0-2.5-1.1-2.5-2.5v-7.3c0-7.4 6.1-13.5 13.5-13.5 4.6 0 8.8 2.3 11.3 6.2.8 1.2.4 2.7-.7 3.5-1.2.8-2.7.4-3.5-.7-1.6-2.4-4.2-3.9-7.1-3.9-4.7 0-8.5 3.8-8.5 8.5v7.3c0 1.2-1.1 2.4-2.5 2.4z" class="st2"/></g><path d="M21 33.7c-1.4 0-2.5-1.1-2.5-2.5v-7.3c0-7.4 6.1-13.5 13.5-13.5 4.6 0 8.8 2.3 11.3 6.2.8 1.2.4 2.7-.7 3.5-1.2.8-2.7.4-3.5-.7-1.6-2.4-4.2-3.9-7.1-3.9-4.7 0-8.5 3.8-8.5 8.5v7.3c0 1.2-1.1 2.4-2.5 2.4zM32 32c-2.2 0-4 1.8-4 4 0 1.5.8 2.8 2 3.4V42c0 1.1.9 2 2 2s2-.9 2-2v-2.6c1.2-.7 2-2 2-3.4 0-2.2-1.8-4-4-4z" class="st3"/><g class="st1"><path d="M47 27H17c-1.7 0-3 1.3-3 3v19c0 1.7 1.3 3 3 3h30c1.7 0 3-1.3 3-3V30c0-1.7-1.3-3-3-3zM34 41.4V44c0 1.1-.9 2-2 2s-2-.9-2-2v-2.6c-1.2-.7-2-2-2-3.4 0-2.2 1.8-4 4-4s4 1.8 4 4c0 1.5-.8 2.8-2 3.4z" class="st2"/></g><path fill="#fff" d="M47 25H17c-1.7 0-3 1.3-3 3v19c0 1.7 1.3 3 3 3h30c1.7 0 3-1.3 3-3V28c0-1.7-1.3-3-3-3zM34 39.4V42c0 1.1-.9 2-2 2s-2-.9-2-2v-2.6c-1.2-.7-2-2-2-3.4 0-2.2 1.8-4 4-4s4 1.8 4 4c0 1.5-.8 2.8-2 3.4z"/></g></svg>