<svg xmlns="http://www.w3.org/2000/svg" xml:space="preserve" id="Layer_1" x="0" y="0" version="1.1" viewBox="0 0 64 64"><style>.st1{fill:#4f5d73}.st2{opacity:.2;fill:#231f20}</style><circle cx="32" cy="32" r="32" fill="#76c2af"/><path d="M31 30h11v8H31z" class="st1"/><path d="M34 50c0 1.1-.9 2-2 2H16c-1.1 0-2-.9-2-2V26c0-1.1.9-2 2-2h16c1.1 0 2 .9 2 2v24zM55 46c0 1.1-.9 2-2 2H39c-1.1 0-2-.9-2-2V26c0-1.1.9-2 2-2h14c1.1 0 2 .9 2 2v20z" class="st2"/><path d="M31 30h11v10H31z" class="st2"/><path d="M34 48c0 1.1-.9 2-2 2H16c-1.1 0-2-.9-2-2V24c0-1.1.9-2 2-2h16c1.1 0 2 .9 2 2v24zM55 44c0 1.1-.9 2-2 2H39c-1.1 0-2-.9-2-2V24c0-1.1.9-2 2-2h14c1.1 0 2 .9 2 2v20z" class="st1"/><path d="M24 15c-5 0-9 4-9 9s4 9 9 9 9-4 9-9-4-9-9-9z" class="st1"/><circle cx="18.5" cy="42.5" r="2.5" class="st2"/><circle cx="18.5" cy="40.5" r="2.5" fill="#c75c5c"/><path d="M24 14c-6.6 0-12 5.4-12 12s5.4 12 12 12 12-5.4 12-12-5.4-12-12-12zm0 21c-5 0-9-4-9-9s4-9 9-9 9 4 9 9-4 9-9 9z" class="st2"/><path fill="#e0e0d1" d="M24 12c-6.6 0-12 5.4-12 12s5.4 12 12 12 12-5.4 12-12-5.4-12-12-12zm0 21c-5 0-9-4-9-9s4-9 9-9 9 4 9 9-4 9-9 9z"/></svg>