<svg xmlns="http://www.w3.org/2000/svg" xml:space="preserve" viewBox="0 0 64 64"><style>.st1{fill:#4f5d73}</style><g id="Layer_1"><circle cx="31.8" cy="32" r="32" fill="#c75c5c"/><path d="M16 30h4v4h-4zM16 37h4v4h-4zM16 44h4v4h-4zM16 23h4v4h-4zM16 16h4v4h-4zM44 30h4v4h-4zM44 37h4v4h-4zM44 44h4v4h-4zM44 23h4v4h-4zM44 16h4v4h-4zM24 16h16v14H24zM24 34h16v14H24z" class="st1"/><path fill="#231f20" d="M48 14H16c-2.2 0-4 1.8-4 4v32c0 2.2 1.8 4 4 4h32c2.2 0 4-1.8 4-4V18c0-2.2-1.8-4-4-4zM20 50h-4v-4h4v4zm0-7h-4v-4h4v4zm0-7h-4v-4h4v4zm0-7h-4v-4h4v4zm0-7h-4v-4h4v4zm20 28H24V36h16v14zm0-18H24V18h16v14zm8 18h-4v-4h4v4zm0-7h-4v-4h4v4zm0-7h-4v-4h4v4zm0-7h-4v-4h4v4zm0-7h-4v-4h4v4z" opacity=".2"/><path fill="#e0e0d1" d="M48 12H16c-2.2 0-4 1.8-4 4v32c0 2.2 1.8 4 4 4h32c2.2 0 4-1.8 4-4V16c0-2.2-1.8-4-4-4zM20 48h-4v-4h4v4zm0-7h-4v-4h4v4zm0-7h-4v-4h4v4zm0-7h-4v-4h4v4zm0-7h-4v-4h4v4zm20 28H24V34h16v14zm0-18H24V16h16v14zm8 18h-4v-4h4v4zm0-7h-4v-4h4v4zm0-7h-4v-4h4v4zm0-7h-4v-4h4v4zm0-7h-4v-4h4v4z"/></g></svg>