<svg xmlns="http://www.w3.org/2000/svg" xml:space="preserve" id="Layer_1" x="0" y="0" version="1.1" viewBox="0 0 64 64"><style>.st1{opacity:.2;fill:#231f20}.st2{fill:#c75c5c}.st3{fill:#e0995e}.st4{fill:#f5cf87}.st5{fill:#76c2af}</style><circle cx="32" cy="32" r="32" fill="#4f5d73"/><path d="M26 46h12v4H26zM40 46h12v4H40zM12 46h12v4H12zM26 41h12v4H26zM40 41h12v4H40zM12 41h12v4H12zM26 36h12v4H26zM40 36h12v4H40zM12 36h12v4H12zM26 31h12v4H26zM40 31h12v4H40zM26 26h12v4H26zM26 21h12v4H26zM26 16h12v4H26z" class="st1"/><path d="M26 44h12v4H26zM40 44h12v4H40zM12 44h12v4H12z" class="st2"/><path d="M26 39h12v4H26zM40 39h12v4H40zM12 39h12v4H12zM26 34h12v4H26zM40 34h12v4H40zM12 34h12v4H12z" class="st3"/><path d="M26 29h12v4H26zM40 29h12v4H40zM26 24h12v4H26z" class="st4"/><path d="M26 19h12v4H26zM26 14h12v4H26z" class="st5"/></svg>