<svg xmlns="http://www.w3.org/2000/svg" xml:space="preserve" id="Layer_1" x="0" y="0" version="1.1" viewBox="0 0 64 64"><style>.st6{fill:#e0995e}.st7{fill:#fff}</style><circle cx="32" cy="32" r="32" fill="#4f5d73"/><path fill="#231f20" d="M21.5 57.5c-.8 0-1.5-.7-1.5-1.5V16c0-.8.7-1.5 1.5-1.5s1.5.7 1.5 1.5v40c0 .8-.7 1.5-1.5 1.5zM49.6 23.1 44 21.9l-2.4-.5-3.8-.8-2.2-.4-6-1.2-3.6-.7v27.4l3.6-.7 6-1.2 2.4-.5 3.6-.7 2.4-.5 5.6-1.1c1.4-.3 2.4-1.6 2.4-3V26c0-1.4-1-2.7-2.4-2.9z" opacity=".2"/><path fill="none" stroke="#e0e0d1" stroke-linecap="round" stroke-miterlimit="10" stroke-width="3" d="M21.5 54V14"/><path d="m27.5 18.2 9 1.8v20l-9 1.8z" class="st6"/><path d="m29 20 6 1.2v17.6L29 40V20m-3-3.7v27.4l3.6-.7 6-1.2 2.4-.5V18.7l-2.4-.5-6-1.2-3.6-.7zM43 38.7c-.3 0-.7-.1-1-.3-.3-.3-.5-.7-.5-1.2V22.8c0-.4.2-.9.5-1.2.3-.2.6-.3 1-.3h.3l6 1.2c.7.1 1.2.8 1.2 1.5v12c0 .7-.5 1.3-1.2 1.5l-6 1.2H43z" class="st6"/><path d="m43 22.8 6 1.2v12l-6 1.2V22.8m0-3c-.7 0-1.4.2-1.9.7-.7.5-1.1 1.4-1.1 2.3v14.4c0 .9.4 1.8 1.1 2.3.5.4 1.2.7 1.9.7.2 0 .4 0 .6-.1l6-1.2C51 38.7 52 37.4 52 36V24c0-1.4-1-2.7-2.4-2.9l-6-1.2c-.2-.1-.4-.1-.6-.1z" class="st6"/><path d="m35.5 19.8 7 1.4v17.6l-7 1.4z" class="st7"/><path d="m37 21.6 4 .8v15.2l-4 .8V21.6m-3-3.7v24.2l3.6-.7 4-.8 2.4-.5V19.9l-2.4-.5-4-.8-3.6-.7z" class="st7"/></svg>