<svg xmlns="http://www.w3.org/2000/svg" xml:space="preserve" id="Layer_1" x="0" y="0" version="1.1" viewBox="0 0 64 64"><style>.st2{opacity:.2}.st3{fill:#231f20}</style><circle cx="32" cy="32" r="32" fill="#f5cf87"/><g class="st2"><path d="M32 58c-1.7 0-3-1.3-3-3v-1c0-3.9 2.5-5.9 4.1-7.2 1.5-1.2 1.9-1.6 1.9-2.5-.4-.6-3.1-1.5-4.5-2-3.6-1.3-8.5-3-8.5-7.7 0-4 2.9-6 4.8-7.3 1.8-1.2 2.2-1.6 2.2-2.3v-5c0-1.7 1.3-3 3-3s3 1.3 3 3v5c0 4-2.9 6-4.8 7.3-1.8 1.2-2.2 1.6-2.2 2.3.4.6 3.1 1.5 4.5 2 3.6 1.3 8.5 3 8.5 7.7 0 3.9-2.5 5.9-4.1 7.2-1.5 1.2-1.9 1.6-1.9 2.5v1c0 1.7-1.3 3-3 3z" class="st3"/></g><path fill="none" stroke="#4f5d73" stroke-linecap="round" stroke-miterlimit="10" stroke-width="6" d="M32 53v-1c0-4.9 6-4.8 6-9.7 0-5.2-13-4.6-13-9.7 0-4.9 7-4.7 7-9.6v-5"/><g class="st2"><path d="M23.4 24c-1.5 0-1.9-1.1-.9-2.4L30.2 11c1-1.3 2.6-1.3 3.5 0l7.7 10.6c1 1.3.6 2.4-.9 2.4H23.4z" class="st3"/></g><path fill="#4f5d73" d="M23.4 22c-1.5 0-1.9-1.1-.9-2.4L30.2 9c1-1.3 2.6-1.3 3.5 0l7.7 10.6c1 1.3.6 2.4-.9 2.4H23.4z"/></svg>