<svg xmlns="http://www.w3.org/2000/svg" xml:space="preserve" viewBox="0 0 64 64"><style>.st1{opacity:.2}.st2{fill:#231f20}.st5{fill:#c75c5c}</style><g id="Layer_1"><circle cx="32" cy="32" r="32" fill="#e0e0d1"/><g class="st1"><path d="M46 45c0 2.2-1.8 4-4 4H22c-2.2 0-4-1.8-4-4V25c0-2.2 1.8-4 4-4h20c2.2 0 4 1.8 4 4v20z" class="st2"/></g><path fill="#fff" d="M22 45c-1.1 0-2-.9-2-2V23c0-1.1.9-2 2-2h20c1.1 0 2 .9 2 2v20c0 1.1-.9 2-2 2H22z"/><path fill="#4f5d73" d="M42 23v20H22V23h20m0-4H22c-2.2 0-4 1.8-4 4v20c0 2.2 1.8 4 4 4h20c2.2 0 4-1.8 4-4V23c0-2.2-1.8-4-4-4z"/><g class="st1"><path d="M47 51.4c-.7 0-1.3-.3-1.7-.9-11.8-18.6-31-27.9-31.2-28-1-.5-1.4-1.7-.9-2.7.5-1 1.7-1.4 2.7-.9.8.4 20.3 9.9 32.8 29.5.6.9.3 2.2-.6 2.8-.4.1-.7.2-1.1.2z" class="st2"/></g><path d="M47 49.4c-.7 0-1.3-.3-1.7-.9-11.8-18.6-31-27.9-31.2-28-1-.5-1.4-1.7-.9-2.7s1.7-1.4 2.7-.9c.8.4 20.3 9.9 32.8 29.5.6.9.3 2.2-.6 2.8-.4.1-.7.2-1.1.2z" class="st5"/><g class="st1"><path d="M17.6 52c-.5 0-.9-.2-1.3-.5-.8-.7-.9-2-.2-2.8.2-.2 15.9-18.6 28.8-32.1.8-.8 2-.8 2.8-.1.8.8.8 2 .1 2.8-12.8 13.5-28.5 31.9-28.7 32-.4.5-.9.7-1.5.7z" class="st2"/></g><path d="M17.6 50c-.5 0-.9-.2-1.3-.5-.8-.7-.9-2-.2-2.8.2-.2 15.9-18.6 28.8-32.1.8-.8 2-.8 2.8-.1.8.8.8 2 .1 2.8-12.8 13.5-28.5 31.9-28.7 32-.4.5-.9.7-1.5.7z" class="st5"/></g></svg>