<svg xmlns="http://www.w3.org/2000/svg" xml:space="preserve" id="Layer_1" x="0" y="0" version="1.1" viewBox="0 0 64 64"><style>.st4{fill:#4f5d73}</style><circle cx="32" cy="32" r="32" fill="#e0995e"/><path fill="#231f20" d="m49.8 48.4-5.3-5.3c-.1-.1-.1-.1-.2-.1 2.3-3 3.7-6.8 3.7-10.9 0-9.9-8.1-18-18-18s-18 8.1-18 18 8.1 18 18 18c4 0 7.7-1.3 10.8-3.6l.2.2 5.3 5.3c.5.5 1.1.7 1.8.7.6 0 1.3-.2 1.8-.7.8-1.1.8-2.6-.1-3.6zM30 46c-7.7 0-14-6.3-14-14s6.3-14 14-14 14 6.3 14 14-6.3 14-14 14z" opacity=".2"/><path fill="#231f20" d="M36.5 34h-13c-1.1 0-2-.9-2-2s.9-2 2-2h13c1.1 0 2 .9 2 2s-.9 2-2 2z" opacity=".2"/><path d="M48 50.7c-.6 0-1.3-.2-1.8-.7l-5.3-5.3c-1-1-1-2.6 0-3.5 1-1 2.6-1 3.5 0l5.3 5.3c1 1 1 2.6 0 3.5-.4.4-1.1.7-1.7.7z" class="st4"/><path d="M30 16c7.7 0 14 6.3 14 14s-6.3 14-14 14-14-6.3-14-14 6.3-14 14-14m0-4c-9.9 0-18 8.1-18 18s8.1 18 18 18 18-8.1 18-18-8.1-18-18-18z" class="st4"/><path fill="#fff" d="M36.5 32h-13c-1.1 0-2-.9-2-2s.9-2 2-2h13c1.1 0 2 .9 2 2s-.9 2-2 2z"/></svg>